<?xml version="1.0" encoding="UTF-8" standalone="no"?>
<svg
   version="1.1"
   viewBox="0 0 500 450"
   fill="none"
   stroke="none"
   stroke-linecap="square"
   stroke-miterlimit="10"
   id="svg127"
   sodipodi:docname="architecture.svg"
   width="500"
   height="450"
   inkscape:export-filename="architecture.png"
   inkscape:export-xdpi="128"
   inkscape:export-ydpi="128"
   inkscape:version="1.2.2 (b0a8486541, 2022-12-01)"
   xmlns:inkscape="http://www.inkscape.org/namespaces/inkscape"
   xmlns:sodipodi="http://sodipodi.sourceforge.net/DTD/sodipodi-0.dtd"
   xmlns="http://www.w3.org/2000/svg"
   xmlns:svg="http://www.w3.org/2000/svg">
  <defs
     id="defs131" />
  <sodipodi:namedview
     id="namedview129"
     pagecolor="#ffffff"
     bordercolor="#666666"
     borderopacity="1.0"
     inkscape:showpageshadow="2"
     inkscape:pageopacity="0.0"
     inkscape:pagecheckerboard="0"
     inkscape:deskcolor="#d1d1d1"
     showgrid="false"
     inkscape:zoom="1.378125"
     inkscape:cx="480.72562"
     inkscape:cy="271.02041"
     inkscape:window-width="3840"
     inkscape:window-height="2091"
     inkscape:window-x="0"
     inkscape:window-y="0"
     inkscape:window-maximized="1"
     inkscape:current-layer="svg127" />
  <clipPath
     id="g1bb3cbf6ae8_0_37.0">
    <path
       d="M 0,0 H 960 V 540 H 0 Z"
       clip-rule="nonzero"
       id="path2" />
  </clipPath>
  <g
     clip-path="url(#g1bb3cbf6ae8_0_37.0)"
     id="g125">
    <path
       fill="#ffffff"
       d="M 0,0 H 960 V 540 H 0 Z"
       fill-rule="evenodd"
       id="path5" />
    <path
       fill="#eeeeee"
       d="m 83.35171,96.25698 h 196.6614 v 51.11811 H 83.35171 Z"
       fill-rule="evenodd"
       id="path7" />
    <path
       stroke="#595959"
       stroke-width="1"
       stroke-linejoin="round"
       stroke-linecap="butt"
       d="m 83.35171,96.25698 h 196.6614 v 51.11811 H 83.35171 Z"
       fill-rule="evenodd"
       id="path9" />
    <path
       fill="#000000"
       d="m 152.93045,116.09541 v 4.28125 h -0.32813 q -0.17187,-1.23438 -0.59375,-1.95313 -0.42187,-0.73437 -1.20312,-1.15625 -0.78125,-0.4375 -1.625,-0.4375 -0.9375,0 -1.5625,0.57813 -0.625,0.57812 -0.625,1.3125 0,0.5625 0.39062,1.03125 0.57813,0.6875 2.6875,1.82812 1.73438,0.92188 2.35938,1.42188 0.64062,0.5 0.98437,1.17187 0.34375,0.67188 0.34375,1.40625 0,1.40625 -1.09375,2.42188 -1.07812,1.01563 -2.79687,1.01563 -0.53125,0 -1.01563,-0.0781 -0.28125,-0.0469 -1.17187,-0.32812 -0.89063,-0.29688 -1.125,-0.29688 -0.21875,0 -0.35938,0.14063 -0.125,0.14062 -0.1875,0.5625 h -0.34375 v -4.23438 h 0.34375 q 0.23438,1.32812 0.625,2 0.40625,0.65625 1.23438,1.09375 0.82812,0.4375 1.8125,0.4375 1.14062,0 1.79687,-0.59375 0.65625,-0.60938 0.65625,-1.4375 0,-0.45313 -0.25,-0.90625 -0.25,-0.46875 -0.78125,-0.875 -0.34375,-0.28125 -1.9375,-1.15625 -1.57812,-0.89063 -2.25,-1.42188 -0.67187,-0.53125 -1.01562,-1.17187 -0.34375,-0.64063 -0.34375,-1.39063 0,-1.34375 1.01562,-2.29687 1.01563,-0.96875 2.59375,-0.96875 0.98438,0 2.09375,0.48437 0.5,0.23438 0.71875,0.23438 0.23438,0 0.375,-0.14063 0.15625,-0.14062 0.25,-0.57812 z m 9.50072,9.46875 q -0.34375,1.65625 -1.32813,2.54688 -0.98437,0.875 -2.17187,0.875 -1.42188,0 -2.48438,-1.18751 -1.04687,-1.1875 -1.04687,-3.21875 0,-1.96875 1.17187,-3.20312 1.17188,-1.23438 2.8125,-1.23438 1.21875,0 2.01563,0.65625 0.79687,0.65625 0.79687,1.34375 0,0.35938 -0.23437,0.57813 -0.21875,0.20312 -0.60938,0.20312 -0.54687,0 -0.8125,-0.34375 -0.15625,-0.1875 -0.21875,-0.71875 -0.0469,-0.54687 -0.35937,-0.82812 -0.32813,-0.28125 -0.89063,-0.28125 -0.90625,0 -1.46875,0.67187 -0.73437,0.90625 -0.73437,2.35938 0,1.5 0.73437,2.64062 0.73438,1.14063 1.98438,1.14063 0.89062,0 1.60937,-0.60938 0.5,-0.42187 0.96875,-1.51562 z m 3.6399,-9.78125 v 6.10937 q 1.01563,-1.125 1.60938,-1.4375 0.59375,-0.3125 1.1875,-0.3125 0.70312,0 1.20312,0.39063 0.51563,0.39062 0.76563,1.23437 0.17187,0.57813 0.17187,2.125 v 2.95313 q 0,0.79687 0.125,1.09375 0.0937,0.21875 0.3125,0.34375 0.21875,0.125 0.79688,0.125 v 0.32813 h -4.09375 v -0.32813 h 0.1875 q 0.59375,0 0.8125,-0.17187 0.23437,-0.1875 0.32812,-0.53126 0.0156,-0.14062 0.0156,-0.85937 v -2.95313 q 0,-1.35937 -0.14063,-1.78125 -0.14062,-0.4375 -0.45312,-0.64062 -0.29688,-0.21875 -0.73438,-0.21875 -0.45312,0 -0.9375,0.23437 -0.48437,0.23438 -1.15625,0.95313 v 4.40625 q 0,0.85937 0.0937,1.07812 0.0937,0.20313 0.35938,0.34376 0.26562,0.14062 0.89062,0.14062 v 0.32813 h -4.125 v -0.32813 q 0.54688,0 0.875,-0.17187 0.17188,-0.0937 0.28125,-0.34376 0.10938,-0.26562 0.10938,-1.04687 v -7.54688 q 0,-1.4375 -0.0625,-1.76562 -0.0625,-0.32813 -0.20313,-0.4375 -0.14062,-0.125 -0.39062,-0.125 -0.1875,0 -0.60938,0.15625 l -0.125,-0.32813 2.48438,-1.01562 z m 8.28125,7.75 q 0,1.85937 0.90625,2.92187 0.90625,1.04688 2.14063,1.04688 0.8125,0 1.42187,-0.4375 0.60938,-0.45313 1.01563,-1.54688 l 0.28125,0.17188 q -0.1875,1.25 -1.10938,2.28125 -0.92187,1.01563 -2.29687,1.01563 -1.51563,0 -2.59375,-1.17188 -1.0625,-1.17188 -1.0625,-3.14063 0,-2.14062 1.09375,-3.32812 1.10937,-1.20313 2.76562,-1.20313 1.40625,0 2.29688,0.92188 0.90625,0.92187 0.90625,2.46875 z m 0,-0.53125 h 3.85938 q -0.0469,-0.79688 -0.1875,-1.125 -0.23438,-0.51563 -0.6875,-0.79688 -0.4375,-0.29687 -0.9375,-0.29687 -0.75,0 -1.34375,0.59375 -0.59375,0.57812 -0.70313,1.625 z m 12.78054,4.79687 q -0.625,0.64063 -1.20313,0.92188 -0.57812,0.26563 -1.25,0.26563 -1.375,0 -2.39062,-1.14063 -1.01563,-1.14063 -1.01563,-2.9375 0,-1.79688 1.125,-3.28125 1.125,-1.48438 2.90625,-1.48438 1.09375,0 1.82813,0.70313 v -1.54688 q 0,-1.4375 -0.0781,-1.76562 -0.0625,-0.32813 -0.21875,-0.4375 -0.14062,-0.125 -0.35937,-0.125 -0.23438,0 -0.625,0.15625 l -0.125,-0.32813 2.48437,-1.01562 h 0.42188 v 9.64062 q 0,1.46875 0.0625,1.79688 0.0625,0.32812 0.21875,0.45312 0.15625,0.125 0.35937,0.125 0.23438,0 0.65625,-0.15625 l 0.0937,0.3125 -2.48437,1.03126 h -0.40625 z m 0,-0.64062 v -4.29688 q -0.0625,-0.625 -0.34375,-1.125 -0.26563,-0.51562 -0.71875,-0.76562 -0.45313,-0.26563 -0.875,-0.26563 -0.79688,0 -1.4375,0.71875 -0.82813,0.9375 -0.82813,2.76563 0,1.84375 0.79688,2.82812 0.8125,0.96875 1.79687,0.96875 0.82813,0 1.60938,-0.82812 z m 10.73437,-6.76563 v 5.0625 q 0,1.4375 0.0625,1.76563 0.0781,0.32812 0.21875,0.45312 0.15625,0.125 0.35938,0.125 0.28125,0 0.64062,-0.15625 l 0.125,0.3125 -2.48437,1.03126 h -0.42188 v -1.76563 q -1.07812,1.17188 -1.64062,1.46875 -0.5625,0.29688 -1.1875,0.29688 -0.70313,0 -1.21875,-0.40625 -0.51563,-0.40625 -0.71875,-1.03126 -0.1875,-0.64062 -0.1875,-1.8125 v -3.71875 q 0,-0.59375 -0.14063,-0.8125 -0.125,-0.23437 -0.375,-0.35937 -0.25,-0.125 -0.90625,-0.10938 v -0.34375 h 2.92188 v 5.57813 q 0,1.17187 0.40625,1.54687 0.40625,0.35938 0.98437,0.35938 0.39063,0 0.89063,-0.25 0.5,-0.25 1.17187,-0.9375 v -4.73438 q 0,-0.70312 -0.26562,-0.95312 -0.25,-0.25 -1.0625,-0.26563 v -0.34375 z m 4.89063,-4.60937 v 11.0625 q 0,0.78125 0.10937,1.04687 0.125,0.25001 0.35938,0.39063 0.23437,0.125 0.875,0.125 v 0.32813 h -4.09375 v -0.32813 q 0.57812,0 0.78125,-0.10937 0.21875,-0.125 0.32812,-0.39063 0.125,-0.28125 0.125,-1.0625 v -7.57813 q 0,-1.40625 -0.0625,-1.73437 -0.0625,-0.32813 -0.20312,-0.4375 -0.14063,-0.125 -0.35938,-0.125 -0.23437,0 -0.60937,0.15625 l -0.14063,-0.32813 2.48438,-1.01562 z m 3.71455,7.75 q 0,1.85937 0.90625,2.92187 0.90625,1.04688 2.14063,1.04688 0.8125,0 1.42187,-0.4375 0.60938,-0.45313 1.01563,-1.54688 l 0.28125,0.17188 q -0.1875,1.25 -1.10938,2.28125 -0.92187,1.01563 -2.29687,1.01563 -1.51563,0 -2.59375,-1.17188 -1.0625,-1.17188 -1.0625,-3.14063 0,-2.14062 1.09375,-3.32812 1.10937,-1.20313 2.76562,-1.20313 1.40625,0 2.29688,0.92188 0.90625,0.92187 0.90625,2.46875 z m 0,-0.53125 h 3.85938 q -0.0469,-0.79688 -0.1875,-1.125 -0.23438,-0.51563 -0.6875,-0.79688 -0.4375,-0.29687 -0.9375,-0.29687 -0.75,0 -1.34375,0.59375 -0.59375,0.57812 -0.70313,1.625 z m 9.32741,-2.85938 v 1.875 q 1.04687,-1.875 2.14062,-1.875 0.5,0 0.82813,0.3125 0.32812,0.29688 0.32812,0.70313 0,0.35937 -0.23437,0.60937 -0.23438,0.23438 -0.5625,0.23438 -0.32813,0 -0.71875,-0.3125 -0.39063,-0.3125 -0.57813,-0.3125 -0.17187,0 -0.35937,0.1875 -0.40625,0.35937 -0.84375,1.21875 v 4 q 0,0.70312 0.17187,1.04687 0.10938,0.25001 0.40625,0.42188 0.3125,0.15625 0.875,0.15625 v 0.32813 h -4.28125 v -0.32813 q 0.64063,0 0.95313,-0.20312 0.23437,-0.14063 0.3125,-0.46876 0.0469,-0.14062 0.0469,-0.875 v -3.23437 q 0,-1.45313 -0.0625,-1.73438 -0.0469,-0.28125 -0.21875,-0.40625 -0.15625,-0.125 -0.39062,-0.125 -0.28125,0 -0.64063,0.14063 l -0.0781,-0.32813 2.51562,-1.03125 z"
       fill-rule="nonzero"
       id="path11" />
    <path
       fill="#eeeeee"
       d="m 83.35171,213.0943 h 196.6614 v 51.1181 H 83.35171 Z"
       fill-rule="evenodd"
       id="path13" />
    <path
       stroke="#595959"
       stroke-width="1"
       stroke-linejoin="round"
       stroke-linecap="butt"
       d="m 83.35171,213.0943 h 196.6614 v 51.1181 H 83.35171 Z"
       fill-rule="evenodd"
       id="path15" />
    <path
       fill="#000000"
       d="m 141.58974,245.57335 v -0.34375 h 0.46875 q 0.78125,0 1.10937,-0.5 0.20313,-0.29688 0.20313,-1.34375 v -7.98438 q 0,-1.15625 -0.25,-1.4375 -0.35938,-0.40625 -1.0625,-0.40625 h -0.46875 v -0.34375 h 5.03125 q 2.76562,0 4.20312,0.64063 1.45313,0.625 2.32813,2.09375 0.89062,1.46875 0.89062,3.39062 0,2.57813 -1.5625,4.29688 -1.76562,1.9375 -5.35937,1.9375 z m 3.53125,-0.89063 q 1.15625,0.25 1.9375,0.25 2.10937,0 3.5,-1.48437 1.40625,-1.48438 1.40625,-4.03125 0,-2.54688 -1.40625,-4.01563 -1.39063,-1.48437 -3.5625,-1.48437 -0.82813,0 -1.875,0.26562 z m 12.33232,-12.0625 q 0.39063,0 0.65625,0.26563 0.26563,0.26562 0.26563,0.65625 0,0.375 -0.26563,0.65625 -0.26562,0.26562 -0.65625,0.26562 -0.375,0 -0.65625,-0.26562 -0.26562,-0.28125 -0.26562,-0.65625 0,-0.39063 0.26562,-0.65625 0.26563,-0.26563 0.65625,-0.26563 z m 0.76563,4.35938 v 6.70312 q 0,0.78125 0.10937,1.04688 0.10938,0.26562 0.32813,0.39062 0.23437,0.125 0.82812,0.125 v 0.32813 h -4.0625 v -0.32813 q 0.60938,0 0.8125,-0.10937 0.21875,-0.125 0.34375,-0.39063 0.125,-0.28125 0.125,-1.0625 v -3.20312 q 0,-1.35938 -0.0781,-1.76563 -0.0781,-0.29687 -0.21875,-0.40625 -0.125,-0.10937 -0.35938,-0.10937 -0.26562,0 -0.625,0.14062 l -0.125,-0.32812 2.51563,-1.03125 z m 7.6833,0 v 2.84375 h -0.29688 q -0.34375,-1.34375 -0.89062,-1.8125 -0.53125,-0.48438 -1.375,-0.48438 -0.64063,0 -1.03125,0.34375 -0.39063,0.32813 -0.39063,0.73438 0,0.51562 0.29688,0.875 0.28125,0.375 1.14062,0.79687 l 1.32813,0.64063 q 1.85937,0.90625 1.85937,2.375 0,1.14062 -0.875,1.84375 -0.85937,0.6875 -1.92187,0.6875 -0.76563,0 -1.75,-0.26563 -0.29688,-0.0937 -0.48438,-0.0937 -0.21875,0 -0.32812,0.23438 h -0.29688 v -2.96875 h 0.29688 q 0.25,1.26562 0.96875,1.92187 0.71875,0.64063 1.60937,0.64063 0.64063,0 1.03125,-0.35938 0.39063,-0.375 0.39063,-0.90625 0,-0.625 -0.4375,-1.04687 -0.4375,-0.4375 -1.76563,-1.09375 -1.3125,-0.65625 -1.71875,-1.17188 -0.42187,-0.53125 -0.42187,-1.3125 0,-1.03125 0.70312,-1.71875 0.71875,-0.70312 1.82813,-0.70312 0.5,0 1.20312,0.21875 0.45313,0.125 0.60938,0.125 0.15625,0 0.23437,-0.0625 0.0781,-0.0625 0.1875,-0.28125 z m 1.27589,1.07812 2.5625,-1.03125 h 0.34375 v 1.9375 q 0.65625,-1.09375 1.29688,-1.53125 0.65625,-0.45312 1.375,-0.45312 1.26562,0 2.09375,0.98437 1.03125,1.20313 1.03125,3.14063 0,2.15625 -1.23438,3.5625 -1.01562,1.15625 -2.57812,1.15625 -0.67188,0 -1.15625,-0.1875 -0.35938,-0.14063 -0.82813,-0.54688 v 2.54688 q 0,0.85937 0.10938,1.07812 0.10937,0.23438 0.35937,0.375 0.26563,0.14063 0.95313,0.14063 v 0.32812 h -4.375 v -0.32812 h 0.21875 q 0.51562,0 0.85937,-0.1875 0.17188,-0.10938 0.26563,-0.32813 0.10937,-0.21875 0.10937,-1.14062 v -7.89063 q 0,-0.8125 -0.0781,-1.01562 -0.0781,-0.21875 -0.23438,-0.32813 -0.15625,-0.10937 -0.4375,-0.10937 -0.21875,0 -0.54687,0.125 z m 2.90625,1.45313 v 3.10937 q 0,1.01563 0.0937,1.32813 0.125,0.53125 0.60938,0.9375 0.5,0.39062 1.26562,0.39062 0.90625,0 1.46875,-0.70312 0.73438,-0.9375 0.73438,-2.60938 0,-1.92187 -0.82813,-2.95312 -0.59375,-0.70313 -1.39062,-0.70313 -0.4375,0 -0.85938,0.21875 -0.32812,0.15625 -1.09375,0.98438 z m 11.75,4.85937 q -1.28125,1 -1.60937,1.15625 -0.5,0.21875 -1.04688,0.21875 -0.875,0 -1.4375,-0.59375 -0.54687,-0.59375 -0.54687,-1.5625 0,-0.60937 0.26562,-1.04687 0.375,-0.625 1.29688,-1.17188 0.92187,-0.54687 3.07812,-1.32812 v -0.32813 q 0,-1.25 -0.40625,-1.70312 -0.39062,-0.46875 -1.14062,-0.46875 -0.57813,0 -0.92188,0.3125 -0.34375,0.29687 -0.34375,0.70312 l 0.0156,0.53125 q 0,0.42188 -0.21875,0.65625 -0.20313,0.21875 -0.54688,0.21875 -0.34375,0 -0.5625,-0.23437 -0.20312,-0.23438 -0.20312,-0.65625 0,-0.78125 0.79687,-1.4375 0.8125,-0.65625 2.25,-0.65625 1.10938,0 1.82813,0.375 0.53125,0.28125 0.79687,0.89062 0.15625,0.39063 0.15625,1.59375 v 2.84375 q 0,1.1875 0.0469,1.45313 0.0469,0.26562 0.14062,0.35937 0.10938,0.0937 0.25,0.0937 0.14063,0 0.25,-0.0625 0.20313,-0.125 0.75,-0.67187 v 0.51562 q -1.03125,1.35938 -1.95312,1.35938 -0.45313,0 -0.71875,-0.29688 -0.26563,-0.3125 -0.26563,-1.0625 z m 0,-0.59375 v -3.17187 q -1.375,0.54687 -1.78125,0.76562 -0.71875,0.40625 -1.03125,0.84375 -0.29687,0.4375 -0.29687,0.95313 0,0.65625 0.39062,1.09375 0.39063,0.42187 0.89063,0.42187 0.70312,0 1.82812,-0.90625 z m 5.96804,-9.29687 v 2.75 h 1.95312 v 0.64062 h -1.95312 v 5.40625 q 0,0.8125 0.23437,1.09375 0.23438,0.28125 0.59375,0.28125 0.3125,0 0.59375,-0.1875 0.28125,-0.1875 0.4375,-0.54687 h 0.34375 q -0.3125,0.89062 -0.90625,1.34375 -0.57812,0.45312 -1.1875,0.45312 -0.42187,0 -0.82812,-0.23437 -0.39063,-0.23438 -0.59375,-0.65625 -0.1875,-0.4375 -0.1875,-1.34375 v -5.60938 h -1.3125 v -0.29687 q 0.5,-0.20313 1.01562,-0.6875 0.53125,-0.48438 0.9375,-1.125 0.20313,-0.35938 0.57813,-1.28125 z m 9.85518,7.92187 q -0.34375,1.65625 -1.32813,2.54688 -0.98437,0.875 -2.17187,0.875 -1.42188,0 -2.48438,-1.1875 -1.04687,-1.1875 -1.04687,-3.21875 0,-1.96875 1.17187,-3.20313 1.17188,-1.23437 2.8125,-1.23437 1.21875,0 2.01563,0.65625 0.79687,0.65625 0.79687,1.34375 0,0.35937 -0.23437,0.57812 -0.21875,0.20313 -0.60938,0.20313 -0.54687,0 -0.8125,-0.34375 -0.15625,-0.1875 -0.21875,-0.71875 -0.0469,-0.54688 -0.35937,-0.82813 -0.32813,-0.28125 -0.89063,-0.28125 -0.90625,0 -1.46875,0.67188 -0.73437,0.90625 -0.73437,2.35937 0,1.5 0.73437,2.64063 0.73438,1.14062 1.98438,1.14062 0.89062,0 1.60937,-0.60937 0.5,-0.42188 0.96875,-1.51563 z m 3.6399,-9.78125 v 6.10938 q 1.01563,-1.125 1.60938,-1.4375 0.59375,-0.3125 1.1875,-0.3125 0.70312,0 1.20312,0.39062 0.51563,0.39063 0.76563,1.23438 0.17187,0.57812 0.17187,2.125 v 2.95312 q 0,0.79688 0.125,1.09375 0.0937,0.21875 0.3125,0.34375 0.21875,0.125 0.79688,0.125 v 0.32813 h -4.09375 v -0.32813 h 0.1875 q 0.59375,0 0.8125,-0.17187 0.23437,-0.1875 0.32812,-0.53125 0.0156,-0.14063 0.0156,-0.85938 v -2.95312 q 0,-1.35938 -0.14063,-1.78125 -0.14062,-0.4375 -0.45312,-0.64063 -0.29688,-0.21875 -0.73438,-0.21875 -0.45312,0 -0.9375,0.23438 -0.48437,0.23437 -1.15625,0.95312 v 4.40625 q 0,0.85938 0.0937,1.07813 0.0937,0.20312 0.35938,0.34375 0.26562,0.14062 0.89062,0.14062 v 0.32813 h -4.125 v -0.32813 q 0.54688,0 0.875,-0.17187 0.17188,-0.0937 0.28125,-0.34375 0.10938,-0.26563 0.10938,-1.04688 v -7.54687 q 0,-1.4375 -0.0625,-1.76563 -0.0625,-0.32812 -0.20313,-0.4375 -0.14062,-0.125 -0.39062,-0.125 -0.1875,0 -0.60938,0.15625 l -0.125,-0.32812 2.48438,-1.01563 z m 8.28125,7.75 q 0,1.85938 0.90625,2.92188 0.90625,1.04687 2.14063,1.04687 0.8125,0 1.42187,-0.4375 0.60938,-0.45312 1.01563,-1.54687 l 0.28125,0.17187 q -0.1875,1.25 -1.10938,2.28125 -0.92187,1.01563 -2.29687,1.01563 -1.51563,0 -2.59375,-1.17188 -1.0625,-1.17187 -1.0625,-3.14062 0,-2.14063 1.09375,-3.32813 1.10937,-1.20312 2.76562,-1.20312 1.40625,0 2.29688,0.92187 0.90625,0.92188 0.90625,2.46875 z m 0,-0.53125 h 3.85938 q -0.0469,-0.79687 -0.1875,-1.125 -0.23438,-0.51562 -0.6875,-0.79687 -0.4375,-0.29688 -0.9375,-0.29688 -0.75,0 -1.34375,0.59375 -0.59375,0.57813 -0.70313,1.625 z m 9.32741,-2.85937 v 1.875 q 1.04688,-1.875 2.14063,-1.875 0.5,0 0.82812,0.3125 0.32813,0.29687 0.32813,0.70312 0,0.35938 -0.23438,0.60938 -0.23437,0.23437 -0.5625,0.23437 -0.32812,0 -0.71875,-0.3125 -0.39062,-0.3125 -0.57812,-0.3125 -0.17188,0 -0.35938,0.1875 -0.40625,0.35938 -0.84375,1.21875 v 4 q 0,0.70313 0.17188,1.04688 0.10937,0.25 0.40625,0.42187 0.3125,0.15625 0.875,0.15625 v 0.32813 h -4.28125 v -0.32813 q 0.64062,0 0.95312,-0.20312 0.23438,-0.14063 0.3125,-0.46875 0.0469,-0.14063 0.0469,-0.875 v -3.23438 q 0,-1.45312 -0.0625,-1.73437 -0.0469,-0.28125 -0.21875,-0.40625 -0.15625,-0.125 -0.39063,-0.125 -0.28125,0 -0.64062,0.14062 l -0.0781,-0.32812 2.51563,-1.03125 z"
       fill-rule="nonzero"
       id="path17" />
    <path
       fill="#eeeeee"
       d="m 83.35171,329.41183 h 196.6614 v 51.1181 H 83.35171 Z"
       fill-rule="evenodd"
       id="path19" />
    <path
       stroke="#595959"
       stroke-width="1"
       stroke-linejoin="round"
       stroke-linecap="butt"
       d="m 83.35171,329.41183 h 196.6614 v 51.1181 H 83.35171 Z"
       fill-rule="evenodd"
       id="path21" />
    <path
       fill="#000000"
       d="m 140.73999,357.75027 h -4.78125 l -0.82813,1.95312 q -0.3125,0.71875 -0.3125,1.07813 0,0.28125 0.26563,0.5 0.26562,0.20312 1.15625,0.26562 v 0.34375 h -3.89063 v -0.34375 q 0.78125,-0.125 1,-0.34375 0.46875,-0.4375 1.03125,-1.78125 l 4.34375,-10.17187 h 0.32813 l 4.29687,10.28125 q 0.51563,1.23437 0.9375,1.60937 0.42188,0.375 1.1875,0.40625 v 0.34375 h -4.875 v -0.34375 q 0.73438,-0.0312 0.98438,-0.23437 0.26562,-0.21875 0.26562,-0.51563 0,-0.40625 -0.35937,-1.26562 z m -0.25,-0.67188 -2.09375,-4.98437 -2.15625,4.98437 z m 8.0042,1.76563 q -0.76563,-0.375 -1.17188,-1.03125 -0.40625,-0.67188 -0.40625,-1.48438 0,-1.25 0.92188,-2.14062 0.9375,-0.89063 2.40625,-0.89063 1.1875,0 2.0625,0.59375 h 1.76562 q 0.39063,0 0.45313,0.0156 0.0625,0.0156 0.0937,0.0781 0.0469,0.0781 0.0469,0.29688 0,0.23437 -0.0312,0.32812 -0.0312,0.0469 -0.10937,0.0781 -0.0625,0.0156 -0.45313,0.0156 h -1.07812 q 0.5,0.65625 0.5,1.67188 0,1.17187 -0.89063,2 -0.89062,0.82812 -2.39062,0.82812 -0.625,0 -1.26563,-0.1875 -0.40625,0.35938 -0.54687,0.625 -0.14063,0.25 -0.14063,0.42188 0,0.15625 0.14063,0.3125 0.15625,0.14062 0.59375,0.20312 0.26562,0.0312 1.28125,0.0625 1.875,0.0469 2.42187,0.125 0.85938,0.125 1.35938,0.64063 0.5,0.5 0.5,1.25 0,1.03125 -0.95313,1.9375 -1.42187,1.32812 -3.71875,1.32812 -1.75,0 -2.96875,-0.79687 -0.67187,-0.45313 -0.67187,-0.95313 0,-0.21875 0.0937,-0.4375 0.15625,-0.32812 0.64062,-0.9375 0.0625,-0.0781 0.92188,-0.98437 -0.46875,-0.28125 -0.67188,-0.5 -0.1875,-0.21875 -0.1875,-0.5 0,-0.32813 0.25,-0.75 0.26563,-0.4375 1.20313,-1.21875 z m 1.59375,-5.10938 q -0.6875,0 -1.14063,0.54688 -0.45312,0.53125 -0.45312,1.64062 0,1.4375 0.625,2.23438 0.46875,0.59375 1.20312,0.59375 0.6875,0 1.125,-0.51563 0.45313,-0.51562 0.45313,-1.625 0,-1.45312 -0.625,-2.26562 -0.46875,-0.60938 -1.1875,-0.60938 z m -1.6875,8.15625 q -0.42188,0.46875 -0.64063,0.85938 -0.21875,0.40625 -0.21875,0.75 0,0.4375 0.53125,0.76562 0.90625,0.5625 2.625,0.5625 1.64063,0 2.42188,-0.57812 0.78125,-0.57813 0.78125,-1.23438 0,-0.48437 -0.46875,-0.67187 -0.46875,-0.20313 -1.875,-0.25 -2.04688,-0.0469 -3.15625,-0.20313 z m 8.59375,-5.20312 q 0,1.85937 0.90625,2.92187 0.90625,1.04688 2.14062,1.04688 0.8125,0 1.42188,-0.4375 0.60937,-0.45313 1.01562,-1.54688 l 0.28125,0.17188 q -0.1875,1.25 -1.10937,2.28125 -0.92188,1.01562 -2.29688,1.01562 -1.51562,0 -2.59375,-1.17187 -1.0625,-1.17188 -1.0625,-3.14063 0,-2.14062 1.09375,-3.32812 1.10938,-1.20313 2.76563,-1.20313 1.40625,0 2.29687,0.92188 0.90625,0.92187 0.90625,2.46875 z m 0,-0.53125 h 3.85937 q -0.0469,-0.79688 -0.1875,-1.125 -0.23437,-0.51563 -0.6875,-0.79688 -0.4375,-0.29687 -0.9375,-0.29687 -0.75,0 -1.34375,0.59375 -0.59375,0.57812 -0.70312,1.625 z m 9.31178,-1.09375 q 1.46875,-1.76563 2.79687,-1.76563 0.6875,0 1.17188,0.34375 0.5,0.34375 0.78125,1.125 0.20312,0.54688 0.20312,1.67188 v 3.5625 q 0,0.79687 0.125,1.07812 0.10938,0.23438 0.32813,0.35938 0.21875,0.125 0.82812,0.125 v 0.32812 h -4.125 v -0.32812 h 0.17188 q 0.57812,0 0.8125,-0.17188 0.23437,-0.1875 0.32812,-0.53125 0.0312,-0.14062 0.0312,-0.85937 v -3.40625 q 0,-1.14063 -0.29687,-1.65625 -0.29688,-0.51563 -1,-0.51563 -1.07813,0 -2.15625,1.1875 v 4.39063 q 0,0.85937 0.0937,1.04687 0.14062,0.26563 0.35937,0.39063 0.21875,0.125 0.90625,0.125 v 0.32812 h -4.125 v -0.32812 h 0.17188 q 0.64062,0 0.85937,-0.3125 0.23438,-0.32813 0.23438,-1.25 v -3.09375 q 0,-1.5 -0.0781,-1.82813 -0.0625,-0.32812 -0.20312,-0.4375 -0.14063,-0.125 -0.375,-0.125 -0.26563,0 -0.60938,0.14063 l -0.14062,-0.32813 2.51562,-1.03125 h 0.39063 z m 9.3125,-4.26563 v 2.75 h 1.95312 v 0.64063 h -1.95312 v 5.40625 q 0,0.8125 0.23437,1.09375 0.23438,0.28125 0.59375,0.28125 0.3125,0 0.59375,-0.1875 0.28125,-0.1875 0.4375,-0.54688 h 0.34375 q -0.3125,0.89063 -0.90625,1.34375 -0.57812,0.45313 -1.1875,0.45313 -0.42187,0 -0.82812,-0.23438 -0.39063,-0.23437 -0.59375,-0.65625 -0.1875,-0.4375 -0.1875,-1.34375 v -5.60937 h -1.3125 v -0.29688 q 0.5,-0.20312 1.01562,-0.6875 0.53125,-0.48437 0.9375,-1.125 0.20313,-0.35937 0.57813,-1.28125 z m 7.15987,11.09375 v -0.34375 h 0.46875 q 0.78125,0 1.10937,-0.5 0.20313,-0.29687 0.20313,-1.34375 v -7.98437 q 0,-1.15625 -0.25,-1.4375 -0.35938,-0.40625 -1.0625,-0.40625 h -0.46875 v -0.34375 h 5.03125 q 2.76562,0 4.20312,0.64062 1.45313,0.625 2.32813,2.09375 0.89062,1.46875 0.89062,3.39063 0,2.57812 -1.5625,4.29687 -1.76562,1.9375 -5.35937,1.9375 z m 3.53125,-0.89062 q 1.15625,0.25 1.9375,0.25 2.10937,0 3.5,-1.48438 1.40625,-1.48437 1.40625,-4.03125 0,-2.54687 -1.40625,-4.01562 -1.39063,-1.48438 -3.5625,-1.48438 -0.82813,0 -1.875,0.26563 z m 12.66044,-7.70313 v 1.875 q 1.04688,-1.875 2.14063,-1.875 0.5,0 0.82812,0.3125 0.32813,0.29688 0.32813,0.70313 0,0.35937 -0.23438,0.60937 -0.23437,0.23438 -0.5625,0.23438 -0.32812,0 -0.71875,-0.3125 -0.39062,-0.3125 -0.57812,-0.3125 -0.17188,0 -0.35938,0.1875 -0.40625,0.35937 -0.84375,1.21875 v 4 q 0,0.70312 0.17188,1.04687 0.10937,0.25 0.40625,0.42188 0.3125,0.15625 0.875,0.15625 v 0.32812 h -4.28125 v -0.32812 q 0.64062,0 0.95312,-0.20313 0.23438,-0.14062 0.3125,-0.46875 0.0469,-0.14062 0.0469,-0.875 v -3.23437 q 0,-1.45313 -0.0625,-1.73438 -0.0469,-0.28125 -0.21875,-0.40625 -0.15625,-0.125 -0.39063,-0.125 -0.28125,0 -0.64062,0.14063 l -0.0781,-0.32813 2.51563,-1.03125 z m 5.88455,-4.35937 q 0.39063,0 0.65625,0.26562 0.26563,0.26563 0.26563,0.65625 0,0.375 -0.26563,0.65625 -0.26562,0.26563 -0.65625,0.26563 -0.375,0 -0.65625,-0.26563 -0.26562,-0.28125 -0.26562,-0.65625 0,-0.39062 0.26562,-0.65625 0.26563,-0.26562 0.65625,-0.26562 z m 0.76563,4.35937 v 6.70313 q 0,0.78125 0.10937,1.04687 0.10938,0.26563 0.32813,0.39063 0.23437,0.125 0.82812,0.125 v 0.32812 h -4.0625 v -0.32812 q 0.60938,0 0.8125,-0.10938 0.21875,-0.125 0.34375,-0.39062 0.125,-0.28125 0.125,-1.0625 v -3.20313 q 0,-1.35937 -0.0781,-1.76562 -0.0781,-0.29688 -0.21875,-0.40625 -0.125,-0.10938 -0.35938,-0.10938 -0.26562,0 -0.625,0.14063 l -0.125,-0.32813 2.51563,-1.03125 z m 1.8708,0.25 h 3.92188 v 0.34375 h -0.25 q -0.35938,0 -0.54688,0.17188 -0.1875,0.17187 -0.1875,0.45312 0,0.32813 0.1875,0.76563 l 1.95313,4.60937 1.9375,-4.78125 q 0.21875,-0.51562 0.21875,-0.78125 0,-0.125 -0.0781,-0.20312 -0.0937,-0.14063 -0.25,-0.1875 -0.15625,-0.0469 -0.625,-0.0469 v -0.34375 h 2.71875 v 0.34375 q -0.46875,0.0312 -0.65625,0.1875 -0.3125,0.26563 -0.57812,0.90625 l -2.95313,7.15625 h -0.375 l -2.98437,-7.03125 q -0.20313,-0.5 -0.39063,-0.70312 -0.17187,-0.21875 -0.45312,-0.375 -0.15625,-0.0781 -0.60938,-0.14063 z m 11.15625,3.14063 q 0,1.85937 0.90625,2.92187 0.90625,1.04688 2.14063,1.04688 0.8125,0 1.42187,-0.4375 0.60938,-0.45313 1.01563,-1.54688 l 0.28125,0.17188 q -0.1875,1.25 -1.10938,2.28125 -0.92187,1.01562 -2.29687,1.01562 -1.51563,0 -2.59375,-1.17187 -1.0625,-1.17188 -1.0625,-3.14063 0,-2.14062 1.09375,-3.32812 1.10937,-1.20313 2.76562,-1.20313 1.40625,0 2.29688,0.92188 0.90625,0.92187 0.90625,2.46875 z m 0,-0.53125 h 3.85938 q -0.0469,-0.79688 -0.1875,-1.125 -0.23438,-0.51563 -0.6875,-0.79688 -0.4375,-0.29687 -0.9375,-0.29687 -0.75,0 -1.34375,0.59375 -0.59375,0.57812 -0.70313,1.625 z m 9.3274,-2.85938 v 1.875 q 1.04687,-1.875 2.14062,-1.875 0.5,0 0.82813,0.3125 0.32812,0.29688 0.32812,0.70313 0,0.35937 -0.23437,0.60937 -0.23438,0.23438 -0.5625,0.23438 -0.32813,0 -0.71875,-0.3125 -0.39063,-0.3125 -0.57813,-0.3125 -0.17187,0 -0.35937,0.1875 -0.40625,0.35937 -0.84375,1.21875 v 4 q 0,0.70312 0.17187,1.04687 0.10938,0.25 0.40625,0.42188 0.3125,0.15625 0.875,0.15625 v 0.32812 h -4.28125 v -0.32812 q 0.64063,0 0.95313,-0.20313 0.23437,-0.14062 0.3125,-0.46875 0.0469,-0.14062 0.0469,-0.875 v -3.23437 q 0,-1.45313 -0.0625,-1.73438 -0.0469,-0.28125 -0.21875,-0.40625 -0.15625,-0.125 -0.39062,-0.125 -0.28125,0 -0.64063,0.14063 l -0.0781,-0.32813 2.51562,-1.03125 z"
       fill-rule="nonzero"
       id="path23" />
    <path
       fill="#000000"
       fill-opacity="0"
       d="M 91.461945,7.7211423 H 271.90289 V 49.736889 H 91.461945 Z"
       fill-rule="evenodd"
       id="path25" />
    <path
       stroke="#000000"
       stroke-width="1"
       stroke-linejoin="round"
       stroke-linecap="butt"
       d="M 91.461945,7.7211423 H 271.90289 V 49.736889 H 91.461945 Z"
       fill-rule="evenodd"
       id="path27" />
    <path
       fill="#000000"
       d="m 121.89928,22.281765 0.14063,2.90625 h -0.35938 q -0.0937,-0.765625 -0.26562,-1.09375 -0.28125,-0.53125 -0.75,-0.78125 -0.46875,-0.25 -1.23438,-0.25 h -1.73437 v 9.4375 q 0,1.140625 0.23437,1.421875 0.34375,0.375 1.0625,0.375 h 0.4375 v 0.34375 h -5.23437 v -0.34375 h 0.4375 q 0.78125,0 1.10937,-0.46875 0.20313,-0.296875 0.20313,-1.328125 v -9.4375 h -1.48438 q -0.875,0 -1.23437,0.125 -0.46875,0.171875 -0.8125,0.671875 -0.34375,0.484375 -0.40625,1.328125 h -0.34375 l 0.14062,-2.90625 z m 1.28009,7.15625 q 0,1.859375 0.90625,2.921875 0.90625,1.046875 2.14063,1.046875 0.8125,0 1.42187,-0.4375 0.60938,-0.453125 1.01563,-1.546875 l 0.28125,0.171875 q -0.1875,1.25 -1.10938,2.28125 -0.92187,1.015625 -2.29687,1.015625 -1.51563,0 -2.59375,-1.171875 -1.0625,-1.171875 -1.0625,-3.140625 0,-2.140625 1.09375,-3.328125 1.10937,-1.203125 2.76562,-1.203125 1.40625,0 2.29688,0.921875 0.90625,0.921875 0.90625,2.46875 z m 0,-0.53125 h 3.85938 q -0.0469,-0.796875 -0.1875,-1.125 -0.23438,-0.515625 -0.6875,-0.796875 -0.4375,-0.296875 -0.9375,-0.296875 -0.75,0 -1.34375,0.59375 -0.59375,0.578125 -0.70313,1.625 z m 9.35866,-1.078125 q 0.90625,-0.90625 1.07812,-1.046875 0.40625,-0.34375 0.875,-0.53125 0.48438,-0.203125 0.9375,-0.203125 0.78125,0 1.34375,0.46875 0.57813,0.453125 0.76563,1.3125 0.9375,-1.09375 1.57812,-1.4375 0.65625,-0.34375 1.34375,-0.34375 0.65625,0 1.17188,0.34375 0.51562,0.34375 0.8125,1.125 0.20312,0.515625 0.20312,1.65625 v 3.578125 q 0,0.78125 0.125,1.078125 0.0781,0.203125 0.32813,0.34375 0.25,0.140625 0.79687,0.140625 v 0.328125 h -4.10937 v -0.328125 h 0.17187 q 0.53125,0 0.84375,-0.203125 0.20313,-0.15625 0.29688,-0.46875 0.0312,-0.15625 0.0312,-0.890625 V 29.17239 q 0,-1.03125 -0.23438,-1.453125 -0.35937,-0.578125 -1.14062,-0.578125 -0.48438,0 -0.98438,0.25 -0.48437,0.234375 -1.17187,0.890625 l -0.0156,0.09375 0.0156,0.40625 v 3.96875 q 0,0.859375 0.0937,1.078125 0.0937,0.203125 0.35937,0.34375 0.26563,0.140625 0.90625,0.140625 v 0.328125 h -4.21875 v -0.328125 q 0.6875,0 0.95313,-0.15625 0.26562,-0.171875 0.35937,-0.5 0.0469,-0.15625 0.0469,-0.90625 V 29.17239 q 0,-1.03125 -0.29688,-1.46875 -0.40625,-0.59375 -1.125,-0.59375 -0.5,0 -0.96875,0.265625 -0.76562,0.40625 -1.17187,0.90625 v 4.46875 q 0,0.828125 0.10937,1.078125 0.10938,0.234375 0.32813,0.359375 0.23437,0.125 0.92187,0.125 v 0.328125 h -4.125 v -0.328125 q 0.5625,0 0.79688,-0.125 0.23437,-0.125 0.34375,-0.390625 0.125,-0.265625 0.125,-1.046875 v -3.1875 q 0,-1.375 -0.0937,-1.765625 -0.0625,-0.3125 -0.20313,-0.421875 -0.125,-0.109375 -0.35937,-0.109375 -0.26563,0 -0.60938,0.140625 l -0.14062,-0.328125 2.51562,-1.03125 h 0.39063 z m 11.4333,-0.703125 2.5625,-1.03125 h 0.34375 v 1.9375 q 0.65625,-1.09375 1.29688,-1.53125 0.65625,-0.453125 1.375,-0.453125 1.26562,0 2.09375,0.984375 1.03125,1.203125 1.03125,3.140625 0,2.15625 -1.23438,3.5625 -1.01562,1.15625 -2.57812,1.15625 -0.67188,0 -1.15625,-0.1875 -0.35938,-0.140625 -0.82813,-0.546875 v 2.546875 q 0,0.859375 0.10938,1.078125 0.10937,0.234375 0.35937,0.375 0.26563,0.140625 0.95313,0.140625 v 0.328125 h -4.375 V 38.29739 h 0.21875 q 0.51562,0 0.85937,-0.1875 0.17188,-0.109375 0.26563,-0.328125 0.10937,-0.21875 0.10937,-1.140625 v -7.890625 q 0,-0.8125 -0.0781,-1.015625 -0.0781,-0.21875 -0.23438,-0.328125 -0.15625,-0.109375 -0.4375,-0.109375 -0.21875,0 -0.54687,0.125 z m 2.90625,1.453125 v 3.109375 q 0,1.015625 0.0937,1.328125 0.125,0.53125 0.60938,0.9375 0.5,0.390625 1.26562,0.390625 0.90625,0 1.46875,-0.703125 0.73438,-0.9375 0.73438,-2.609375 0,-1.921875 -0.82813,-2.953125 -0.59375,-0.703125 -1.39062,-0.703125 -0.4375,0 -0.85938,0.21875 -0.32812,0.15625 -1.09375,0.984375 z m 11.10938,-2.53125 q 1.89062,0 3.03125,1.4375 0.98437,1.234375 0.98437,2.828125 0,1.125 -0.54687,2.28125 -0.53125,1.140625 -1.48438,1.71875 -0.9375,0.578125 -2.09375,0.578125 -1.89062,0 -3,-1.5 -0.9375,-1.265625 -0.9375,-2.84375 0,-1.140625 0.5625,-2.265625 0.57813,-1.140625 1.5,-1.6875 0.9375,-0.546875 1.98438,-0.546875 z m -0.29688,0.59375 q -0.46875,0 -0.96875,0.296875 -0.48437,0.28125 -0.78125,1 -0.29687,0.71875 -0.29687,1.84375 0,1.828125 0.71875,3.15625 0.71875,1.3125 1.90625,1.3125 0.89062,0 1.45312,-0.71875 0.57813,-0.734375 0.57813,-2.515625 0,-2.21875 -0.95313,-3.5 -0.64062,-0.875 -1.65625,-0.875 z m 7.98438,-0.59375 v 1.875 q 1.04687,-1.875 2.14062,-1.875 0.5,0 0.82813,0.3125 0.32812,0.296875 0.32812,0.703125 0,0.359375 -0.23437,0.609375 -0.23438,0.234375 -0.5625,0.234375 -0.32813,0 -0.71875,-0.3125 -0.39063,-0.3125 -0.57813,-0.3125 -0.17187,0 -0.35937,0.1875 -0.40625,0.359375 -0.84375,1.21875 v 4 q 0,0.703125 0.17187,1.046875 0.10938,0.25 0.40625,0.421875 0.3125,0.15625 0.875,0.15625 v 0.328125 h -4.28125 v -0.328125 q 0.64063,0 0.95313,-0.203125 0.23437,-0.140625 0.3125,-0.46875 0.0469,-0.140625 0.0469,-0.875 v -3.234375 q 0,-1.453125 -0.0625,-1.734375 -0.0469,-0.28125 -0.21875,-0.40625 -0.15625,-0.125 -0.39062,-0.125 -0.28125,0 -0.64063,0.140625 l -0.0781,-0.328125 2.51562,-1.03125 z m 8.49392,7.390625 q -1.28125,1 -1.60937,1.15625 -0.5,0.21875 -1.04688,0.21875 -0.875,0 -1.4375,-0.59375 -0.54687,-0.59375 -0.54687,-1.5625 0,-0.609375 0.26562,-1.046875 0.375,-0.625 1.29688,-1.171875 0.92187,-0.546875 3.07812,-1.328125 v -0.328125 q 0,-1.25 -0.40625,-1.703125 -0.39062,-0.46875 -1.14062,-0.46875 -0.57813,0 -0.92188,0.3125 -0.34375,0.296875 -0.34375,0.703125 l 0.0156,0.53125 q 0,0.421875 -0.21875,0.65625 -0.20313,0.21875 -0.54688,0.21875 -0.34375,0 -0.5625,-0.234375 -0.20312,-0.234375 -0.20312,-0.65625 0,-0.78125 0.79687,-1.4375 0.8125,-0.65625 2.25,-0.65625 1.10938,0 1.82813,0.375 0.53125,0.28125 0.79687,0.890625 0.15625,0.390625 0.15625,1.59375 v 2.84375 q 0,1.1875 0.0469,1.453125 0.0469,0.265625 0.14062,0.359375 0.10938,0.09375 0.25,0.09375 0.14063,0 0.25,-0.0625 0.20313,-0.125 0.75,-0.671875 v 0.515625 q -1.03125,1.359375 -1.95312,1.359375 -0.45313,0 -0.71875,-0.296875 -0.26563,-0.3125 -0.26563,-1.0625 z m 0,-0.59375 V 29.67239 q -1.375,0.546875 -1.78125,0.765625 -0.71875,0.40625 -1.03125,0.84375 -0.29687,0.4375 -0.29687,0.953125 0,0.65625 0.39062,1.09375 0.39063,0.421875 0.89063,0.421875 0.70312,0 1.82812,-0.90625 z m 6.42116,-11.15625 v 11.0625 q 0,0.78125 0.10938,1.046875 0.125,0.25 0.35937,0.390625 0.23438,0.125 0.875,0.125 v 0.328125 h -4.09375 v -0.328125 q 0.57813,0 0.78125,-0.109375 0.21875,-0.125 0.32813,-0.390625 0.125,-0.28125 0.125,-1.0625 V 25.17239 q 0,-1.40625 -0.0625,-1.734375 -0.0625,-0.328125 -0.20313,-0.4375 -0.14062,-0.125 -0.35937,-0.125 -0.23438,0 -0.60938,0.15625 l -0.14062,-0.328125 2.48437,-1.015625 z m 6.14424,0.59375 h 3.35938 l 7.54687,9.265625 v -7.125 q 0,-1.125 -0.25,-1.421875 -0.34375,-0.375 -1.0625,-0.375 h -0.4375 v -0.34375 h 4.29688 v 0.34375 h -0.4375 q -0.78125,0 -1.10938,0.46875 -0.20312,0.296875 -0.20312,1.328125 v 10.421875 h -0.32813 l -8.14062,-9.953125 v 7.609375 q 0,1.140625 0.25,1.421875 0.34375,0.375 1.0625,0.375 h 0.4375 v 0.34375 h -4.29688 v -0.34375 h 0.42188 q 0.79687,0 1.125,-0.46875 0.20312,-0.296875 0.20312,-1.328125 v -8.59375 q -0.53125,-0.625 -0.8125,-0.828125 -0.28125,-0.203125 -0.8125,-0.375 -0.26562,-0.07813 -0.8125,-0.07813 z m 15.70732,7.15625 q 0,1.859375 0.90625,2.921875 0.90625,1.046875 2.14063,1.046875 0.8125,0 1.42187,-0.4375 0.60938,-0.453125 1.01563,-1.546875 l 0.28125,0.171875 q -0.1875,1.25 -1.10938,2.28125 -0.92187,1.015625 -2.29687,1.015625 -1.51563,0 -2.59375,-1.171875 -1.0625,-1.171875 -1.0625,-3.140625 0,-2.140625 1.09375,-3.328125 1.10937,-1.203125 2.76562,-1.203125 1.40625,0 2.29688,0.921875 0.90625,0.921875 0.90625,2.46875 z m 0,-0.53125 h 3.85938 q -0.0469,-0.796875 -0.1875,-1.125 -0.23438,-0.515625 -0.6875,-0.796875 -0.4375,-0.296875 -0.9375,-0.296875 -0.75,0 -1.34375,0.59375 -0.59375,0.578125 -0.70313,1.625 z m 9.29616,-5.359375 v 2.75 h 1.95313 v 0.640625 h -1.95313 v 5.40625 q 0,0.8125 0.23438,1.09375 0.23437,0.28125 0.59375,0.28125 0.3125,0 0.59375,-0.1875 0.28125,-0.1875 0.4375,-0.546875 h 0.34375 q -0.3125,0.890625 -0.90625,1.34375 -0.57813,0.453125 -1.1875,0.453125 -0.42188,0 -0.82813,-0.234375 -0.39062,-0.234375 -0.59375,-0.65625 -0.1875,-0.4375 -0.1875,-1.34375 v -5.609375 h -1.3125 V 26.64114 q 0.5,-0.203125 1.01563,-0.6875 0.53125,-0.484375 0.9375,-1.125 0.20312,-0.359375 0.57812,-1.28125 z m 2.30831,2.75 h 3.48437 v 0.34375 q -0.46875,0.03125 -0.625,0.171875 -0.15625,0.125 -0.15625,0.390625 0,0.28125 0.15625,0.671875 l 1.78125,4.8125 1.79688,-3.90625 -0.46875,-1.234375 q -0.21875,-0.546875 -0.57813,-0.765625 -0.20312,-0.125 -0.75,-0.140625 v -0.34375 h 3.98438 v 0.34375 q -0.65625,0.01563 -0.9375,0.234375 -0.17188,0.140625 -0.17188,0.453125 0,0.1875 0.0625,0.375 l 1.89063,4.796875 1.76562,-4.625 q 0.1875,-0.484375 0.1875,-0.78125 0,-0.171875 -0.1875,-0.296875 -0.17187,-0.140625 -0.6875,-0.15625 v -0.34375 h 2.625 v 0.34375 q -0.79687,0.109375 -1.15625,1.0625 l -2.79687,7.1875 h -0.375 l -2.07813,-5.328125 -2.4375,5.328125 h -0.32812 l -2.6875,-7.015625 q -0.26563,-0.65625 -0.51563,-0.890625 -0.25,-0.234375 -0.79687,-0.34375 z m 18.01982,-0.25 q 1.89062,0 3.03125,1.4375 0.98437,1.234375 0.98437,2.828125 0,1.125 -0.54687,2.28125 -0.53125,1.140625 -1.48438,1.71875 -0.9375,0.578125 -2.09375,0.578125 -1.89062,0 -3,-1.5 -0.9375,-1.265625 -0.9375,-2.84375 0,-1.140625 0.5625,-2.265625 0.57813,-1.140625 1.5,-1.6875 0.9375,-0.546875 1.98438,-0.546875 z m -0.29688,0.59375 q -0.46875,0 -0.96875,0.296875 -0.48437,0.28125 -0.78125,1 -0.29687,0.71875 -0.29687,1.84375 0,1.828125 0.71875,3.15625 0.71875,1.3125 1.90625,1.3125 0.89062,0 1.45312,-0.71875 0.57813,-0.734375 0.57813,-2.515625 0,-2.21875 -0.95313,-3.5 -0.64062,-0.875 -1.65625,-0.875 z m 7.98438,-0.59375 v 1.875 q 1.04687,-1.875 2.14062,-1.875 0.5,0 0.82813,0.3125 0.32812,0.296875 0.32812,0.703125 0,0.359375 -0.23437,0.609375 -0.23438,0.234375 -0.5625,0.234375 -0.32813,0 -0.71875,-0.3125 -0.39063,-0.3125 -0.57813,-0.3125 -0.17187,0 -0.35937,0.1875 -0.40625,0.359375 -0.84375,1.21875 v 4 q 0,0.703125 0.17187,1.046875 0.10938,0.25 0.40625,0.421875 0.3125,0.15625 0.875,0.15625 v 0.328125 h -4.28125 v -0.328125 q 0.64063,0 0.95313,-0.203125 0.23437,-0.140625 0.3125,-0.46875 0.0469,-0.140625 0.0469,-0.875 v -3.234375 q 0,-1.453125 -0.0625,-1.734375 -0.0469,-0.28125 -0.21875,-0.40625 -0.15625,-0.125 -0.39062,-0.125 -0.28125,0 -0.64063,0.140625 l -0.0781,-0.328125 2.51562,-1.03125 z m 6.2283,-4.359375 v 8.296875 l 2.125,-1.9375 q 0.67187,-0.609375 0.78125,-0.78125 0.0781,-0.109375 0.0781,-0.21875 0,-0.171875 -0.15625,-0.296875 -0.14062,-0.140625 -0.48437,-0.15625 V 26.29739 h 3.625 v 0.296875 q -0.75,0.01563 -1.25,0.234375 -0.5,0.203125 -1.09375,0.734375 l -2.14063,1.984375 2.14063,2.703125 q 0.89062,1.109375 1.20312,1.421875 0.4375,0.421875 0.76563,0.546875 0.23437,0.09375 0.79687,0.09375 v 0.328125 h -4.04687 v -0.328125 q 0.34375,-0.01563 0.45312,-0.109375 0.125,-0.09375 0.125,-0.265625 0,-0.203125 -0.35937,-0.671875 l -2.5625,-3.265625 v 2.765625 q 0,0.8125 0.10937,1.0625 0.125,0.25 0.32813,0.359375 0.21875,0.109375 0.92187,0.125 v 0.328125 h -4.25 v -0.328125 q 0.64063,0 0.95313,-0.15625 0.1875,-0.09375 0.29687,-0.3125 0.14063,-0.296875 0.14063,-1.03125 v -7.59375 q 0,-1.453125 -0.0781,-1.78125 -0.0625,-0.328125 -0.20312,-0.4375 -0.14063,-0.125 -0.375,-0.125 -0.20313,0 -0.57813,0.15625 l -0.15625,-0.328125 2.46875,-1.015625 z"
       fill-rule="nonzero"
       id="path29" />
    <path
       fill="#000000"
       fill-opacity="0"
       d="M 181.68242,49.73689 V 96.256578"
       fill-rule="evenodd"
       id="path31" />
    <path
       stroke="#595959"
       stroke-width="1"
       stroke-linejoin="round"
       stroke-linecap="butt"
       d="M 181.68242,49.736893 V 90.256569"
       fill-rule="evenodd"
       id="path33" />
    <path
       fill="#595959"
       stroke="#595959"
       stroke-width="1"
       stroke-linecap="butt"
       d="m 180.03069,90.25657 1.65173,4.538101 1.65174,-4.538101 z"
       fill-rule="evenodd"
       id="path35" />
    <path
       fill="#000000"
       fill-opacity="0"
       d="m 114.43832,147.53749 v 65.5433"
       fill-rule="evenodd"
       id="path37" />
    <path
       stroke="#595959"
       stroke-width="1"
       stroke-linejoin="round"
       stroke-linecap="butt"
       d="m 114.43832,147.53749 v 59.5433"
       fill-rule="evenodd"
       id="path39" />
    <path
       fill="#595959"
       stroke="#595959"
       stroke-width="1"
       stroke-linecap="butt"
       d="m 112.78659,207.0808 1.65173,4.53809 1.65173,-4.53809 z"
       fill-rule="evenodd"
       id="path41" />
    <path
       fill="#000000"
       fill-opacity="0"
       d="m 20.485565,154.9115 h 93.952755 v 42.01575 H 20.485565 Z"
       fill-rule="evenodd"
       id="path43" />
    <path
       fill="#000000"
       d="m 63.200043,181.8315 h -3.296875 l -4.1875,-5.78125 q -0.453125,0.0312 -0.75,0.0312 -0.125,0 -0.265625,0 -0.125,-0.0156 -0.28125,-0.0312 v 3.59375 q 0,1.17187 0.265625,1.45312 0.34375,0.39063 1.03125,0.39063 h 0.484375 v 0.34375 h -5.296875 v -0.34375 h 0.46875 q 0.78125,0 1.125,-0.5 0.1875,-0.28125 0.1875,-1.34375 v -7.98438 q 0,-1.15625 -0.25,-1.4375 -0.359375,-0.40625 -1.0625,-0.40625 h -0.46875 v -0.34375 h 4.5 q 1.96875,0 2.90625,0.29688 0.9375,0.28125 1.578125,1.0625 0.65625,0.76562 0.65625,1.82812 0,1.14063 -0.75,1.98438 -0.734375,0.82812 -2.28125,1.17187 l 2.546875,3.54688 q 0.875,1.21875 1.5,1.625 0.625,0.39062 1.640625,0.5 z m -8.78125,-6.34375 q 0.1875,0 0.3125,0 0.125,0 0.203125,0 1.765625,0 2.65625,-0.76563 0.90625,-0.76562 0.90625,-1.95312 0,-1.15625 -0.734375,-1.875 -0.71875,-0.71875 -1.90625,-0.71875 -0.53125,0 -1.4375,0.17187 z m 18.29123,-6.01563 0.140625,2.90625 h -0.359375 q -0.09375,-0.76562 -0.265625,-1.09375 -0.28125,-0.53125 -0.75,-0.78125 -0.46875,-0.25 -1.234375,-0.25 h -1.734375 v 9.4375 q 0,1.14063 0.234375,1.42188 0.34375,0.375 1.0625,0.375 h 0.4375 v 0.34375 h -5.234375 v -0.34375 h 0.4375 q 0.78125,0 1.109375,-0.46875 0.203125,-0.29688 0.203125,-1.32813 v -9.4375 h -1.484375 q -0.875,0 -1.234375,0.125 -0.46875,0.17188 -0.8125,0.67188 -0.34375,0.48437 -0.40625,1.32812 h -0.34375 l 0.140625,-2.90625 z m 4.505356,0.6875 v 4.875 h 2.703125 q 1.0625,0 1.421875,-0.3125 0.46875,-0.42187 0.515625,-1.48437 h 0.34375 v 4.29687 h -0.34375 q -0.125,-0.89062 -0.25,-1.15625 -0.15625,-0.3125 -0.53125,-0.48437 -0.375,-0.1875 -1.15625,-0.1875 h -2.703125 v 4.0625 q 0,0.82812 0.0625,1 0.07813,0.17187 0.25,0.28125 0.1875,0.10937 0.703125,0.10937 h 2.09375 q 1.046875,0 1.515625,-0.14062 0.484375,-0.15625 0.921875,-0.57813 0.5625,-0.5625 1.15625,-1.70312 h 0.359375 l -1.0625,3.09375 h -9.53125 v -0.34375 h 0.4375 q 0.4375,0 0.84375,-0.20313 0.28125,-0.14062 0.390625,-0.4375 0.109375,-0.29687 0.109375,-1.1875 v -8.03125 q 0,-1.17187 -0.25,-1.45312 -0.328125,-0.35938 -1.09375,-0.35938 h -0.4375 v -0.34375 h 9.53125 l 0.125,2.71875 h -0.34375 q -0.203125,-0.98437 -0.4375,-1.34375 -0.21875,-0.35937 -0.671875,-0.5625 -0.375,-0.125 -1.296875,-0.125 z m 7.802231,11.67188 v -0.34375 h 0.46875 q 0.78125,0 1.109375,-0.5 0.203125,-0.29688 0.203125,-1.34375 v -7.98438 q 0,-1.15625 -0.25,-1.4375 -0.359375,-0.40625 -1.0625,-0.40625 h -0.46875 v -0.34375 h 5.03125 q 2.765625,0 4.203125,0.64063 1.453125,0.625 2.328125,2.09375 0.890625,1.46875 0.890625,3.39062 0,2.57813 -1.5625,4.29688 -1.765625,1.9375 -5.359375,1.9375 z m 3.53125,-0.89063 q 1.15625,0.25 1.9375,0.25 2.109375,0 3.5,-1.48437 1.40625,-1.48438 1.40625,-4.03125 0,-2.54688 -1.40625,-4.01563 -1.390625,-1.48437 -3.5625,-1.48437 -0.828125,0 -1.875,0.26562 z m 15.59795,-7.70312 v 2.84375 h -0.29688 q -0.34375,-1.34375 -0.89062,-1.8125 -0.53125,-0.48438 -1.375,-0.48438 -0.64063,0 -1.03125,0.34375 -0.39063,0.32813 -0.39063,0.73438 0,0.51562 0.29688,0.875 0.28125,0.375 1.14062,0.79687 l 1.32813,0.64063 q 1.85937,0.90625 1.85937,2.375 0,1.14062 -0.875,1.84375 -0.85937,0.6875 -1.92187,0.6875 -0.76563,0 -1.75,-0.26563 -0.296879,-0.0937 -0.484379,-0.0937 -0.21875,0 -0.328125,0.23438 h -0.296875 v -2.96875 h 0.296875 q 0.25,1.26562 0.968754,1.92187 0.71875,0.64063 1.60937,0.64063 0.64063,0 1.03125,-0.35938 0.39063,-0.375 0.39063,-0.90625 0,-0.625 -0.4375,-1.04687 -0.4375,-0.4375 -1.76563,-1.09375 -1.312499,-0.65625 -1.718749,-1.17188 -0.421875,-0.53125 -0.421875,-1.3125 0,-1.03125 0.703125,-1.71875 0.718749,-0.70312 1.828129,-0.70312 0.5,0 1.20312,0.21875 0.45313,0.125 0.60938,0.125 0.15625,0 0.23437,-0.0625 0.0781,-0.0625 0.1875,-0.28125 z"
       fill-rule="nonzero"
       id="path45" />
    <path
       fill="#000000"
       fill-opacity="0"
       d="m 114.43832,264.35632 v 65.54333"
       fill-rule="evenodd"
       id="path47" />
    <path
       stroke="#595959"
       stroke-width="1"
       stroke-linejoin="round"
       stroke-linecap="butt"
       d="m 114.43832,264.35635 v 59.5433"
       fill-rule="evenodd"
       id="path49" />
    <path
       fill="#595959"
       stroke="#595959"
       stroke-width="1"
       stroke-linecap="butt"
       d="m 112.78659,323.89966 1.65173,4.53809 1.65173,-4.53809 z"
       fill-rule="evenodd"
       id="path51" />
    <path
       fill="#000000"
       fill-opacity="0"
       d="m 74.69292,271.73166 h 39.74803 v 42.01575 H 74.69292 Z"
       fill-rule="evenodd"
       id="path53" />
    <path
       fill="#000000"
       d="m 92.221115,290.30792 h 3.921875 v 0.34375 q -0.375,0 -0.53125,0.125 -0.140625,0.125 -0.140625,0.32813 0,0.21875 0.3125,0.67187 0.109375,0.15625 0.3125,0.46875 l 0.578125,0.9375 0.6875,-0.9375 q 0.65625,-0.90625 0.65625,-1.14062 0,-0.20313 -0.15625,-0.32813 -0.15625,-0.125 -0.5,-0.125 v -0.34375 h 2.82812 v 0.34375 q -0.45312,0.0156 -0.781245,0.23438 -0.4375,0.3125 -1.21875,1.35937 l -1.140625,1.51563 2.078125,2.98437 q 0.765625,1.10938 1.093745,1.32813 0.32813,0.21875 0.84375,0.25 v 0.32812 h -3.92187 v -0.32812 q 0.40625,0 0.625,-0.1875 0.171875,-0.125 0.171875,-0.32813 0,-0.21875 -0.578125,-1.0625 l -1.21875,-1.78125 -1.34375,1.78125 q -0.609375,0.82813 -0.609375,0.98438 0,0.21875 0.203125,0.40625 0.203125,0.17187 0.609375,0.1875 v 0.32812 h -2.71875 v -0.32812 q 0.328125,-0.0469 0.578125,-0.23438 0.34375,-0.25 1.15625,-1.34375 l 1.75,-2.32812 -1.578125,-2.28125 q -0.671875,-0.98438 -1.046875,-1.23438 -0.375,-0.25 -0.921875,-0.25 z"
       fill-rule="nonzero"
       id="path55" />
    <path
       fill="#000000"
       d="m 103.31486,299.9173 v 1.26562 q 0.70313,-1.26562 1.4375,-1.26562 0.32813,0 0.54688,0.21875 0.21875,0.20312 0.21875,0.46875 0,0.23437 -0.15625,0.40625 -0.15625,0.15625 -0.375,0.15625 -0.21875,0 -0.48438,-0.20313 -0.25,-0.21875 -0.39062,-0.21875 -0.10938,0 -0.23438,0.125 -0.26562,0.25 -0.5625,0.8125 v 2.67188 q 0,0.45312 0.10938,0.70312 0.0781,0.15625 0.28125,0.26563 0.20312,0.10937 0.57812,0.10937 v 0.21875 h -2.84375 v -0.21875 q 0.42188,0 0.625,-0.14062 0.15625,-0.0937 0.21875,-0.29688 0.0312,-0.10937 0.0312,-0.59375 v -2.15625 q 0,-0.96875 -0.0469,-1.15625 -0.0312,-0.1875 -0.14063,-0.26562 -0.10937,-0.0937 -0.26562,-0.0937 -0.1875,0 -0.42188,0.0937 l -0.0625,-0.21875 1.6875,-0.6875 z"
       fill-rule="nonzero"
       id="path57" />
    <path
       fill="#000000"
       fill-opacity="0"
       d="m 242.43832,264.35632 v 65.54333"
       fill-rule="evenodd"
       id="path59" />
    <path
       stroke="#595959"
       stroke-width="1"
       stroke-linejoin="round"
       stroke-linecap="butt"
       d="m 242.43832,270.35635 v 59.5433"
       fill-rule="evenodd"
       id="path61" />
    <path
       fill="#595959"
       stroke="#595959"
       stroke-width="1"
       stroke-linecap="butt"
       d="m 244.09006,270.35635 -1.65173,-4.53812 -1.65174,4.53812 z"
       fill-rule="evenodd"
       id="path63" />
    <path
       fill="#000000"
       fill-opacity="0"
       d="m 242.69292,271.73166 h 57.54329 v 42.01575 h -57.54329 z"
       fill-rule="evenodd"
       id="path65" />
    <path
       fill="#000000"
       d="m 254.69292,287.55792 v 2.75 h 1.95311 v 0.64063 h -1.95311 v 5.40625 q 0,0.8125 0.23437,1.09375 0.23438,0.28125 0.59375,0.28125 0.3125,0 0.59374,-0.1875 0.28125,-0.1875 0.4375,-0.54688 h 0.34375 q -0.3125,0.89063 -0.90624,1.34375 -0.57812,0.45313 -1.1875,0.45313 -0.42187,0 -0.82812,-0.23438 -0.39063,-0.23437 -0.59375,-0.65625 -0.1875,-0.4375 -0.1875,-1.34375 v -5.60937 h -1.3125 v -0.29688 q 0.5,-0.20312 1.01562,-0.6875 0.53125,-0.48437 0.9375,-1.125 0.20313,-0.35937 0.57813,-1.28125 z m 7.98018,14.75 v 0.32813 q -1.375,-0.6875 -2.29688,-1.60938 -1.3125,-1.32812 -2.03125,-3.125 -0.70312,-1.79687 -0.70312,-3.71875 0,-2.82812 1.39062,-5.15625 1.39063,-2.32812 3.64063,-3.32812 v 0.375 q -1.125,0.625 -1.84375,1.70312 -0.71875,1.07813 -1.07813,2.73438 -0.35937,1.64062 -0.35937,3.4375 0,1.9375 0.3125,3.53125 0.23437,1.26562 0.5625,2.01562 0.34375,0.76563 0.90625,1.46875 0.57812,0.70313 1.5,1.34375 z m 0.6658,-12 h 3.92188 v 0.34375 q -0.375,0 -0.53125,0.125 -0.14063,0.125 -0.14063,0.32813 0,0.21875 0.3125,0.67187 0.10938,0.15625 0.3125,0.46875 l 0.57813,0.9375 0.6875,-0.9375 q 0.65625,-0.90625 0.65625,-1.14062 0,-0.20313 -0.15625,-0.32813 -0.15625,-0.125 -0.5,-0.125 v -0.34375 h 2.82812 v 0.34375 q -0.45312,0.0156 -0.78125,0.23438 -0.4375,0.3125 -1.21875,1.35937 l -1.14062,1.51563 2.07812,2.98437 q 0.76563,1.10938 1.09375,1.32813 0.32813,0.21875 0.84375,0.25 v 0.32812 h -3.92187 v -0.32812 q 0.40625,0 0.625,-0.1875 0.17187,-0.125 0.17187,-0.32813 0,-0.21875 -0.57812,-1.0625 l -1.21875,-1.78125 -1.34375,1.78125 q -0.60938,0.82813 -0.60938,0.98438 0,0.21875 0.20313,0.40625 0.20312,0.17187 0.60937,0.1875 v 0.32812 h -2.71875 v -0.32812 q 0.32813,-0.0469 0.57813,-0.23438 0.34375,-0.25 1.15625,-1.34375 l 1.75,-2.32812 -1.57813,-2.28125 q -0.67187,-0.98438 -1.04687,-1.23438 -0.375,-0.25 -0.92188,-0.25 z"
       fill-rule="nonzero"
       id="path67" />
    <path
       fill="#000000"
       d="m 274.43265,299.9173 v 1.26562 q 0.70313,-1.26562 1.4375,-1.26562 0.32813,0 0.54688,0.21875 0.21875,0.20312 0.21875,0.46875 0,0.23437 -0.15625,0.40625 -0.15625,0.15625 -0.375,0.15625 -0.21875,0 -0.48438,-0.20313 -0.25,-0.21875 -0.39062,-0.21875 -0.10938,0 -0.23438,0.125 -0.26562,0.25 -0.5625,0.8125 v 2.67188 q 0,0.45312 0.10938,0.70312 0.0781,0.15625 0.28125,0.26563 0.20312,0.10937 0.57812,0.10937 v 0.21875 h -2.84375 v -0.21875 q 0.42188,0 0.625,-0.14062 0.15625,-0.0937 0.21875,-0.29688 0.0312,-0.10937 0.0312,-0.59375 v -2.15625 q 0,-0.96875 -0.0469,-1.15625 -0.0312,-0.1875 -0.14063,-0.26562 -0.10937,-0.0937 -0.26562,-0.0937 -0.1875,0 -0.42188,0.0937 l -0.0625,-0.21875 1.6875,-0.6875 z"
       fill-rule="nonzero"
       id="path69" />
    <path
       fill="#000000"
       d="m 276.9806,286.07355 v -0.375 q 1.375,0.6875 2.29687,1.60937 1.3125,1.32813 2.01563,3.125 0.71875,1.78125 0.71875,3.73438 0,2.8125 -1.39063,5.14062 -1.39062,2.32813 -3.64062,3.32813 v -0.32813 q 1.125,-0.625 1.84375,-1.70312 0.71875,-1.0625 1.0625,-2.71875 0.35937,-1.65625 0.35937,-3.45313 0,-1.9375 -0.29687,-3.54687 -0.23438,-1.25 -0.57813,-2 -0.32812,-0.76563 -0.90625,-1.46875 -0.5625,-0.70313 -1.48437,-1.34375 z"
       fill-rule="nonzero"
       id="path71" />
    <path
       fill="#000000"
       fill-opacity="0"
       d="m 242.43832,147.53749 v 65.5433"
       fill-rule="evenodd"
       id="path73" />
    <path
       stroke="#595959"
       stroke-width="1"
       stroke-linejoin="round"
       stroke-linecap="butt"
       d="m 242.43832,153.53749 v 59.5433"
       fill-rule="evenodd"
       id="path75" />
    <path
       fill="#595959"
       stroke="#595959"
       stroke-width="1"
       stroke-linecap="butt"
       d="m 244.09006,153.53749 -1.65173,-4.5381 -1.65174,4.5381 z"
       fill-rule="evenodd"
       id="path77" />
    <path
       fill="#000000"
       fill-opacity="0"
       d="M 242.69292,154.91281 H 359.7638 v 42.01575 H 242.69292 Z"
       fill-rule="evenodd"
       id="path79" />
    <path
       fill="#000000"
       d="m 254.69292,170.73906 v 2.75 h 1.95311 v 0.64062 h -1.95311 v 5.40625 q 0,0.8125 0.23437,1.09375 0.23438,0.28125 0.59375,0.28125 0.3125,0 0.59374,-0.1875 0.28125,-0.1875 0.4375,-0.54687 h 0.34375 q -0.3125,0.89062 -0.90624,1.34375 -0.57812,0.45312 -1.1875,0.45312 -0.42187,0 -0.82812,-0.23437 -0.39063,-0.23438 -0.59375,-0.65625 -0.1875,-0.4375 -0.1875,-1.34375 v -5.60938 h -1.3125 v -0.29687 q 0.5,-0.20313 1.01562,-0.6875 0.53125,-0.48438 0.9375,-1.125 0.20313,-0.35938 0.57813,-1.28125 z m 7.98018,14.75 v 0.32812 q -1.375,-0.6875 -2.29688,-1.60937 -1.3125,-1.32813 -2.03125,-3.125 -0.70312,-1.79688 -0.70312,-3.71875 0,-2.82813 1.39062,-5.15625 1.39063,-2.32813 3.64063,-3.32813 v 0.375 q -1.125,0.625 -1.84375,1.70313 -0.71875,1.07812 -1.07813,2.73437 -0.35937,1.64063 -0.35937,3.4375 0,1.9375 0.3125,3.53125 0.23437,1.26563 0.5625,2.01563 0.34375,0.76562 0.90625,1.46875 0.57812,0.70312 1.5,1.34375 z m 0.6658,-12 h 3.92188 v 0.34375 q -0.375,0 -0.53125,0.125 -0.14063,0.125 -0.14063,0.32812 0,0.21875 0.3125,0.67188 0.10938,0.15625 0.3125,0.46875 l 0.57813,0.9375 0.6875,-0.9375 q 0.65625,-0.90625 0.65625,-1.14063 0,-0.20312 -0.15625,-0.32812 -0.15625,-0.125 -0.5,-0.125 v -0.34375 h 2.82812 v 0.34375 q -0.45312,0.0156 -0.78125,0.23437 -0.4375,0.3125 -1.21875,1.35938 l -1.14062,1.51562 2.07812,2.98438 q 0.76563,1.10937 1.09375,1.32812 0.32813,0.21875 0.84375,0.25 v 0.32813 h -3.92187 v -0.32813 q 0.40625,0 0.625,-0.1875 0.17187,-0.125 0.17187,-0.32812 0,-0.21875 -0.57812,-1.0625 l -1.21875,-1.78125 -1.34375,1.78125 q -0.60938,0.82812 -0.60938,0.98437 0,0.21875 0.20313,0.40625 0.20312,0.17188 0.60937,0.1875 v 0.32813 h -2.71875 v -0.32813 q 0.32813,-0.0469 0.57813,-0.23437 0.34375,-0.25 1.15625,-1.34375 l 1.75,-2.32813 -1.57813,-2.28125 q -0.67187,-0.98437 -1.04687,-1.23437 -0.375,-0.25 -0.92188,-0.25 z"
       fill-rule="nonzero"
       id="path81" />
    <path
       fill="#000000"
       d="m 274.43265,183.09843 v 1.26562 q 0.70313,-1.26562 1.4375,-1.26562 0.32813,0 0.54688,0.21875 0.21875,0.20312 0.21875,0.46875 0,0.23437 -0.15625,0.40625 -0.15625,0.15625 -0.375,0.15625 -0.21875,0 -0.48438,-0.20313 -0.25,-0.21875 -0.39062,-0.21875 -0.10938,0 -0.23438,0.125 -0.26562,0.25 -0.5625,0.8125 v 2.67188 q 0,0.45312 0.10938,0.70312 0.0781,0.15625 0.28125,0.26563 0.20312,0.10937 0.57812,0.10937 v 0.21875 h -2.84375 v -0.21875 q 0.42188,0 0.625,-0.14062 0.15625,-0.0937 0.21875,-0.29688 0.0312,-0.10937 0.0312,-0.59375 v -2.15625 q 0,-0.96875 -0.0469,-1.15625 -0.0312,-0.1875 -0.14063,-0.26562 -0.10937,-0.0937 -0.26562,-0.0937 -0.1875,0 -0.42188,0.0937 l -0.0625,-0.21875 1.6875,-0.6875 z"
       fill-rule="nonzero"
       id="path83" />
    <path
       fill="#000000"
       d="m 276.9806,169.25468 v -0.375 q 1.375,0.6875 2.29687,1.60937 1.3125,1.32813 2.01563,3.125 0.71875,1.78125 0.71875,3.73438 0,2.8125 -1.39063,5.14062 -1.39062,2.32813 -3.64062,3.32813 v -0.32813 q 1.125,-0.625 1.84375,-1.70312 0.71875,-1.0625 1.0625,-2.71875 0.35937,-1.65625 0.35937,-3.45313 0,-1.9375 -0.29687,-3.54687 -0.23438,-1.25 -0.57813,-2 -0.32812,-0.76563 -0.90625,-1.46875 -0.5625,-0.70313 -1.48437,-1.34375 z m 6.7908,15.6875 v -0.40625 q 0.9375,-0.3125 1.45313,-0.96875 0.51562,-0.64063 0.51562,-1.375 0,-0.17188 -0.0781,-0.28125 -0.0625,-0.0937 -0.125,-0.0937 -0.10938,0 -0.4375,0.1875 -0.17188,0.0781 -0.34375,0.0781 -0.45313,0 -0.71875,-0.25 -0.26563,-0.26562 -0.26563,-0.73437 0,-0.45313 0.34375,-0.76563 0.34375,-0.32812 0.82813,-0.32812 0.60937,0 1.07812,0.53125 0.46875,0.51562 0.46875,1.39062 0,0.9375 -0.65625,1.73438 -0.65625,0.8125 -2.0625,1.28125 z m 11.32813,-14.20313 v 2.75 h 1.95312 v 0.64063 h -1.95312 v 5.40625 q 0,0.8125 0.23437,1.09375 0.23438,0.28125 0.59375,0.28125 0.3125,0 0.59375,-0.1875 0.28125,-0.1875 0.4375,-0.54688 h 0.34375 q -0.3125,0.89063 -0.90625,1.34375 -0.57812,0.45313 -1.1875,0.45313 -0.42187,0 -0.82812,-0.23438 -0.39063,-0.23437 -0.59375,-0.65625 -0.1875,-0.4375 -0.1875,-1.34375 v -5.60937 h -1.3125 v -0.29688 q 0.5,-0.20312 1.01562,-0.6875 0.53125,-0.48437 0.9375,-1.125 0.20313,-0.35937 0.57813,-1.28125 z m 7.98019,14.75 v 0.32813 q -1.375,-0.6875 -2.29687,-1.60938 -1.3125,-1.32812 -2.03125,-3.125 -0.70313,-1.79687 -0.70313,-3.71875 0,-2.82812 1.39063,-5.15625 1.39062,-2.32812 3.64062,-3.32812 v 0.375 q -1.125,0.625 -1.84375,1.70312 -0.71875,1.07813 -1.07812,2.73438 -0.35938,1.64062 -0.35938,3.4375 0,1.9375 0.3125,3.53125 0.23438,1.26562 0.5625,2.01562 0.34375,0.76563 0.90625,1.46875 0.57813,0.70313 1.5,1.34375 z m 0.6658,-12 h 3.92188 v 0.34375 q -0.375,0 -0.53125,0.125 -0.14063,0.125 -0.14063,0.32813 0,0.21875 0.3125,0.67187 0.10938,0.15625 0.3125,0.46875 l 0.57813,0.9375 0.6875,-0.9375 q 0.65625,-0.90625 0.65625,-1.14062 0,-0.20313 -0.15625,-0.32813 -0.15625,-0.125 -0.5,-0.125 v -0.34375 h 2.82812 v 0.34375 q -0.45312,0.0156 -0.78125,0.23438 -0.4375,0.3125 -1.21875,1.35937 l -1.14062,1.51563 2.07812,2.98437 q 0.76563,1.10938 1.09375,1.32813 0.32813,0.21875 0.84375,0.25 v 0.32812 h -3.92187 v -0.32812 q 0.40625,0 0.625,-0.1875 0.17187,-0.125 0.17187,-0.32813 0,-0.21875 -0.57812,-1.0625 l -1.21875,-1.78125 -1.34375,1.78125 q -0.60938,0.82813 -0.60938,0.98438 0,0.21875 0.20313,0.40625 0.20312,0.17187 0.60937,0.1875 v 0.32812 h -2.71875 v -0.32812 q 0.32813,-0.0469 0.57813,-0.23438 0.34375,-0.25 1.15625,-1.34375 l 1.75,-2.32812 -1.57813,-2.28125 q -0.67187,-0.98438 -1.04687,-1.23438 -0.375,-0.25 -0.92188,-0.25 z"
       fill-rule="nonzero"
       id="path85" />
    <path
       fill="#000000"
       d="m 317.933,186.72343 q -0.21875,1.09375 -0.875,1.6875 -0.65625,0.59375 -1.45313,0.59375 -0.95312,0 -1.65625,-0.79688 -0.70312,-0.79687 -0.70312,-2.15625 0,-1.3125 0.78125,-2.125 0.78125,-0.82812 1.875,-0.82812 0.82812,0 1.34375,0.4375 0.53125,0.4375 0.53125,0.90625 0,0.23437 -0.15625,0.375 -0.14063,0.14062 -0.40625,0.14062 -0.35938,0 -0.54688,-0.23437 -0.0937,-0.125 -0.125,-0.48438 -0.0312,-0.35937 -0.25,-0.54687 -0.21875,-0.17188 -0.59375,-0.17188 -0.60937,0 -0.96875,0.4375 -0.5,0.59375 -0.5,1.57813 0,1 0.48438,1.76562 0.5,0.75 1.32812,0.75 0.59375,0 1.0625,-0.40625 0.34375,-0.28125 0.65625,-1.01562 z"
       fill-rule="nonzero"
       id="path87" />
    <path
       fill="#000000"
       d="m 318.76578,169.25468 v -0.375 q 1.375,0.6875 2.29687,1.60937 1.3125,1.32813 2.01563,3.125 0.71875,1.78125 0.71875,3.73438 0,2.8125 -1.39063,5.14062 -1.39062,2.32813 -3.64062,3.32813 v -0.32813 q 1.125,-0.625 1.84375,-1.70312 0.71875,-1.0625 1.0625,-2.71875 0.35937,-1.65625 0.35937,-3.45313 0,-1.9375 -0.29687,-3.54687 -0.23438,-1.25 -0.57813,-2 -0.32812,-0.76563 -0.90625,-1.46875 -0.5625,-0.70313 -1.48437,-1.34375 z"
       fill-rule="nonzero"
       id="path89" />
    <path
       fill="#000000"
       fill-opacity="0"
       d="m 330.0866,217.6451 h 166.33072 v 42.01576 H 330.0866 Z"
       fill-rule="evenodd"
       id="path91" />
    <path
       stroke="#000000"
       stroke-width="1"
       stroke-linejoin="round"
       stroke-linecap="butt"
       d="m 330.0866,217.6451 h 166.33072 v 42.01576 H 330.0866 Z"
       fill-rule="evenodd"
       id="path93" />
    <path
       fill="#000000"
       d="m 350.99826,231.92447 q 2.40625,0 4.15625,1.82813 1.76563,1.82812 1.76563,4.5625 0,2.8125 -1.78125,4.67187 -1.76563,1.85938 -4.29688,1.85938 -2.54687,0 -4.28125,-1.8125 -1.73437,-1.8125 -1.73437,-4.6875 0,-2.95313 2,-4.79688 1.75,-1.625 4.17187,-1.625 z m -0.17187,0.67188 q -1.67188,0 -2.67188,1.23437 -1.25,1.53125 -1.25,4.46875 0,3.03125 1.29688,4.65625 1,1.25 2.625,1.25 1.75,0 2.875,-1.35937 1.14062,-1.35938 1.14062,-4.28125 0,-3.17188 -1.25,-4.73438 -1,-1.23437 -2.76562,-1.23437 z m 9.69171,5.0625 q 1.20312,-1.6875 2.60937,-1.6875 1.28125,0 2.23438,1.10937 0.96875,1.09375 0.96875,3 0,2.21875 -1.48438,3.57813 -1.26562,1.15625 -2.82812,1.15625 -0.71875,0 -1.46875,-0.25 -0.75,-0.26563 -1.54688,-0.79688 v -8.65625 q 0,-1.42187 -0.0625,-1.75 -0.0625,-0.32812 -0.21875,-0.4375 -0.14062,-0.125 -0.35937,-0.125 -0.25,0 -0.64063,0.15625 l -0.125,-0.32812 2.5,-1.01563 h 0.42188 z m 0,0.57812 v 5 q 0.45312,0.45313 0.95312,0.6875 0.5,0.23438 1.01563,0.23438 0.82812,0 1.54687,-0.90625 0.71875,-0.92188 0.71875,-2.65625 0,-1.60938 -0.71875,-2.46875 -0.71875,-0.85938 -1.625,-0.85938 -0.48437,0 -0.96875,0.25 -0.35937,0.17188 -0.92187,0.71875 z m 12.42187,-2.26562 v 2.84375 h -0.29687 q -0.34375,-1.34375 -0.89063,-1.8125 -0.53125,-0.48438 -1.375,-0.48438 -0.64062,0 -1.03125,0.34375 -0.39062,0.32813 -0.39062,0.73438 0,0.51562 0.29687,0.875 0.28125,0.375 1.14063,0.79687 l 1.32812,0.64063 q 1.85938,0.90625 1.85938,2.375 0,1.14062 -0.875,1.84375 -0.85938,0.6875 -1.92188,0.6875 -0.76562,0 -1.75,-0.26563 -0.29687,-0.0937 -0.48437,-0.0937 -0.21875,0 -0.32813,0.23438 h -0.29687 v -2.96875 h 0.29687 q 0.25,1.26562 0.96875,1.92187 0.71875,0.64063 1.60938,0.64063 0.64062,0 1.03125,-0.35938 0.39062,-0.375 0.39062,-0.90625 0,-0.625 -0.4375,-1.04687 -0.4375,-0.4375 -1.76562,-1.09375 -1.3125,-0.65625 -1.71875,-1.17188 -0.42188,-0.53125 -0.42188,-1.3125 0,-1.03125 0.70313,-1.71875 0.71875,-0.70312 1.82812,-0.70312 0.5,0 1.20313,0.21875 0.45312,0.125 0.60937,0.125 0.15625,0 0.23438,-0.0625 0.0781,-0.0625 0.1875,-0.28125 z m 3.27588,3.39062 q 0,1.85938 0.90625,2.92188 0.90625,1.04687 2.14062,1.04687 0.8125,0 1.42188,-0.4375 0.60937,-0.45312 1.01562,-1.54687 l 0.28125,0.17187 q -0.1875,1.25 -1.10937,2.28125 -0.92188,1.01563 -2.29688,1.01563 -1.51562,0 -2.59375,-1.17188 -1.0625,-1.17187 -1.0625,-3.14062 0,-2.14063 1.09375,-3.32813 1.10938,-1.20312 2.76563,-1.20312 1.40625,0 2.29687,0.92187 0.90625,0.92188 0.90625,2.46875 z m 0,-0.53125 h 3.85937 q -0.0469,-0.79687 -0.1875,-1.125 -0.23437,-0.51562 -0.6875,-0.79687 -0.4375,-0.29688 -0.9375,-0.29688 -0.75,0 -1.34375,0.59375 -0.59375,0.57813 -0.70312,1.625 z m 9.32742,-2.85937 v 1.875 q 1.04688,-1.875 2.14063,-1.875 0.5,0 0.82812,0.3125 0.32813,0.29687 0.32813,0.70312 0,0.35938 -0.23438,0.60938 -0.23437,0.23437 -0.5625,0.23437 -0.32812,0 -0.71875,-0.3125 -0.39062,-0.3125 -0.57812,-0.3125 -0.17188,0 -0.35938,0.1875 -0.40625,0.35938 -0.84375,1.21875 v 4 q 0,0.70313 0.17188,1.04688 0.10937,0.25 0.40625,0.42187 0.3125,0.15625 0.875,0.15625 v 0.32813 h -4.28125 v -0.32813 q 0.64062,0 0.95312,-0.20312 0.23438,-0.14063 0.3125,-0.46875 0.0469,-0.14063 0.0469,-0.875 v -3.23438 q 0,-1.45312 -0.0625,-1.73437 -0.0469,-0.28125 -0.21875,-0.40625 -0.15625,-0.125 -0.39063,-0.125 -0.28125,0 -0.64062,0.14062 l -0.0781,-0.32812 2.51563,-1.03125 z m 3.33768,0.25 h 3.92187 v 0.34375 h -0.25 q -0.35937,0 -0.54687,0.17187 -0.1875,0.17188 -0.1875,0.45313 0,0.32812 0.1875,0.76562 l 1.95312,4.60938 1.9375,-4.78125 q 0.21875,-0.51563 0.21875,-0.78125 0,-0.125 -0.0781,-0.20313 -0.0937,-0.14062 -0.25,-0.1875 -0.15625,-0.0469 -0.625,-0.0469 v -0.34375 h 2.71875 v 0.34375 q -0.46875,0.0312 -0.65625,0.1875 -0.3125,0.26562 -0.57813,0.90625 l -2.95312,7.15625 h -0.375 l -2.98438,-7.03125 q -0.20312,-0.5 -0.39062,-0.70313 -0.17188,-0.21875 -0.45313,-0.375 -0.15625,-0.0781 -0.60937,-0.14062 z m 14.48437,7.14062 q -1.28125,1 -1.60937,1.15625 -0.5,0.21875 -1.04688,0.21875 -0.875,0 -1.4375,-0.59375 -0.54687,-0.59375 -0.54687,-1.5625 0,-0.60937 0.26562,-1.04687 0.375,-0.625 1.29688,-1.17188 0.92187,-0.54687 3.07812,-1.32812 v -0.32813 q 0,-1.25 -0.40625,-1.70312 -0.39062,-0.46875 -1.14062,-0.46875 -0.57813,0 -0.92188,0.3125 -0.34375,0.29687 -0.34375,0.70312 l 0.0156,0.53125 q 0,0.42188 -0.21875,0.65625 -0.20313,0.21875 -0.54688,0.21875 -0.34375,0 -0.5625,-0.23437 -0.20312,-0.23438 -0.20312,-0.65625 0,-0.78125 0.79687,-1.4375 0.8125,-0.65625 2.25,-0.65625 1.10938,0 1.82813,0.375 0.53125,0.28125 0.79687,0.89062 0.15625,0.39063 0.15625,1.59375 v 2.84375 q 0,1.1875 0.0469,1.45313 0.0469,0.26562 0.14062,0.35937 0.10938,0.0937 0.25,0.0937 0.14063,0 0.25,-0.0625 0.20313,-0.125 0.75,-0.67187 v 0.51562 q -1.03125,1.35938 -1.95312,1.35938 -0.45313,0 -0.71875,-0.29688 -0.26563,-0.3125 -0.26563,-1.0625 z m 0,-0.59375 v -3.17187 q -1.375,0.54687 -1.78125,0.76562 -0.71875,0.40625 -1.03125,0.84375 -0.29687,0.4375 -0.29687,0.95313 0,0.65625 0.39062,1.09375 0.39063,0.42187 0.89063,0.42187 0.70312,0 1.82812,-0.90625 z m 5.96802,-9.29687 v 2.75 h 1.95313 v 0.64062 h -1.95313 v 5.40625 q 0,0.8125 0.23438,1.09375 0.23437,0.28125 0.59375,0.28125 0.3125,0 0.59375,-0.1875 0.28125,-0.1875 0.4375,-0.54687 h 0.34375 q -0.3125,0.89062 -0.90625,1.34375 -0.57813,0.45312 -1.1875,0.45312 -0.42188,0 -0.82813,-0.23437 -0.39062,-0.23438 -0.59375,-0.65625 -0.1875,-0.4375 -0.1875,-1.34375 v -5.60938 h -1.3125 v -0.29687 q 0.5,-0.20313 1.01563,-0.6875 0.53125,-0.48438 0.9375,-1.125 0.20312,-0.35938 0.57812,-1.28125 z m 4.88645,-1.85938 q 0.39062,0 0.65625,0.26563 0.26562,0.26562 0.26562,0.65625 0,0.375 -0.26562,0.65625 -0.26563,0.26562 -0.65625,0.26562 -0.375,0 -0.65625,-0.26562 -0.26563,-0.28125 -0.26563,-0.65625 0,-0.39063 0.26563,-0.65625 0.26562,-0.26563 0.65625,-0.26563 z m 0.76562,4.35938 v 6.70312 q 0,0.78125 0.10938,1.04688 0.10937,0.26562 0.32812,0.39062 0.23438,0.125 0.82813,0.125 v 0.32813 h -4.0625 v -0.32813 q 0.60937,0 0.8125,-0.10937 0.21875,-0.125 0.34375,-0.39063 0.125,-0.28125 0.125,-1.0625 v -3.20312 q 0,-1.35938 -0.0781,-1.76563 -0.0781,-0.29687 -0.21875,-0.40625 -0.125,-0.10937 -0.35937,-0.10937 -0.26563,0 -0.625,0.14062 l -0.125,-0.32812 2.51562,-1.03125 z m 6.38642,0 q 1.89062,0 3.03125,1.4375 0.98437,1.23437 0.98437,2.82812 0,1.125 -0.54687,2.28125 -0.53125,1.14063 -1.48438,1.71875 -0.9375,0.57813 -2.09375,0.57813 -1.89062,0 -3,-1.5 -0.9375,-1.26563 -0.9375,-2.84375 0,-1.14063 0.5625,-2.26563 0.57813,-1.14062 1.5,-1.6875 0.9375,-0.54687 1.98438,-0.54687 z m -0.29688,0.59375 q -0.46875,0 -0.96875,0.29687 -0.48437,0.28125 -0.78125,1 -0.29687,0.71875 -0.29687,1.84375 0,1.82813 0.71875,3.15625 0.71875,1.3125 1.90625,1.3125 0.89062,0 1.45312,-0.71875 0.57813,-0.73437 0.57813,-2.51562 0,-2.21875 -0.95313,-3.5 -0.64062,-0.875 -1.65625,-0.875 z m 7.96875,1.17187 q 1.46875,-1.76562 2.79688,-1.76562 0.6875,0 1.17187,0.34375 0.5,0.34375 0.78125,1.125 0.20313,0.54687 0.20313,1.67187 v 3.5625 q 0,0.79688 0.125,1.07813 0.10937,0.23437 0.32812,0.35937 0.21875,0.125 0.82813,0.125 v 0.32813 h -4.125 v -0.32813 h 0.17187 q 0.57813,0 0.8125,-0.17187 0.23438,-0.1875 0.32813,-0.53125 0.0312,-0.14063 0.0312,-0.85938 v -3.40625 q 0,-1.14062 -0.29688,-1.65625 -0.29687,-0.51562 -1,-0.51562 -1.07812,0 -2.15625,1.1875 v 4.39062 q 0,0.85938 0.0937,1.04688 0.14063,0.26562 0.35938,0.39062 0.21875,0.125 0.90625,0.125 v 0.32813 h -4.125 v -0.32813 h 0.17187 q 0.64063,0 0.85938,-0.3125 0.23437,-0.32812 0.23437,-1.25 v -3.09375 q 0,-1.5 -0.0781,-1.82812 -0.0625,-0.32813 -0.20313,-0.4375 -0.14062,-0.125 -0.375,-0.125 -0.26562,0 -0.60937,0.14062 l -0.14063,-0.32812 2.51563,-1.03125 h 0.39062 z m 12.28125,-1.76562 v 2.84375 h -0.29687 q -0.34375,-1.34375 -0.89063,-1.8125 -0.53125,-0.48438 -1.375,-0.48438 -0.64062,0 -1.03125,0.34375 -0.39062,0.32813 -0.39062,0.73438 0,0.51562 0.29687,0.875 0.28125,0.375 1.14063,0.79687 l 1.32812,0.64063 q 1.85938,0.90625 1.85938,2.375 0,1.14062 -0.875,1.84375 -0.85938,0.6875 -1.92188,0.6875 -0.76562,0 -1.75,-0.26563 -0.29687,-0.0937 -0.48437,-0.0937 -0.21875,0 -0.32813,0.23438 h -0.29687 v -2.96875 h 0.29687 q 0.25,1.26562 0.96875,1.92187 0.71875,0.64063 1.60938,0.64063 0.64062,0 1.03125,-0.35938 0.39062,-0.375 0.39062,-0.90625 0,-0.625 -0.4375,-1.04687 -0.4375,-0.4375 -1.76562,-1.09375 -1.3125,-0.65625 -1.71875,-1.17188 -0.42188,-0.53125 -0.42188,-1.3125 0,-1.03125 0.70313,-1.71875 0.71875,-0.70312 1.82812,-0.70312 0.5,0 1.20313,0.21875 0.45312,0.125 0.60937,0.125 0.15625,0 0.23438,-0.0625 0.0781,-0.0625 0.1875,-0.28125 z m 10.62747,0 q 1.89063,0 3.03125,1.4375 0.98438,1.23437 0.98438,2.82812 0,1.125 -0.54688,2.28125 -0.53125,1.14063 -1.48437,1.71875 -0.9375,0.57813 -2.09375,0.57813 -1.89063,0 -3,-1.5 -0.9375,-1.26563 -0.9375,-2.84375 0,-1.14063 0.5625,-2.26563 0.57812,-1.14062 1.5,-1.6875 0.9375,-0.54687 1.98437,-0.54687 z m -0.29687,0.59375 q -0.46875,0 -0.96875,0.29687 -0.48438,0.28125 -0.78125,1 -0.29688,0.71875 -0.29688,1.84375 0,1.82813 0.71875,3.15625 0.71875,1.3125 1.90625,1.3125 0.89063,0 1.45313,-0.71875 0.57812,-0.73437 0.57812,-2.51562 0,-2.21875 -0.95312,-3.5 -0.64063,-0.875 -1.65625,-0.875 z m 8.79687,0.3125 v 5.48437 q 0,1.17188 0.25,1.46875 0.34375,0.40625 0.90625,0.40625 h 0.75 v 0.32813 h -4.96875 v -0.32813 h 0.35938 q 0.375,0 0.67187,-0.17187 0.29688,-0.1875 0.40625,-0.5 0.125,-0.3125 0.125,-1.20313 v -5.48437 h -1.625 v -0.65625 h 1.625 v -0.54688 q 0,-1.25 0.39063,-2.10937 0.40625,-0.875 1.23437,-1.40625 0.82813,-0.53125 1.85938,-0.53125 0.95312,0 1.75,0.625 0.53125,0.40625 0.53125,0.92187 0,0.26563 -0.23438,0.51563 -0.23437,0.23437 -0.51562,0.23437 -0.20313,0 -0.4375,-0.14062 -0.23438,-0.15625 -0.57813,-0.65625 -0.32812,-0.5 -0.60937,-0.67188 -0.28125,-0.17187 -0.64063,-0.17187 -0.40625,0 -0.70312,0.23437 -0.29688,0.21875 -0.42188,0.6875 -0.125,0.46875 -0.125,2.40625 v 0.60938 h 2.15625 v 0.65625 z m 7.28299,-0.65625 h 3.92188 v 0.34375 q -0.375,0 -0.53125,0.125 -0.14063,0.125 -0.14063,0.32812 0,0.21875 0.3125,0.67188 0.10938,0.15625 0.3125,0.46875 l 0.57813,0.9375 0.6875,-0.9375 q 0.65625,-0.90625 0.65625,-1.14063 0,-0.20312 -0.15625,-0.32812 -0.15625,-0.125 -0.5,-0.125 v -0.34375 h 2.82812 v 0.34375 q -0.45312,0.0156 -0.78125,0.23437 -0.4375,0.3125 -1.21875,1.35938 l -1.14062,1.51562 2.07812,2.98438 q 0.76563,1.10937 1.09375,1.32812 0.32813,0.21875 0.84375,0.25 v 0.32813 h -3.92187 v -0.32813 q 0.40625,0 0.625,-0.1875 0.17187,-0.125 0.17187,-0.32812 0,-0.21875 -0.57812,-1.0625 l -1.21875,-1.78125 -1.34375,1.78125 q -0.60938,0.82812 -0.60938,0.98437 0,0.21875 0.20313,0.40625 0.20312,0.17188 0.60937,0.1875 v 0.32813 h -2.71875 v -0.32813 q 0.32813,-0.0469 0.57813,-0.23437 0.34375,-0.25 1.15625,-1.34375 l 1.75,-2.32813 -1.57813,-2.28125 q -0.67187,-0.98437 -1.04687,-1.23437 -0.375,-0.25 -0.92188,-0.25 z"
       fill-rule="nonzero"
       id="path95" />
    <path
       fill="#000000"
       d="m 481.9229,249.45572 q -0.21875,1.09375 -0.875,1.6875 -0.65625,0.59375 -1.45312,0.59375 -0.95313,0 -1.65625,-0.79687 -0.70313,-0.79688 -0.70313,-2.15625 0,-1.3125 0.78125,-2.125 0.78125,-0.82813 1.875,-0.82813 0.82813,0 1.34375,0.4375 0.53125,0.4375 0.53125,0.90625 0,0.23438 -0.15625,0.375 -0.14062,0.14063 -0.40625,0.14063 -0.35937,0 -0.54687,-0.23438 -0.0937,-0.125 -0.125,-0.48437 -0.0312,-0.35938 -0.25,-0.54688 -0.21875,-0.17187 -0.59375,-0.17187 -0.60938,0 -0.96875,0.4375 -0.5,0.59375 -0.5,1.57812 0,1 0.48437,1.76563 0.5,0.75 1.32813,0.75 0.59375,0 1.0625,-0.40625 0.34375,-0.28125 0.65625,-1.01563 z"
       fill-rule="nonzero"
       id="path97" />
    <path
       fill="#000000"
       fill-opacity="0"
       d="M 330.0866,238.65297 H 280.00786"
       fill-rule="evenodd"
       id="path99" />
    <path
       stroke="#595959"
       stroke-width="1"
       stroke-linejoin="round"
       stroke-linecap="butt"
       d="M 330.0866,238.65297 H 286.00786"
       fill-rule="evenodd"
       id="path101" />
    <path
       fill="#595959"
       stroke="#595959"
       stroke-width="1"
       stroke-linecap="butt"
       d="m 286.00787,237.00124 -4.53809,1.65173 4.53809,1.65174 z"
       fill-rule="evenodd"
       id="path103" />
    <path
       fill="#000000"
       fill-opacity="0"
       d="m 114.43832,380.3799 v 65.5433"
       fill-rule="evenodd"
       id="path105" />
    <path
       stroke="#595959"
       stroke-width="1"
       stroke-linejoin="round"
       stroke-linecap="butt"
       d="m 114.43832,380.37988 v 59.5433"
       fill-rule="evenodd"
       id="path107" />
    <path
       fill="#595959"
       stroke="#595959"
       stroke-width="1"
       stroke-linecap="butt"
       d="m 112.78659,439.9232 1.65173,4.53809 1.65173,-4.53809 z"
       fill-rule="evenodd"
       id="path109" />
    <path
       fill="#000000"
       fill-opacity="0"
       d="M -6.5511813,387.75592 H 114.42519 v 42.01575 H -6.5511813 Z"
       fill-rule="evenodd"
       id="path111" />
    <path
       fill="#000000"
       d="M 26.338375,414.6759 H 23.0415 l -4.1875,-5.78125 q -0.453125,0.0312 -0.75,0.0312 -0.125,0 -0.265625,0 -0.125,-0.0156 -0.28125,-0.0312 v 3.59375 q 0,1.17188 0.265625,1.45313 0.34375,0.39062 1.03125,0.39062 h 0.484375 v 0.34375 h -5.296874 v -0.34375 h 0.46875 q 0.78125,0 1.125,-0.5 0.1875,-0.28125 0.1875,-1.34375 v -7.98437 q 0,-1.15625 -0.25,-1.4375 -0.359375,-0.40625 -1.0625,-0.40625 h -0.46875 v -0.34375 H 18.5415 q 1.96875,0 2.90625,0.29687 0.9375,0.28125 1.578125,1.0625 0.65625,0.76563 0.65625,1.82813 0,1.14062 -0.75,1.98437 -0.734375,0.82813 -2.28125,1.17188 l 2.546875,3.54687 q 0.875,1.21875 1.5,1.625 0.625,0.39063 1.640625,0.5 z m -8.78125,-6.34375 q 0.1875,0 0.3125,0 0.125,0 0.203125,0 1.765625,0 2.65625,-0.76562 0.90625,-0.76563 0.90625,-1.95313 0,-1.15625 -0.734375,-1.875 -0.71875,-0.71875 -1.90625,-0.71875 -0.53125,0 -1.4375,0.17188 z m 10.599823,1.14063 q 0,1.85937 0.90625,2.92187 0.90625,1.04688 2.140625,1.04688 0.8125,0 1.421875,-0.4375 0.609375,-0.45313 1.015625,-1.54688 l 0.28125,0.17188 q -0.1875,1.25 -1.109375,2.28125 -0.921875,1.01562 -2.296875,1.01562 -1.515625,0 -2.59375,-1.17187 -1.0625,-1.17188 -1.0625,-3.14063 0,-2.14062 1.09375,-3.32812 1.109375,-1.20313 2.765625,-1.20313 1.40625,0 2.296875,0.92188 0.90625,0.92187 0.90625,2.46875 z m 0,-0.53125 h 3.859375 q -0.04687,-0.79688 -0.1875,-1.125 -0.234375,-0.51563 -0.6875,-0.79688 -0.4375,-0.29687 -0.9375,-0.29687 -0.75,0 -1.34375,0.59375 -0.59375,0.57812 -0.703125,1.625 z m 11.608658,4.53125 q -1.28125,1 -1.609375,1.15625 -0.5,0.21875 -1.046875,0.21875 -0.875,0 -1.4375,-0.59375 -0.546875,-0.59375 -0.546875,-1.5625 0,-0.60938 0.265625,-1.04688 0.375,-0.625 1.296875,-1.17187 0.921875,-0.54688 3.078125,-1.32813 v -0.32812 q 0,-1.25 -0.40625,-1.70313 -0.390625,-0.46875 -1.140625,-0.46875 -0.578125,0 -0.921875,0.3125 -0.34375,0.29688 -0.34375,0.70313 l 0.01563,0.53125 q 0,0.42187 -0.21875,0.65625 -0.203125,0.21875 -0.546875,0.21875 -0.34375,0 -0.5625,-0.23438 -0.203125,-0.23437 -0.203125,-0.65625 0,-0.78125 0.796875,-1.4375 0.8125,-0.65625 2.25,-0.65625 1.109375,0 1.828125,0.375 0.53125,0.28125 0.796875,0.89063 0.15625,0.39062 0.15625,1.59375 v 2.84375 q 0,1.1875 0.04687,1.45312 0.04687,0.26563 0.140625,0.35938 0.109375,0.0937 0.25,0.0937 0.140625,0 0.25,-0.0625 0.203125,-0.125 0.75,-0.67188 v 0.51563 q -1.03125,1.35937 -1.953125,1.35937 -0.453125,0 -0.71875,-0.29687 -0.265625,-0.3125 -0.265625,-1.0625 z m 0,-0.59375 v -3.17188 q -1.375,0.54688 -1.78125,0.76563 -0.71875,0.40625 -1.03125,0.84375 -0.296875,0.4375 -0.296875,0.95312 0,0.65625 0.390625,1.09375 0.390625,0.42188 0.890625,0.42188 0.703125,0 1.828125,-0.90625 z m 6.421158,-11.15625 v 11.0625 q 0,0.78125 0.109375,1.04687 0.125,0.25 0.359375,0.39063 0.234375,0.125 0.875,0.125 v 0.32812 h -4.09375 v -0.32812 q 0.578125,0 0.78125,-0.10938 0.21875,-0.125 0.328125,-0.39062 0.125,-0.28125 0.125,-1.0625 v -7.57813 q 0,-1.40625 -0.0625,-1.73437 -0.0625,-0.32813 -0.203125,-0.4375 -0.140625,-0.125 -0.359375,-0.125 -0.234375,0 -0.609375,0.15625 l -0.140625,-0.32813 2.484375,-1.01562 z m 11.706741,11.75 q -1.28125,1 -1.609375,1.15625 -0.5,0.21875 -1.046875,0.21875 -0.875,0 -1.4375,-0.59375 -0.546875,-0.59375 -0.546875,-1.5625 0,-0.60938 0.265625,-1.04688 0.375,-0.625 1.296875,-1.17187 0.921875,-0.54688 3.078125,-1.32813 v -0.32812 q 0,-1.25 -0.40625,-1.70313 -0.390625,-0.46875 -1.140625,-0.46875 -0.578125,0 -0.921875,0.3125 -0.34375,0.29688 -0.34375,0.70313 l 0.01563,0.53125 q 0,0.42187 -0.21875,0.65625 -0.203125,0.21875 -0.546875,0.21875 -0.34375,0 -0.5625,-0.23438 -0.203125,-0.23437 -0.203125,-0.65625 0,-0.78125 0.796875,-1.4375 0.8125,-0.65625 2.25,-0.65625 1.109375,0 1.828125,0.375 0.53125,0.28125 0.796875,0.89063 0.15625,0.39062 0.15625,1.59375 v 2.84375 q 0,1.1875 0.04687,1.45312 0.04687,0.26563 0.140625,0.35938 0.109375,0.0937 0.25,0.0937 0.140625,0 0.25,-0.0625 0.203125,-0.125 0.75,-0.67188 v 0.51563 q -1.03125,1.35937 -1.953125,1.35937 -0.453125,0 -0.71875,-0.29687 -0.265625,-0.3125 -0.265625,-1.0625 z m 0,-0.59375 v -3.17188 q -1.375,0.54688 -1.78125,0.76563 -0.71875,0.40625 -1.03125,0.84375 -0.296875,0.4375 -0.296875,0.95312 0,0.65625 0.390625,1.09375 0.390625,0.42188 0.890625,0.42188 0.703125,0 1.828125,-0.90625 z m 10.639912,-1.375 q -0.34375,1.65625 -1.328125,2.54687 -0.984375,0.875 -2.171875,0.875 -1.421879,0 -2.484379,-1.1875 -1.046875,-1.1875 -1.046875,-3.21875 0,-1.96875 1.171875,-3.20312 1.171875,-1.23438 2.812504,-1.23438 1.21875,0 2.015625,0.65625 0.796875,0.65625 0.796875,1.34375 0,0.35938 -0.234375,0.57813 -0.21875,0.20312 -0.609375,0.20312 -0.546875,0 -0.8125,-0.34375 -0.15625,-0.1875 -0.21875,-0.71875 -0.04687,-0.54687 -0.359375,-0.82812 -0.328125,-0.28125 -0.890625,-0.28125 -0.90625,0 -1.468754,0.67187 -0.734375,0.90625 -0.734375,2.35938 0,1.5 0.734375,2.64062 0.734379,1.14063 1.984379,1.14063 0.890625,0 1.609375,-0.60938 0.5,-0.42187 0.96875,-1.51562 z m 3.608658,-7.92188 v 2.75 H 74.0952 v 0.64063 h -1.953125 v 5.40625 q 0,0.8125 0.234375,1.09375 0.234375,0.28125 0.59375,0.28125 0.3125,0 0.59375,-0.1875 0.28125,-0.1875 0.4375,-0.54688 h 0.34375 q -0.3125,0.89063 -0.90625,1.34375 -0.578125,0.45313 -1.1875,0.45313 -0.421875,0 -0.828125,-0.23438 -0.390625,-0.23437 -0.59375,-0.65625 -0.1875,-0.4375 -0.1875,-1.34375 v -5.60937 h -1.3125 v -0.29688 q 0.5,-0.20312 1.015625,-0.6875 0.53125,-0.48437 0.9375,-1.125 0.203125,-0.35937 0.578125,-1.28125 z m 4.886429,-1.85937 q 0.390625,0 0.65625,0.26562 0.265625,0.26563 0.265625,0.65625 0,0.375 -0.265625,0.65625 -0.265625,0.26563 -0.65625,0.26563 -0.375,0 -0.65625,-0.26563 -0.265625,-0.28125 -0.265625,-0.65625 0,-0.39062 0.265625,-0.65625 0.265625,-0.26562 0.65625,-0.26562 z m 0.765625,4.35937 v 6.70313 q 0,0.78125 0.109375,1.04687 0.109375,0.26563 0.328125,0.39063 0.234375,0.125 0.828125,0.125 v 0.32812 h -4.0625 v -0.32812 q 0.609375,0 0.8125,-0.10938 0.21875,-0.125 0.34375,-0.39062 0.125,-0.28125 0.125,-1.0625 v -3.20313 q 0,-1.35937 -0.07813,-1.76562 -0.07813,-0.29688 -0.21875,-0.40625 -0.125,-0.10938 -0.359375,-0.10938 -0.265625,0 -0.625,0.14063 l -0.125,-0.32813 2.515625,-1.03125 z m 6.386429,0 q 1.890625,0 3.03125,1.4375 0.984375,1.23438 0.984375,2.82813 0,1.125 -0.546875,2.28125 -0.53125,1.14062 -1.484375,1.71875 -0.9375,0.57812 -2.09375,0.57812 -1.890625,0 -3,-1.5 -0.9375,-1.26562 -0.9375,-2.84375 0,-1.14062 0.5625,-2.26562 0.578125,-1.14063 1.5,-1.6875 0.9375,-0.54688 1.984375,-0.54688 z m -0.296875,0.59375 q -0.46875,0 -0.96875,0.29688 -0.484375,0.28125 -0.78125,1 -0.296875,0.71875 -0.296875,1.84375 0,1.82812 0.71875,3.15625 0.71875,1.3125 1.90625,1.3125 0.890625,0 1.453125,-0.71875 0.578125,-0.73438 0.578125,-2.51563 0,-2.21875 -0.953125,-3.5 -0.640625,-0.875 -1.65625,-0.875 z m 7.96875,1.17188 q 1.46875,-1.76563 2.796875,-1.76563 0.6875,0 1.171875,0.34375 0.5,0.34375 0.78125,1.125 0.203125,0.54688 0.203125,1.67188 v 3.5625 q 0,0.79687 0.125,1.07812 0.109375,0.23438 0.328125,0.35938 0.21875,0.125 0.828125,0.125 v 0.32812 h -4.125 v -0.32812 h 0.171875 q 0.578125,0 0.8125,-0.17188 0.234375,-0.1875 0.328125,-0.53125 0.03125,-0.14062 0.03125,-0.85937 v -3.40625 q 0,-1.14063 -0.296875,-1.65625 -0.296875,-0.51563 -1,-0.51563 -1.078125,0 -2.15625,1.1875 v 4.39063 q 0,0.85937 0.09375,1.04687 0.140625,0.26563 0.359375,0.39063 0.21875,0.125 0.90625,0.125 v 0.32812 h -4.125 v -0.32812 h 0.171875 q 0.640625,0 0.859375,-0.3125 0.234375,-0.32813 0.234375,-1.25 v -3.09375 q 0,-1.5 -0.07813,-1.82813 -0.0625,-0.32812 -0.203125,-0.4375 -0.140625,-0.125 -0.375,-0.125 -0.265625,0 -0.609375,0.14063 l -0.140625,-0.32813 2.515625,-1.03125 h 0.390625 z m 12.281247,-1.76563 v 2.84375 h -0.29687 q -0.34375,-1.34375 -0.89063,-1.8125 -0.53125,-0.48437 -1.375,-0.48437 -0.64062,0 -1.03125,0.34375 -0.39062,0.32812 -0.39062,0.73437 0,0.51563 0.29687,0.875 0.28125,0.375 1.14063,0.79688 l 1.32812,0.64062 q 1.85938,0.90625 1.85938,2.375 0,1.14063 -0.875,1.84375 -0.85938,0.6875 -1.92188,0.6875 -0.76562,0 -1.75,-0.26562 -0.296872,-0.0937 -0.484372,-0.0937 -0.21875,0 -0.328125,0.23437 h -0.296875 v -2.96875 h 0.296875 q 0.25,1.26563 0.968747,1.92188 0.71875,0.64062 1.60938,0.64062 0.64062,0 1.03125,-0.35937 0.39062,-0.375 0.39062,-0.90625 0,-0.625 -0.4375,-1.04688 -0.4375,-0.4375 -1.76562,-1.09375 -1.312502,-0.65625 -1.718752,-1.17187 -0.421875,-0.53125 -0.421875,-1.3125 0,-1.03125 0.703125,-1.71875 0.718752,-0.70313 1.828122,-0.70313 0.5,0 1.20313,0.21875 0.45312,0.125 0.60937,0.125 0.15625,0 0.23438,-0.0625 0.0781,-0.0625 0.1875,-0.28125 z"
       fill-rule="nonzero"
       id="path113" />
    <path
       fill="#000000"
       fill-opacity="0"
       d="m 242.43832,380.3799 v 65.5433"
       fill-rule="evenodd"
       id="path115" />
    <path
       stroke="#595959"
       stroke-width="1"
       stroke-linejoin="round"
       stroke-linecap="butt"
       d="m 242.43832,386.37988 v 59.5433"
       fill-rule="evenodd"
       id="path117" />
    <path
       fill="#595959"
       stroke="#595959"
       stroke-width="1"
       stroke-linecap="butt"
       d="m 244.09006,386.37988 -1.65173,-4.53809 -1.65174,4.53809 z"
       fill-rule="evenodd"
       id="path119" />
    <path
       fill="#000000"
       fill-opacity="0"
       d="m 242.69292,387.75592 h 149.19685 v 42.01575 H 242.69292 Z"
       fill-rule="evenodd"
       id="path121" />
    <path
       fill="#000000"
       d="m 255.59917,403.00403 v 4.875 h 2.70311 q 1.0625,0 1.42187,-0.3125 0.46875,-0.42188 0.51563,-1.48438 h 0.34375 v 4.29688 h -0.34375 q -0.125,-0.89063 -0.25,-1.15625 -0.15625,-0.3125 -0.53125,-0.48438 -0.375,-0.1875 -1.15625,-0.1875 h -2.70311 v 4.0625 q 0,0.82813 0.0625,1 0.0781,0.17188 0.25,0.28125 0.18748,0.10938 0.70311,0.10938 h 2.09375 q 1.04687,0 1.51562,-0.14063 0.48438,-0.15625 0.92188,-0.57812 0.5625,-0.5625 1.15625,-1.70313 h 0.35937 l -1.0625,3.09375 h -9.53123 v -0.34375 h 0.4375 q 0.4375,0 0.84375,-0.20312 0.28125,-0.14063 0.39062,-0.4375 0.10938,-0.29688 0.10938,-1.1875 v -8.03125 q 0,-1.17188 -0.25,-1.45313 -0.32813,-0.35937 -1.09375,-0.35937 h -0.4375 v -0.34375 h 9.53123 l 0.125,2.71875 h -0.34375 q -0.20312,-0.98438 -0.4375,-1.34375 -0.21875,-0.35938 -0.67187,-0.5625 -0.375,-0.125 -1.29688,-0.125 z m 7.73973,3.32812 h 3.92188 v 0.34375 q -0.375,0 -0.53125,0.125 -0.14063,0.125 -0.14063,0.32813 0,0.21875 0.3125,0.67187 0.10938,0.15625 0.3125,0.46875 l 0.57813,0.9375 0.6875,-0.9375 q 0.65625,-0.90625 0.65625,-1.14062 0,-0.20313 -0.15625,-0.32813 -0.15625,-0.125 -0.5,-0.125 v -0.34375 h 2.82812 v 0.34375 q -0.45312,0.0156 -0.78125,0.23438 -0.4375,0.3125 -1.21875,1.35937 l -1.14062,1.51563 2.07812,2.98437 q 0.76563,1.10938 1.09375,1.32813 0.32813,0.21875 0.84375,0.25 v 0.32812 h -3.92187 v -0.32812 q 0.40625,0 0.625,-0.1875 0.17187,-0.125 0.17187,-0.32813 0,-0.21875 -0.57812,-1.0625 l -1.21875,-1.78125 -1.34375,1.78125 q -0.60938,0.82813 -0.60938,0.98438 0,0.21875 0.20313,0.40625 0.20312,0.17187 0.60937,0.1875 v 0.32812 h -2.71875 v -0.32812 q 0.32813,-0.0469 0.57813,-0.23438 0.34375,-0.25 1.15625,-1.34375 l 1.75,-2.32812 -1.57813,-2.28125 q -0.67187,-0.98438 -1.04687,-1.23438 -0.375,-0.25 -0.92188,-0.25 z m 11.0625,3.14063 q 0,1.85937 0.90625,2.92187 0.90625,1.04688 2.14063,1.04688 0.8125,0 1.42187,-0.4375 0.60938,-0.45313 1.01563,-1.54688 l 0.28125,0.17188 q -0.1875,1.25 -1.10938,2.28125 -0.92187,1.01562 -2.29687,1.01562 -1.51563,0 -2.59375,-1.17187 -1.0625,-1.17188 -1.0625,-3.14063 0,-2.14062 1.09375,-3.32812 1.10937,-1.20313 2.76562,-1.20313 1.40625,0 2.29688,0.92188 0.90625,0.92187 0.90625,2.46875 z m 0,-0.53125 h 3.85938 q -0.0469,-0.79688 -0.1875,-1.125 -0.23438,-0.51563 -0.6875,-0.79688 -0.4375,-0.29687 -0.9375,-0.29687 -0.75,0 -1.34375,0.59375 -0.59375,0.57812 -0.70313,1.625 z m 13.96802,2.5625 q -0.34375,1.65625 -1.32813,2.54687 -0.98437,0.875 -2.17187,0.875 -1.42188,0 -2.48438,-1.1875 -1.04687,-1.1875 -1.04687,-3.21875 0,-1.96875 1.17187,-3.20312 1.17188,-1.23438 2.8125,-1.23438 1.21875,0 2.01563,0.65625 0.79687,0.65625 0.79687,1.34375 0,0.35938 -0.23437,0.57813 -0.21875,0.20312 -0.60938,0.20312 -0.54687,0 -0.8125,-0.34375 -0.15625,-0.1875 -0.21875,-0.71875 -0.0469,-0.54687 -0.35937,-0.82812 -0.32813,-0.28125 -0.89063,-0.28125 -0.90625,0 -1.46875,0.67187 -0.73437,0.90625 -0.73437,2.35938 0,1.5 0.73437,2.64062 0.73438,1.14063 1.98438,1.14063 0.89062,0 1.60937,-0.60938 0.5,-0.42187 0.96875,-1.51562 z m 8.4993,-5.17188 v 5.0625 q 0,1.4375 0.0625,1.76563 0.0781,0.32812 0.21875,0.45312 0.15625,0.125 0.35937,0.125 0.28125,0 0.64063,-0.15625 l 0.125,0.3125 -2.48438,1.03125 h -0.42187 v -1.76562 q -1.07813,1.17187 -1.64063,1.46875 -0.5625,0.29687 -1.1875,0.29687 -0.70312,0 -1.21875,-0.40625 -0.51562,-0.40625 -0.71875,-1.03125 -0.1875,-0.64062 -0.1875,-1.8125 v -3.71875 q 0,-0.59375 -0.14062,-0.8125 -0.125,-0.23437 -0.375,-0.35937 -0.25,-0.125 -0.90625,-0.10938 v -0.34375 h 2.92187 v 5.57813 q 0,1.17187 0.40625,1.54687 0.40625,0.35938 0.98438,0.35938 0.39062,0 0.89062,-0.25 0.5,-0.25 1.17188,-0.9375 v -4.73438 q 0,-0.70312 -0.26563,-0.95312 -0.25,-0.25 -1.0625,-0.26563 v -0.34375 z m 4.4375,-2.75 v 2.75 h 1.95312 v 0.64063 h -1.95312 v 5.40625 q 0,0.8125 0.23437,1.09375 0.23438,0.28125 0.59375,0.28125 0.3125,0 0.59375,-0.1875 0.28125,-0.1875 0.4375,-0.54688 h 0.34375 q -0.3125,0.89063 -0.90625,1.34375 -0.57812,0.45313 -1.1875,0.45313 -0.42187,0 -0.82812,-0.23438 -0.39063,-0.23437 -0.59375,-0.65625 -0.1875,-0.4375 -0.1875,-1.34375 v -5.60937 h -1.3125 v -0.29688 q 0.5,-0.20312 1.01562,-0.6875 0.53125,-0.48437 0.9375,-1.125 0.20313,-0.35937 0.57813,-1.28125 z m 4.88641,-1.85937 q 0.39063,0 0.65625,0.26562 0.26563,0.26563 0.26563,0.65625 0,0.375 -0.26563,0.65625 -0.26562,0.26563 -0.65625,0.26563 -0.375,0 -0.65625,-0.26563 -0.26562,-0.28125 -0.26562,-0.65625 0,-0.39062 0.26562,-0.65625 0.26563,-0.26562 0.65625,-0.26562 z m 0.76563,4.35937 v 6.70313 q 0,0.78125 0.10937,1.04687 0.10938,0.26563 0.32813,0.39063 0.23437,0.125 0.82812,0.125 v 0.32812 h -4.0625 v -0.32812 q 0.60938,0 0.8125,-0.10938 0.21875,-0.125 0.34375,-0.39062 0.125,-0.28125 0.125,-1.0625 v -3.20313 q 0,-1.35937 -0.0781,-1.76562 -0.0781,-0.29688 -0.21875,-0.40625 -0.125,-0.10938 -0.35938,-0.10938 -0.26562,0 -0.625,0.14063 l -0.125,-0.32813 2.51563,-1.03125 z m 6.38644,0 q 1.89062,0 3.03125,1.4375 0.98437,1.23438 0.98437,2.82813 0,1.125 -0.54687,2.28125 -0.53125,1.14062 -1.48438,1.71875 -0.9375,0.57812 -2.09375,0.57812 -1.89062,0 -3,-1.5 -0.9375,-1.26562 -0.9375,-2.84375 0,-1.14062 0.5625,-2.26562 0.57813,-1.14063 1.5,-1.6875 0.9375,-0.54688 1.98438,-0.54688 z m -0.29688,0.59375 q -0.46875,0 -0.96875,0.29688 -0.48437,0.28125 -0.78125,1 -0.29687,0.71875 -0.29687,1.84375 0,1.82812 0.71875,3.15625 0.71875,1.3125 1.90625,1.3125 0.89062,0 1.45312,-0.71875 0.57813,-0.73438 0.57813,-2.51563 0,-2.21875 -0.95313,-3.5 -0.64062,-0.875 -1.65625,-0.875 z m 7.96875,1.17188 q 1.46875,-1.76563 2.79688,-1.76563 0.6875,0 1.17187,0.34375 0.5,0.34375 0.78125,1.125 0.20313,0.54688 0.20313,1.67188 v 3.5625 q 0,0.79687 0.125,1.07812 0.10937,0.23438 0.32812,0.35938 0.21875,0.125 0.82813,0.125 v 0.32812 h -4.125 v -0.32812 h 0.17187 q 0.57813,0 0.8125,-0.17188 0.23438,-0.1875 0.32813,-0.53125 0.0312,-0.14062 0.0312,-0.85937 v -3.40625 q 0,-1.14063 -0.29688,-1.65625 -0.29687,-0.51563 -1,-0.51563 -1.07812,0 -2.15625,1.1875 v 4.39063 q 0,0.85937 0.0937,1.04687 0.14063,0.26563 0.35938,0.39063 0.21875,0.125 0.90625,0.125 v 0.32812 h -4.125 v -0.32812 h 0.17187 q 0.64063,0 0.85938,-0.3125 0.23437,-0.32813 0.23437,-1.25 v -3.09375 q 0,-1.5 -0.0781,-1.82813 -0.0625,-0.32812 -0.20313,-0.4375 -0.14062,-0.125 -0.375,-0.125 -0.26562,0 -0.60937,0.14063 l -0.14063,-0.32813 2.51563,-1.03125 h 0.39062 z m 13.97657,-4.26563 v 2.75 h 1.95312 v 0.64063 h -1.95312 v 5.40625 q 0,0.8125 0.23437,1.09375 0.23438,0.28125 0.59375,0.28125 0.3125,0 0.59375,-0.1875 0.28125,-0.1875 0.4375,-0.54688 h 0.34375 q -0.3125,0.89063 -0.90625,1.34375 -0.57812,0.45313 -1.1875,0.45313 -0.42187,0 -0.82812,-0.23438 -0.39063,-0.23437 -0.59375,-0.65625 -0.1875,-0.4375 -0.1875,-1.34375 v -5.60937 h -1.3125 v -0.29688 q 0.5,-0.20312 1.01562,-0.6875 0.53125,-0.48437 0.9375,-1.125 0.20313,-0.35937 0.57813,-1.28125 z m 4.88641,-1.85937 q 0.39063,0 0.65625,0.26562 0.26563,0.26563 0.26563,0.65625 0,0.375 -0.26563,0.65625 -0.26562,0.26563 -0.65625,0.26563 -0.375,0 -0.65625,-0.26563 -0.26562,-0.28125 -0.26562,-0.65625 0,-0.39062 0.26562,-0.65625 0.26563,-0.26562 0.65625,-0.26562 z m 0.76563,4.35937 v 6.70313 q 0,0.78125 0.10937,1.04687 0.10938,0.26563 0.32813,0.39063 0.23437,0.125 0.82812,0.125 v 0.32812 h -4.0625 v -0.32812 q 0.60938,0 0.8125,-0.10938 0.21875,-0.125 0.34375,-0.39062 0.125,-0.28125 0.125,-1.0625 v -3.20313 q 0,-1.35937 -0.0781,-1.76562 -0.0781,-0.29688 -0.21875,-0.40625 -0.125,-0.10938 -0.35938,-0.10938 -0.26562,0 -0.625,0.14063 l -0.125,-0.32813 2.51563,-1.03125 z m 4.77706,1.78125 q 0.90625,-0.90625 1.07813,-1.04687 0.40625,-0.34375 0.875,-0.53125 0.48437,-0.20313 0.9375,-0.20313 0.78125,0 1.34375,0.46875 0.57812,0.45313 0.76562,1.3125 0.9375,-1.09375 1.57813,-1.4375 0.65625,-0.34375 1.34375,-0.34375 0.65625,0 1.17187,0.34375 0.51563,0.34375 0.8125,1.125 0.20313,0.51563 0.20313,1.65625 v 3.57813 q 0,0.78125 0.125,1.07812 0.0781,0.20313 0.32812,0.34375 0.25,0.14063 0.79688,0.14063 v 0.32812 h -4.10938 v -0.32812 h 0.17188 q 0.53125,0 0.84375,-0.20313 0.20312,-0.15625 0.29687,-0.46875 0.0312,-0.15625 0.0312,-0.89062 v -3.57813 q 0,-1.03125 -0.23437,-1.45312 -0.35938,-0.57813 -1.14063,-0.57813 -0.48437,0 -0.98437,0.25 -0.48438,0.23438 -1.17188,0.89063 l -0.0156,0.0937 0.0156,0.40625 v 3.96875 q 0,0.85937 0.0937,1.07812 0.0937,0.20313 0.35938,0.34375 0.26562,0.14063 0.90625,0.14063 v 0.32812 h -4.21875 v -0.32812 q 0.6875,0 0.95312,-0.15625 0.26563,-0.17188 0.35938,-0.5 0.0469,-0.15625 0.0469,-0.90625 v -3.57813 q 0,-1.03125 -0.29687,-1.46875 -0.40625,-0.59375 -1.125,-0.59375 -0.5,0 -0.96875,0.26563 -0.76563,0.40625 -1.17188,0.90625 v 4.46875 q 0,0.82812 0.10938,1.07812 0.10937,0.23438 0.32812,0.35938 0.23438,0.125 0.92188,0.125 v 0.32812 h -4.125 v -0.32812 q 0.5625,0 0.79687,-0.125 0.23438,-0.125 0.34375,-0.39063 0.125,-0.26562 0.125,-1.04687 v -3.1875 q 0,-1.375 -0.0937,-1.76563 -0.0625,-0.3125 -0.20312,-0.42187 -0.125,-0.10938 -0.35938,-0.10938 -0.26562,0 -0.60937,0.14063 l -0.14063,-0.32813 2.51563,-1.03125 h 0.39062 z m 13.43329,1.60938 q 0,1.85937 0.90625,2.92187 0.90625,1.04688 2.14063,1.04688 0.8125,0 1.42187,-0.4375 0.60938,-0.45313 1.01563,-1.54688 l 0.28125,0.17188 q -0.1875,1.25 -1.10938,2.28125 -0.92187,1.01562 -2.29687,1.01562 -1.51563,0 -2.59375,-1.17187 -1.0625,-1.17188 -1.0625,-3.14063 0,-2.14062 1.09375,-3.32812 1.10937,-1.20313 2.76562,-1.20313 1.40625,0 2.29688,0.92188 0.90625,0.92187 0.90625,2.46875 z m 0,-0.53125 h 3.85938 q -0.0469,-0.79688 -0.1875,-1.125 -0.23438,-0.51563 -0.6875,-0.79688 -0.4375,-0.29687 -0.9375,-0.29687 -0.75,0 -1.34375,0.59375 -0.59375,0.57812 -0.70313,1.625 z m 12.26493,-2.85938 v 2.84375 h -0.29688 q -0.34375,-1.34375 -0.89062,-1.8125 -0.53125,-0.48437 -1.375,-0.48437 -0.64063,0 -1.03125,0.34375 -0.39063,0.32812 -0.39063,0.73437 0,0.51563 0.29688,0.875 0.28125,0.375 1.14062,0.79688 l 1.32813,0.64062 q 1.85937,0.90625 1.85937,2.375 0,1.14063 -0.875,1.84375 -0.85937,0.6875 -1.92187,0.6875 -0.76563,0 -1.75,-0.26562 -0.29688,-0.0937 -0.48438,-0.0937 -0.21875,0 -0.32812,0.23437 h -0.29688 v -2.96875 h 0.29688 q 0.25,1.26563 0.96875,1.92188 0.71875,0.64062 1.60937,0.64062 0.64063,0 1.03125,-0.35937 0.39063,-0.375 0.39063,-0.90625 0,-0.625 -0.4375,-1.04688 -0.4375,-0.4375 -1.76563,-1.09375 -1.3125,-0.65625 -1.71875,-1.17187 -0.42187,-0.53125 -0.42187,-1.3125 0,-1.03125 0.70312,-1.71875 0.71875,-0.70313 1.82813,-0.70313 0.5,0 1.20312,0.21875 0.45313,0.125 0.60938,0.125 0.15625,0 0.23437,-0.0625 0.0781,-0.0625 0.1875,-0.28125 z"
       fill-rule="nonzero"
       id="path123" />
  </g>
</svg>
