<svg version="1.1" viewBox="0.0 0.0 960.0 540.0" fill="none" stroke="none" stroke-linecap="square" stroke-miterlimit="10" xmlns:xlink="http://www.w3.org/1999/xlink" xmlns="http://www.w3.org/2000/svg"><clipPath id="g1c564ea6a0b_0_13.0"><path d="m0 0l960.0 0l0 540.0l-960.0 0l0 -540.0z" clip-rule="nonzero"/></clipPath><g clip-path="url(#g1c564ea6a0b_0_13.0)"><path fill="#ffffff" d="m0 0l960.0 0l0 540.0l-960.0 0z" fill-rule="evenodd"/><path fill="#eeeeee" d="m373.7585 155.05438l-55.87137 -61.984253l-88.12863 0l55.87137 61.984253z" fill-rule="evenodd"/><path stroke="#ffffff" stroke-width="1.0" stroke-linejoin="round" stroke-linecap="butt" d="m373.7585 155.05438l-55.87137 -61.984253l-88.12863 0l55.87137 61.984253z" fill-rule="evenodd"/><path fill="#ffffff" d="m229.77428 154.31422l0 -61.984253l144.00002 61.984253z" fill-rule="evenodd"/><path stroke="#ffffff" stroke-width="1.0" stroke-linejoin="round" stroke-linecap="butt" d="m229.77428 154.31422l0 -61.984253l144.00002 61.984253z" fill-rule="evenodd"/><path fill="#000000" fill-opacity="0.0" d="m96.23097 91.858025l269.54333 0.472435" fill-rule="evenodd"/><path stroke="#595959" stroke-width="2.0" stroke-linejoin="round" stroke-linecap="butt" d="m96.23097 91.858025l269.54333 0.472435" fill-rule="evenodd"/><path fill="#000000" fill-opacity="0.0" d="m209.00262 50.314716l41.543304 0l0 42.015743l-41.543304 0z" fill-rule="evenodd"/><path fill="#000000" d="m233.86021 68.98471l-1.765625 6.1875l-0.203125 0.828125q-0.03125 0.109375 -0.03125 0.203125q0 0.140625 0.09375 0.25q0.078125 0.078125 0.171875 0.078125q0.125 0 0.3125 -0.140625q0.359375 -0.265625 0.953125 -1.09375l0.3125 0.21875q-0.625 0.9375 -1.296875 1.4375q-0.671875 0.5 -1.234375 0.5q-0.390625 0 -0.59375 -0.203125q-0.1875 -0.1875 -0.1875 -0.5625q0 -0.453125 0.203125 -1.171875l0.1875 -0.6875q-1.1875 1.5625 -2.1875 2.171875q-0.71875 0.453125 -1.421875 0.453125q-0.65625 0 -1.140625 -0.546875q-0.484375 -0.5625 -0.484375 -1.515625q0 -1.453125 0.859375 -3.0625q0.875 -1.609375 2.21875 -2.578125q1.046875 -0.765625 1.984375 -0.765625q0.546875 0 0.90625 0.296875q0.375 0.296875 0.578125 0.96875l0.328125 -1.046875l1.4375 -0.21875zm-3.234375 0.484375q-0.59375 0 -1.25 0.546875q-0.921875 0.765625 -1.65625 2.296875q-0.71875 1.515625 -0.71875 2.75q0 0.609375 0.3125 0.96875q0.3125 0.359375 0.71875 0.359375q0.984375 0 2.15625 -1.46875q1.546875 -1.9375 1.546875 -3.984375q0 -0.78125 -0.296875 -1.125q-0.296875 -0.34375 -0.8125 -0.34375z" fill-rule="nonzero"/><path fill="#000000" fill-opacity="0.0" d="m345.00262 50.314716l41.543304 0l0 42.015743l-41.543304 0z" fill-rule="evenodd"/><path fill="#000000" d="m366.50085 64.281586l-1.796875 6.296875q0.875 -0.90625 1.515625 -1.25q0.65625 -0.34375 1.375 -0.34375q1.0 0 1.625 0.671875q0.640625 0.65625 0.640625 1.796875q0 1.46875 -0.84375 2.921875q-0.828125 1.453125 -2.09375 2.265625q-1.265625 0.8125 -2.5 0.8125q-1.375 0 -2.828125 -1.03125l2.78125 -9.53125q0.3125 -1.109375 0.3125 -1.296875q0 -0.234375 -0.140625 -0.359375q-0.21875 -0.15625 -0.625 -0.15625q-0.1875 0 -0.578125 0.0625l0 -0.34375l3.15625 -0.515625zm-3.53125 12.25q0.90625 0.5 1.609375 0.5q0.796875 0 1.65625 -0.59375q0.859375 -0.59375 1.484375 -1.984375q0.640625 -1.390625 0.640625 -2.8125q0 -0.84375 -0.421875 -1.3125q-0.40625 -0.46875 -0.96875 -0.46875q-0.84375 0 -1.65625 0.6875q-0.8125 0.671875 -1.15625 1.875l-1.1875 4.109375z" fill-rule="nonzero"/><path fill="#000000" fill-opacity="0.0" d="m280.23096 195.85802l229.54333 0.47244263" fill-rule="evenodd"/><path stroke="#595959" stroke-width="2.0" stroke-linejoin="round" stroke-linecap="butt" d="m280.23096 195.85802l229.54333 0.47244263" fill-rule="evenodd"/><path fill="#000000" fill-opacity="0.0" d="m353.00262 154.31471l41.543304 0l0 42.015747l-41.543304 0z" fill-rule="evenodd"/><path fill="#000000" d="m377.73523 175.84409q0 1.359375 -0.734375 2.703125q-0.71875 1.34375 -2.015625 2.125q-1.28125 0.78125 -2.5 0.78125q-1.25 0 -2.046875 -0.796875q-0.78125 -0.796875 -0.78125 -2.0625q0 -1.34375 0.765625 -2.6875q0.78125 -1.34375 2.0625 -2.125q1.296875 -0.796875 2.484375 -0.796875q1.203125 0 1.984375 0.796875q0.78125 0.796875 0.78125 2.0625zm-1.515625 -0.625q0 -0.859375 -0.421875 -1.296875q-0.40625 -0.453125 -1.0625 -0.453125q-1.328125 0 -2.453125 1.921875q-1.125 1.90625 -1.125 3.796875q0 0.875 0.4375 1.34375q0.4375 0.46875 1.09375 0.46875q1.28125 0 2.40625 -1.90625q1.125 -1.90625 1.125 -3.875z" fill-rule="nonzero"/><path fill="#000000" fill-opacity="0.0" d="m317.7743 92.33046l56.0 61.984253" fill-rule="evenodd"/><path stroke="#595959" stroke-width="1.0" stroke-linejoin="round" stroke-linecap="butt" stroke-dasharray="4.0,3.0" d="m317.7743 92.33046l56.0 61.984253" fill-rule="evenodd"/><path fill="#000000" fill-opacity="0.0" d="m229.77428 92.33046l144.00002 61.984253" fill-rule="evenodd"/><path stroke="#595959" stroke-width="1.0" stroke-linejoin="round" stroke-linecap="butt" stroke-dasharray="4.0,3.0" d="m229.77428 92.33046l144.00002 61.984253" fill-rule="evenodd"/><path fill="#000000" fill-opacity="0.0" d="m4.9265094 18.938896l229.5433 0l0 45.259842l-229.5433 0z" fill-rule="evenodd"/><path fill="#000000" d="m23.692135 43.68452l-5.46875 0l-0.96875 2.234375q-0.34375 0.828125 -0.34375 1.234375q0 0.3125 0.296875 0.5625q0.3125 0.25 1.328125 0.3125l0 0.390625l-4.437501 0l0 -0.390625q0.875 -0.15625 1.140625 -0.40625q0.53125 -0.5 1.171876 -2.03125l4.96875 -11.609375l0.375 0l4.90625 11.734375q0.59375 1.421875 1.078125 1.84375q0.484375 0.421875 1.34375 0.46875l0 0.390625l-5.5625 0l0 -0.390625q0.84375 -0.03125 1.140625 -0.265625q0.296875 -0.25 0.296875 -0.59375q0 -0.453125 -0.421875 -1.453125l-0.84375 -2.03125zm-0.296875 -0.765625l-2.390625 -5.703125l-2.46875 5.703125l4.859375 0zm12.761871 -4.328125l0 3.25l-0.34375 0q-0.390625 -1.53125 -1.015625 -2.078125q-0.609375 -0.546875 -1.578125 -0.546875q-0.71875 0 -1.171875 0.390625q-0.453125 0.375 -0.453125 0.84375q0 0.578125 0.34375 1.0q0.3125 0.421875 1.3125 0.90625l1.515625 0.734375q2.109375 1.03125 2.109375 2.71875q0 1.3125 -0.984375 2.109375q-0.984375 0.796875 -2.203125 0.796875q-0.875 0 -2.0 -0.3125q-0.34375 -0.109375 -0.5625 -0.109375q-0.234375 0 -0.375 0.265625l-0.34375 0l0 -3.40625l0.34375 0q0.296875 1.46875 1.109375 2.203125q0.828125 0.734375 1.859375 0.734375q0.71875 0 1.171875 -0.421875q0.453125 -0.421875 0.453125 -1.015625q0 -0.71875 -0.515625 -1.203125q-0.5 -0.484375 -2.015625 -1.234375q-1.5 -0.75 -1.96875 -1.359375q-0.46875 -0.59375 -0.46875 -1.5q0 -1.171875 0.796875 -1.96875q0.8125 -0.796875 2.09375 -0.796875q0.5625 0 1.359375 0.25q0.53125 0.15625 0.71875 0.15625q0.15625 0 0.25 -0.078125q0.09375 -0.078125 0.21875 -0.328125l0.34375 0zm8.300064 0l0 3.25l-0.34375 0q-0.390625 -1.53125 -1.015625 -2.078125q-0.609375 -0.546875 -1.578125 -0.546875q-0.71875 0 -1.171875 0.390625q-0.453125 0.375 -0.453125 0.84375q0 0.578125 0.34375 1.0q0.3125 0.421875 1.3125 0.90625l1.515625 0.734375q2.109375 1.03125 2.109375 2.71875q0 1.3125 -0.984375 2.109375q-0.984375 0.796875 -2.203125 0.796875q-0.875 0 -2.0 -0.3125q-0.34375 -0.109375 -0.5625 -0.109375q-0.234375 0 -0.375 0.265625l-0.34375 0l0 -3.40625l0.34375 0q0.296875 1.46875 1.109375 2.203125q0.828125 0.734375 1.859375 0.734375q0.71875 0 1.171875 -0.421875q0.453125 -0.421875 0.453125 -1.015625q0 -0.71875 -0.515625 -1.203125q-0.5 -0.484375 -2.015625 -1.234375q-1.5 -0.75 -1.96875 -1.359375q-0.46875 -0.59375 -0.46875 -1.5q0 -1.171875 0.796875 -1.96875q0.8125 -0.796875 2.09375 -0.796875q0.5625 0 1.359375 0.25q0.53125 0.15625 0.71875 0.15625q0.15625 0 0.25 -0.078125q0.09375 -0.078125 0.21875 -0.328125l0.34375 0zm4.565689 -4.984375q0.4375 0 0.734375 0.3125q0.3125 0.3125 0.3125 0.75q0 0.4375 -0.3125 0.75q-0.296875 0.3125 -0.734375 0.3125q-0.4375 0 -0.75 -0.3125q-0.3125 -0.3125 -0.3125 -0.75q0 -0.4375 0.296875 -0.75q0.3125 -0.3125 0.765625 -0.3125zm0.859375 4.984375l0 7.671875q0 0.890625 0.125 1.1875q0.140625 0.296875 0.390625 0.453125q0.265625 0.140625 0.9375 0.140625l0 0.375l-4.640625 0l0 -0.375q0.703125 0 0.9375 -0.125q0.25 -0.140625 0.390625 -0.453125q0.140625 -0.3125 0.140625 -1.203125l0 -3.671875q0 -1.5625 -0.09375 -2.015625q-0.078125 -0.328125 -0.234375 -0.453125q-0.15625 -0.140625 -0.421875 -0.140625q-0.296875 0 -0.71875 0.15625l-0.140625 -0.375l2.875 -1.171875l0.453125 0zm5.191269 6.34375q-0.875 -0.421875 -1.34375 -1.1875q-0.46875 -0.765625 -0.46875 -1.6875q0 -1.421875 1.0625 -2.4375q1.078125 -1.03125 2.734375 -1.03125q1.375 0 2.375 0.671875l2.015625 0q0.453125 0 0.515625 0.03125q0.078125 0.015625 0.109375 0.078125q0.0625 0.09375 0.0625 0.34375q0 0.265625 -0.046875 0.375q-0.03125 0.046875 -0.109375 0.078125q-0.078125 0.03125 -0.53125 0.03125l-1.234375 0q0.578125 0.75 0.578125 1.921875q0 1.328125 -1.03125 2.28125q-1.015625 0.9375 -2.734375 0.9375q-0.703125 0 -1.4375 -0.203125q-0.46875 0.390625 -0.625 0.6875q-0.15625 0.296875 -0.15625 0.515625q0 0.171875 0.171875 0.34375q0.171875 0.15625 0.671875 0.234375q0.28125 0.046875 1.453125 0.078125q2.140625 0.046875 2.78125 0.140625q0.96875 0.140625 1.546875 0.71875q0.578125 0.578125 0.578125 1.4375q0 1.171875 -1.109375 2.203125q-1.625 1.53125 -4.234375 1.53125q-2.015625 0 -3.390625 -0.90625q-0.78125 -0.53125 -0.78125 -1.09375q0 -0.25 0.109375 -0.5q0.171875 -0.375 0.734375 -1.0625q0.0625 -0.09375 1.0625 -1.125q-0.546875 -0.328125 -0.78125 -0.578125q-0.21875 -0.265625 -0.21875 -0.578125q0 -0.375 0.296875 -0.859375q0.296875 -0.484375 1.375 -1.390625zm1.8125 -5.84375q-0.765625 0 -1.296875 0.625q-0.515625 0.609375 -0.515625 1.875q0 1.65625 0.703125 2.5625q0.546875 0.6875 1.375 0.6875q0.796875 0 1.296875 -0.59375q0.515625 -0.59375 0.515625 -1.875q0 -1.65625 -0.71875 -2.59375q-0.53125 -0.6875 -1.359375 -0.6875zm-1.921875 9.328125q-0.484375 0.53125 -0.734375 0.984375q-0.25 0.46875 -0.25 0.84375q0 0.5 0.609375 0.875q1.03125 0.65625 3.0 0.65625q1.875 0 2.765625 -0.671875q0.890625 -0.65625 0.890625 -1.40625q0 -0.546875 -0.53125 -0.765625q-0.53125 -0.234375 -2.140625 -0.28125q-2.34375 -0.0625 -3.609375 -0.234375zm11.007809 -7.796875q1.671875 -2.03125 3.1875 -2.03125q0.78125 0 1.34375 0.390625q0.5625 0.390625 0.90625 1.296875q0.21875 0.625 0.21875 1.90625l0 4.078125q0 0.90625 0.15625 1.234375q0.109375 0.25 0.359375 0.40625q0.265625 0.140625 0.953125 0.140625l0 0.375l-4.71875 0l0 -0.375l0.1875 0q0.671875 0 0.9375 -0.203125q0.265625 -0.203125 0.375 -0.59375q0.03125 -0.15625 0.03125 -0.984375l0 -3.90625q0 -1.296875 -0.34375 -1.890625q-0.328125 -0.59375 -1.125 -0.59375q-1.25 0 -2.46875 1.359375l0 5.03125q0 0.96875 0.109375 1.203125q0.140625 0.296875 0.390625 0.4375q0.265625 0.140625 1.046875 0.140625l0 0.375l-4.718746 0l0 -0.375l0.203125 0q0.734375 0 0.984375 -0.359375q0.2656212 -0.375 0.2656212 -1.421875l0 -3.546875q0 -1.71875 -0.078125 -2.09375q-0.078125 -0.375 -0.24999619 -0.5q-0.15625 -0.140625 -0.421875 -0.140625q-0.296875 0 -0.703125 0.15625l-0.15625 -0.375l2.8749962 -1.171875l0.453125 0l0 2.03125zm10.7109375 0q1.046875 -1.03125 1.234375 -1.1875q0.46875 -0.40625 1.0 -0.625q0.546875 -0.21875 1.078125 -0.21875q0.890625 0 1.53125 0.53125q0.65625 0.515625 0.875 1.5q1.078125 -1.25 1.8125 -1.640625q0.734375 -0.390625 1.515625 -0.390625q0.765625 0 1.34375 0.390625q0.59375 0.390625 0.9375 1.28125q0.234375 0.609375 0.234375 1.890625l0 4.109375q0 0.890625 0.125 1.234375q0.109375 0.21875 0.390625 0.390625q0.28125 0.15625 0.921875 0.15625l0 0.375l-4.71875 0l0 -0.375l0.203125 0q0.609375 0 0.953125 -0.234375q0.25 -0.171875 0.34375 -0.53125q0.046875 -0.1875 0.046875 -1.015625l0 -4.109375q0 -1.15625 -0.28125 -1.640625q-0.40625 -0.671875 -1.296875 -0.671875q-0.5625 0 -1.125 0.28125q-0.546875 0.28125 -1.328125 1.03125l-0.03125 0.109375l0.03125 0.453125l0 4.546875q0 0.984375 0.109375 1.21875q0.109375 0.234375 0.40625 0.40625q0.296875 0.15625 1.03125 0.15625l0 0.375l-4.828125 0l0 -0.375q0.796875 0 1.09375 -0.1875q0.296875 -0.1875 0.40625 -0.5625q0.0625 -0.171875 0.0625 -1.03125l0 -4.109375q0 -1.15625 -0.34375 -1.671875q-0.46875 -0.671875 -1.28125 -0.671875q-0.5625 0 -1.125 0.3125q-0.859375 0.453125 -1.328125 1.03125l0 5.109375q0 0.9375 0.125 1.21875q0.140625 0.28125 0.390625 0.421875q0.25 0.140625 1.03125 0.140625l0 0.375l-4.71875 0l0 -0.375q0.65625 0 0.921875 -0.140625q0.265625 -0.140625 0.390625 -0.4375q0.140625 -0.3125 0.140625 -1.203125l0 -3.640625q0 -1.578125 -0.09375 -2.03125q-0.078125 -0.34375 -0.234375 -0.46875q-0.15625 -0.140625 -0.421875 -0.140625q-0.296875 0 -0.703125 0.15625l-0.15625 -0.375l2.875 -1.171875l0.453125 0l0 2.03125zm15.355331 1.84375q0 2.125 1.03125 3.34375q1.046875 1.203125 2.453125 1.203125q0.9375 0 1.625 -0.515625q0.703125 -0.515625 1.171875 -1.765625l0.3125 0.203125q-0.21875 1.4375 -1.265625 2.609375q-1.046875 1.171875 -2.640625 1.171875q-1.71875 0 -2.9375 -1.34375q-1.21875 -1.34375 -1.21875 -3.59375q0 -2.453125 1.25 -3.8125q1.25 -1.375 3.15625 -1.375q1.59375 0 2.625 1.0625q1.03125 1.046875 1.03125 2.8125l-6.59375 0zm0 -0.59375l4.421875 0q-0.046875 -0.921875 -0.21875 -1.296875q-0.265625 -0.578125 -0.78125 -0.90625q-0.515625 -0.34375 -1.078125 -0.34375q-0.859375 0 -1.546875 0.671875q-0.671875 0.671875 -0.796875 1.875zm10.653946 -1.25q1.671875 -2.03125 3.1875 -2.03125q0.78125 0 1.34375 0.390625q0.5625 0.390625 0.90625 1.296875q0.21875 0.625 0.21875 1.90625l0 4.078125q0 0.90625 0.15625 1.234375q0.109375 0.25 0.359375 0.40625q0.265625 0.140625 0.953125 0.140625l0 0.375l-4.71875 0l0 -0.375l0.1875 0q0.671875 0 0.9375 -0.203125q0.265625 -0.203125 0.375 -0.59375q0.03125 -0.15625 0.03125 -0.984375l0 -3.90625q0 -1.296875 -0.34375 -1.890625q-0.328125 -0.59375 -1.125 -0.59375q-1.25 0 -2.46875 1.359375l0 5.03125q0 0.96875 0.109375 1.203125q0.140625 0.296875 0.390625 0.4375q0.265625 0.140625 1.046875 0.140625l0 0.375l-4.71875 0l0 -0.375l0.203125 0q0.734375 0 0.984375 -0.359375q0.265625 -0.375 0.265625 -1.421875l0 -3.546875q0 -1.71875 -0.078125 -2.09375q-0.078125 -0.375 -0.25 -0.5q-0.15625 -0.140625 -0.421875 -0.140625q-0.296875 0 -0.703125 0.15625l-0.15625 -0.375l2.875 -1.171875l0.453125 0l0 2.03125zm10.6484375 -4.875l0 3.125l2.234375 0l0 0.734375l-2.234375 0l0 6.1875q0 0.921875 0.265625 1.25q0.265625 0.328125 0.6875 0.328125q0.34375 0 0.65625 -0.21875q0.328125 -0.21875 0.5 -0.625l0.40625 0q-0.359375 1.015625 -1.03125 1.53125q-0.65625 0.515625 -1.375 0.515625q-0.46875 0 -0.9375 -0.265625q-0.453125 -0.265625 -0.671875 -0.75q-0.21875 -0.5 -0.21875 -1.53125l0 -6.421875l-1.515625 0l0 -0.34375q0.578125 -0.234375 1.171875 -0.78125q0.609375 -0.546875 1.078125 -1.28125q0.234375 -0.40625 0.65625 -1.453125l0.328125 0zm9.316269 2.84375l0 3.25l-0.34375 0q-0.390625 -1.53125 -1.015625 -2.078125q-0.609375 -0.546875 -1.578125 -0.546875q-0.71875 0 -1.171875 0.390625q-0.453125 0.375 -0.453125 0.84375q0 0.578125 0.34375 1.0q0.3125 0.421875 1.3125 0.90625l1.515625 0.734375q2.109375 1.03125 2.109375 2.71875q0 1.3125 -0.984375 2.109375q-0.984375 0.796875 -2.203125 0.796875q-0.875 0 -2.0 -0.3125q-0.34375 -0.109375 -0.5625 -0.109375q-0.234375 0 -0.375 0.265625l-0.34375 0l0 -3.40625l0.34375 0q0.296875 1.46875 1.109375 2.203125q0.828125 0.734375 1.859375 0.734375q0.71875 0 1.171875 -0.421875q0.453125 -0.421875 0.453125 -1.015625q0 -0.71875 -0.515625 -1.203125q-0.5 -0.484375 -2.015625 -1.234375q-1.5 -0.75 -1.96875 -1.359375q-0.46875 -0.59375 -0.46875 -1.5q0 -1.171875 0.796875 -1.96875q0.8125 -0.796875 2.09375 -0.796875q0.5625 0 1.359375 0.25q0.53125 0.15625 0.71875 0.15625q0.15625 0 0.25 -0.078125q0.09375 -0.078125 0.21875 -0.328125l0.34375 0zm12.132103 0q2.171875 0 3.484375 1.65625q1.109375 1.40625 1.109375 3.21875q0 1.28125 -0.609375 2.59375q-0.609375 1.3125 -1.6875 1.984375q-1.078125 0.671875 -2.40625 0.671875q-2.15625 0 -3.421875 -1.71875q-1.078125 -1.453125 -1.078125 -3.25q0 -1.3125 0.640625 -2.609375q0.65625 -1.296875 1.71875 -1.921875q1.0625 -0.625 2.25 -0.625zm-0.3125 0.6875q-0.5625 0 -1.125 0.328125q-0.546875 0.328125 -0.890625 1.15625q-0.34375 0.8125 -0.34375 2.109375q0 2.078125 0.828125 3.59375q0.828125 1.5 2.1875 1.5q1.0 0 1.65625 -0.828125q0.65625 -0.828125 0.65625 -2.859375q0 -2.546875 -1.09375 -4.0q-0.734375 -1.0 -1.875 -1.0zm10.0390625 0.34375l0 6.28125q0 1.328125 0.296875 1.6875q0.390625 0.453125 1.03125 0.453125l0.859375 0l0 0.375l-5.6875 0l0 -0.375l0.421875 0q0.421875 0 0.765625 -0.203125q0.34375 -0.21875 0.46875 -0.5625q0.125 -0.359375 0.125 -1.375l0 -6.28125l-1.84375 0l0 -0.75l1.84375 0l0 -0.625q0 -1.421875 0.453125 -2.40625q0.46875 -0.984375 1.40625 -1.59375q0.953125 -0.609375 2.125 -0.609375q1.09375 0 2.015625 0.703125q0.59375 0.46875 0.59375 1.046875q0 0.3125 -0.265625 0.59375q-0.265625 0.28125 -0.578125 0.28125q-0.25 0 -0.515625 -0.171875q-0.265625 -0.171875 -0.65625 -0.734375q-0.375 -0.578125 -0.703125 -0.78125q-0.3125 -0.1875 -0.71875 -0.1875q-0.46875 0 -0.8125 0.25q-0.328125 0.25 -0.484375 0.796875q-0.140625 0.53125 -0.140625 2.75l0 0.6875l2.46875 0l0 0.75l-2.46875 0z" fill-rule="nonzero"/><path fill="#000000" d="m156.24689 38.99702q0.515625 0.53125 0.78125 1.078125q0.1875 0.375 0.609375 1.96875l0.921875 -1.375q0.359375 -0.5 0.875 -0.953125q0.53125 -0.453125 0.921875 -0.625q0.25 -0.09375 0.546875 -0.09375q0.453125 0 0.71875 0.234375q0.265625 0.234375 0.265625 0.578125q0 0.40625 -0.15625 0.546875q-0.296875 0.265625 -0.671875 0.265625q-0.21875 0 -0.46875 -0.09375q-0.484375 -0.171875 -0.65625 -0.171875q-0.25 0 -0.59375 0.296875q-0.640625 0.53125 -1.53125 2.09375l0.84375 3.578125q0.203125 0.828125 0.328125 0.984375q0.140625 0.15625 0.28125 0.15625q0.21875 0 0.515625 -0.234375q0.5625 -0.484375 0.96875 -1.25l0.375 0.1875q-0.65625 1.234375 -1.671875 2.046875q-0.578125 0.453125 -0.96875 0.453125q-0.578125 0 -0.921875 -0.65625q-0.21875 -0.40625 -0.90625 -3.5q-1.625 2.828125 -2.609375 3.640625q-0.640625 0.515625 -1.234375 0.515625q-0.40625 0 -0.75 -0.296875q-0.25 -0.234375 -0.25 -0.625q0 -0.34375 0.234375 -0.5625q0.21875 -0.234375 0.546875 -0.234375q0.34375 0 0.71875 0.328125q0.265625 0.25 0.40625 0.25q0.125 0 0.328125 -0.171875q0.484375 -0.390625 1.328125 -1.703125q0.84375 -1.3125 1.109375 -1.90625q-0.640625 -2.53125 -0.703125 -2.671875q-0.234375 -0.671875 -0.625 -0.953125q-0.375 -0.28125 -1.125 -0.28125q-0.25 0 -0.5625 0.015625l0 -0.375l2.78125 -0.484375z" fill-rule="nonzero"/><path fill="#000000" d="m167.51021 54.90327q-0.71875 0.875 -1.453125 1.28125q-0.734375 0.40625 -1.5625 0.40625q-0.984375 0 -1.53125 -0.546875q-0.546875 -0.5625 -0.546875 -1.5q0 -1.0625 0.59375 -2.09375q0.59375 -1.03125 1.59375 -1.671875q1.0 -0.640625 1.96875 -0.640625q0.75 0 1.125 0.3125q0.375 0.3125 0.375 0.78125q0 0.421875 -0.265625 0.734375q-0.1875 0.234375 -0.46875 0.234375q-0.21875 0 -0.359375 -0.140625q-0.140625 -0.140625 -0.140625 -0.34375q0 -0.140625 0.046875 -0.25q0.046875 -0.109375 0.203125 -0.265625q0.171875 -0.15625 0.203125 -0.21875q0.046875 -0.078125 0.046875 -0.15625q0 -0.140625 -0.140625 -0.234375q-0.203125 -0.140625 -0.5625 -0.140625q-0.6875 0 -1.359375 0.484375q-0.65625 0.46875 -1.125 1.359375q-0.578125 1.0625 -0.578125 2.125q0 0.71875 0.40625 1.140625q0.40625 0.40625 1.09375 0.40625q0.53125 0 1.0625 -0.265625q0.53125 -0.28125 1.171875 -0.96875l0.203125 0.171875z" fill-rule="nonzero"/><path fill="#000000" d="m176.76247 33.606396q0.4375 0 0.734375 0.3125q0.3125 0.3125 0.3125 0.75q0 0.4375 -0.3125 0.75q-0.296875 0.3125 -0.734375 0.3125q-0.4375 0 -0.75 -0.3125q-0.3125 -0.3125 -0.3125 -0.75q0 -0.4375 0.296875 -0.75q0.3125 -0.3125 0.765625 -0.3125zm0.859375 4.984375l0 7.671875q0 0.890625 0.125 1.1875q0.140625 0.296875 0.390625 0.453125q0.265625 0.140625 0.9375 0.140625l0 0.375l-4.640625 0l0 -0.375q0.703125 0 0.9375 -0.125q0.25 -0.140625 0.390625 -0.453125q0.140625 -0.3125 0.140625 -1.203125l0 -3.671875q0 -1.5625 -0.09375 -2.015625q-0.078125 -0.328125 -0.234375 -0.453125q-0.15625 -0.140625 -0.421875 -0.140625q-0.296875 0 -0.71875 0.15625l-0.140625 -0.375l2.875 -1.171875l0.453125 0zm5.425644 2.03125q1.671875 -2.03125 3.1875 -2.03125q0.78125 0 1.34375 0.390625q0.5625 0.390625 0.90625 1.296875q0.21875 0.625 0.21875 1.90625l0 4.078125q0 0.90625 0.15625 1.234375q0.109375 0.25 0.359375 0.40625q0.265625 0.140625 0.953125 0.140625l0 0.375l-4.71875 0l0 -0.375l0.1875 0q0.671875 0 0.9375 -0.203125q0.265625 -0.203125 0.375 -0.59375q0.03125 -0.15625 0.03125 -0.984375l0 -3.90625q0 -1.296875 -0.34375 -1.890625q-0.328125 -0.59375 -1.125 -0.59375q-1.25 0 -2.46875 1.359375l0 5.03125q0 0.96875 0.109375 1.203125q0.140625 0.296875 0.390625 0.4375q0.265625 0.140625 1.046875 0.140625l0 0.375l-4.71875 0l0 -0.375l0.203125 0q0.734375 0 0.984375 -0.359375q0.265625 -0.375 0.265625 -1.421875l0 -3.546875q0 -1.71875 -0.078125 -2.09375q-0.078125 -0.375 -0.25 -0.5q-0.15625 -0.140625 -0.421875 -0.140625q-0.296875 0 -0.703125 0.15625l-0.15625 -0.375l2.875 -1.171875l0.453125 0l0 2.03125z" fill-rule="nonzero"/><path fill="#000000" d="m195.73108 48.74702l1.171875 -5.25l0.359375 0q-0.078125 0.765625 -0.078125 1.265625q0 1.421875 0.90625 2.328125q0.921875 0.890625 2.390625 0.890625q1.359375 0 2.0625 -0.828125q0.71875 -0.84375 0.71875 -1.9375q0 -0.71875 -0.328125 -1.296875q-0.484375 -0.859375 -2.609375 -3.046875q-1.03125 -1.03125 -1.328125 -1.546875q-0.484375 -0.84375 -0.484375 -1.765625q0 -1.484375 1.109375 -2.53125q1.109375 -1.046875 2.828125 -1.046875q0.59375 0 1.109375 0.109375q0.328125 0.0625 1.171875 0.421875q0.609375 0.234375 0.671875 0.25q0.140625 0.03125 0.328125 0.03125q0.296875 0 0.515625 -0.15625q0.21875 -0.15625 0.5 -0.65625l0.40625 0l-1.078125 4.671875l-0.359375 0q0.046875 -0.625 0.046875 -1.0q0 -1.265625 -0.84375 -2.0625q-0.828125 -0.796875 -2.1875 -0.796875q-1.09375 0 -1.765625 0.640625q-0.671875 0.625 -0.671875 1.453125q0 0.734375 0.421875 1.390625q0.4375 0.65625 1.984375 2.15625q1.5625 1.5 2.015625 2.34375q0.46875 0.828125 0.46875 1.78125q0 1.0625 -0.578125 2.078125q-0.5625 1.0 -1.625 1.5625q-1.0625 0.546875 -2.3125 0.546875q-0.625 0 -1.171875 -0.125q-0.546875 -0.109375 -1.734375 -0.5625q-0.40625 -0.15625 -0.671875 -0.15625q-0.609375 0 -0.953125 0.84375l-0.40625 0z" fill-rule="nonzero"/><path fill="#000000" fill-opacity="0.0" d="m4.9265094 157.46384l291.30707 0l0 45.259842l-291.30707 0z" fill-rule="evenodd"/><path fill="#000000" d="m21.723385 172.50633q2.75 0 4.765625 2.09375q2.015625 2.078125 2.015625 5.203125q0 3.21875 -2.03125 5.34375q-2.03125 2.125 -4.90625 2.125q-2.921875 0 -4.90625 -2.078125q-1.984376 -2.078125 -1.984376 -5.359375q0 -3.375 2.296876 -5.484375q1.984375 -1.84375 4.75 -1.84375zm-0.1875 0.75q-1.90625 0 -3.046875 1.40625q-1.421875 1.75 -1.421875 5.125q0 3.453125 1.46875 5.328125q1.140625 1.40625 3.0 1.40625q2.0 0 3.28125 -1.546875q1.296875 -1.546875 1.296875 -4.890625q0 -3.625 -1.421875 -5.40625q-1.140625 -1.421875 -3.15625 -1.421875zm11.074371 5.796875q1.390625 -1.9375 2.984375 -1.9375q1.46875 0 2.5625 1.265625q1.09375 1.25 1.09375 3.421875q0 2.546875 -1.6875 4.09375q-1.4375 1.34375 -3.21875 1.34375q-0.84375 0 -1.703125 -0.296875q-0.859375 -0.3125 -1.75 -0.921875l0 -9.875q0 -1.625 -0.078125 -2.0q-0.078125 -0.375 -0.25 -0.5q-0.15625 -0.140625 -0.40625 -0.140625q-0.296875 0 -0.734375 0.15625l-0.140625 -0.359375l2.859375 -1.171875l0.46875 0l0 6.921875zm0 0.65625l0 5.71875q0.53125 0.515625 1.09375 0.78125q0.578125 0.265625 1.171875 0.265625q0.9375 0 1.75 -1.03125q0.828125 -1.046875 0.828125 -3.046875q0 -1.828125 -0.828125 -2.8125q-0.8125 -0.984375 -1.84375 -0.984375q-0.5625 0 -1.109375 0.28125q-0.421875 0.203125 -1.0625 0.828125zm14.2109375 -2.59375l0 3.25l-0.34375 0q-0.390625 -1.53125 -1.015625 -2.078125q-0.609375 -0.546875 -1.578125 -0.546875q-0.71875 0 -1.171875 0.390625q-0.453125 0.375 -0.453125 0.84375q0 0.578125 0.34375 1.0q0.3125 0.421875 1.3125 0.90625l1.515625 0.734375q2.109375 1.03125 2.109375 2.71875q0 1.3125 -0.984375 2.109375q-0.984375 0.796875 -2.203125 0.796875q-0.875 0 -2.0 -0.3125q-0.34375 -0.109375 -0.5625 -0.109375q-0.234375 0 -0.375 0.265625l-0.34375 0l0 -3.40625l0.34375 0q0.296875 1.46875 1.109375 2.203125q0.828125 0.734375 1.859375 0.734375q0.71875 0 1.171875 -0.421875q0.453125 -0.421875 0.453125 -1.015625q0 -0.71875 -0.515625 -1.203125q-0.5 -0.484375 -2.015625 -1.234375q-1.5 -0.75 -1.96875 -1.359375q-0.46875 -0.59375 -0.46875 -1.5q0 -1.171875 0.796875 -1.96875q0.8125 -0.796875 2.09375 -0.796875q0.5625 0 1.359375 0.25q0.53125 0.15625 0.71875 0.15625q0.15625 0 0.25 -0.078125q0.09375 -0.078125 0.21875 -0.328125l0.34375 0zm3.737564 3.875q0 2.125 1.03125 3.34375q1.046875 1.203125 2.453125 1.203125q0.9375 0 1.625 -0.515625q0.703125 -0.515625 1.171875 -1.765625l0.3125 0.203125q-0.21875 1.4375 -1.265625 2.609375q-1.046875 1.171875 -2.640625 1.171875q-1.71875 0 -2.9375 -1.34375q-1.21875 -1.34375 -1.21875 -3.59375q0 -2.453125 1.25 -3.8125q1.25 -1.375 3.15625 -1.375q1.59375 0 2.625 1.0625q1.03125 1.046875 1.03125 2.8125l-6.59375 0zm0 -0.59375l4.421875 0q-0.046875 -0.921875 -0.21875 -1.296875q-0.265625 -0.578125 -0.78125 -0.90625q-0.515625 -0.34375 -1.078125 -0.34375q-0.859375 0 -1.546875 0.671875q-0.671875 0.671875 -0.796875 1.875zm10.653946 -3.28125l0 2.15625q1.203125 -2.15625 2.46875 -2.15625q0.5624962 0 0.9374962 0.359375q0.375 0.34375 0.375 0.796875q0 0.40625 -0.265625 0.6875q-0.265625 0.28125 -0.640625 0.28125q-0.3749962 0 -0.8281212 -0.359375q-0.453125 -0.359375 -0.671875 -0.359375q-0.1875 0 -0.40625 0.21875q-0.46875 0.421875 -0.96875 1.40625l0 4.5625q0 0.796875 0.203125 1.203125q0.140625 0.28125 0.484375 0.46875q0.34375 0.1875 0.984375 0.1875l0 0.375l-4.890625 0l0 -0.375q0.734375 0 1.09375 -0.234375q0.25 -0.15625 0.359375 -0.53125q0.046875 -0.171875 0.046875 -1.0l0 -3.703125q0 -1.671875 -0.0625 -1.984375q-0.0625 -0.3125 -0.25 -0.453125q-0.1875 -0.15625 -0.453125 -0.15625q-0.328125 0 -0.734375 0.15625l-0.09375 -0.375l2.875 -1.171875l0.4375 0zm3.8211784 0.28125l4.5 0l0 0.390625l-0.296875 0q-0.40625 0 -0.625 0.203125q-0.203125 0.1875 -0.203125 0.53125q0 0.359375 0.21875 0.859375l2.21875 5.265625l2.21875 -5.46875q0.25 -0.578125 0.25 -0.875q0 -0.15625 -0.09375 -0.25q-0.109375 -0.15625 -0.296875 -0.203125q-0.171875 -0.0625 -0.703125 -0.0625l0 -0.390625l3.109375 0l0 0.390625q-0.546875 0.046875 -0.75 0.21875q-0.359375 0.3125 -0.65625 1.046875l-3.390625 8.1875l-0.421875 0l-3.40625 -8.0625q-0.234375 -0.5625 -0.4375 -0.796875q-0.203125 -0.25 -0.53125 -0.421875q-0.171875 -0.09375 -0.703125 -0.171875l0 -0.390625zm16.570312 8.171875q-1.46875 1.140625 -1.84375 1.3125q-0.5625 0.265625 -1.203125 0.265625q-0.984375 0 -1.625 -0.671875q-0.640625 -0.6875 -0.640625 -1.796875q0 -0.6875 0.3125 -1.203125q0.421875 -0.703125 1.46875 -1.328125q1.0625 -0.625 3.53125 -1.53125l0 -0.375q0 -1.421875 -0.453125 -1.953125q-0.453125 -0.53125 -1.328125 -0.53125q-0.65625 0 -1.03125 0.359375q-0.40625 0.34375 -0.40625 0.8125l0.03125 0.59375q0 0.484375 -0.25 0.75q-0.25 0.25 -0.640625 0.25q-0.390625 0 -0.640625 -0.265625q-0.234375 -0.265625 -0.234375 -0.734375q0 -0.90625 0.90625 -1.65625q0.921875 -0.75 2.578125 -0.75q1.28125 0 2.09375 0.4375q0.609375 0.3125 0.90625 1.0q0.1875 0.453125 0.1875 1.84375l0 3.234375q0 1.359375 0.046875 1.671875q0.046875 0.3125 0.171875 0.421875q0.125 0.09375 0.28125 0.09375q0.15625 0 0.28125 -0.078125q0.21875 -0.125 0.84375 -0.75l0 0.578125q-1.15625 1.5625 -2.21875 1.5625q-0.515625 0 -0.828125 -0.34375q-0.296875 -0.359375 -0.296875 -1.21875zm0 -0.671875l0 -3.640625q-1.578125 0.625 -2.03125 0.890625q-0.828125 0.453125 -1.1875 0.953125q-0.34375 0.5 -0.34375 1.09375q0 0.75 0.4375 1.25q0.453125 0.484375 1.03125 0.484375q0.796875 0 2.09375 -1.03125zm6.825821 -10.625l0 3.125l2.234375 0l0 0.734375l-2.234375 0l0 6.1875q0 0.921875 0.265625 1.25q0.265625 0.328125 0.6875 0.328125q0.34375 0 0.65625 -0.21875q0.328125 -0.21875 0.5 -0.625l0.40625 0q-0.359375 1.015625 -1.03125 1.53125q-0.65625 0.515625 -1.375 0.515625q-0.46875 0 -0.9375 -0.265625q-0.453125 -0.265625 -0.671875 -0.75q-0.21875 -0.5 -0.21875 -1.53125l0 -6.421875l-1.515625 0l0 -0.34375q0.578125 -0.234375 1.171875 -0.78125q0.609375 -0.546875 1.078125 -1.28125q0.234375 -0.40625 0.65625 -1.453125l0.328125 0zm5.581894 -2.140625q0.4375 0 0.734375 0.3125q0.3125 0.3125 0.3125 0.75q0 0.4375 -0.3125 0.75q-0.296875 0.3125 -0.734375 0.3125q-0.4375 0 -0.75 -0.3125q-0.3125 -0.3125 -0.3125 -0.75q0 -0.4375 0.296875 -0.75q0.3125 -0.3125 0.765625 -0.3125zm0.859375 4.984375l0 7.671875q0 0.890625 0.125 1.1875q0.140625 0.296875 0.390625 0.453125q0.265625 0.140625 0.9375 0.140625l0 0.375l-4.640625 0l0 -0.375q0.703125 0 0.9375 -0.125q0.25 -0.140625 0.390625 -0.453125q0.140625 -0.3125 0.140625 -1.203125l0 -3.671875q0 -1.5625 -0.09375 -2.015625q-0.078125 -0.328125 -0.234375 -0.453125q-0.15625 -0.140625 -0.421875 -0.140625q-0.296875 0 -0.71875 0.15625l-0.140625 -0.375l2.875 -1.171875l0.453125 0zm7.300644 0q2.171875 0 3.484375 1.65625q1.109375 1.40625 1.109375 3.21875q0 1.28125 -0.609375 2.59375q-0.609375 1.3125 -1.6875 1.984375q-1.078125 0.671875 -2.40625 0.671875q-2.15625 0 -3.421875 -1.71875q-1.078125 -1.453125 -1.078125 -3.25q0 -1.3125 0.640625 -2.609375q0.65625 -1.296875 1.71875 -1.921875q1.0625 -0.625 2.25 -0.625zm-0.3125 0.6875q-0.5625 0 -1.125 0.328125q-0.546875 0.328125 -0.890625 1.15625q-0.34375 0.8125 -0.34375 2.109375q0 2.078125 0.828125 3.59375q0.828125 1.5 2.1875 1.5q1.0 0 1.65625 -0.828125q0.65625 -0.828125 0.65625 -2.859375q0 -2.546875 -1.09375 -4.0q-0.734375 -1.0 -1.875 -1.0zm9.1015625 1.34375q1.671875 -2.03125 3.1875 -2.03125q0.78125 0 1.34375 0.390625q0.5625 0.390625 0.90625 1.296875q0.21875 0.625 0.21875 1.90625l0 4.078125q0 0.90625 0.15625 1.234375q0.109375 0.25 0.359375 0.40625q0.265625 0.140625 0.953125 0.140625l0 0.375l-4.71875 0l0 -0.375l0.1875 0q0.671875 0 0.9375 -0.203125q0.265625 -0.203125 0.375 -0.59375q0.03125 -0.15625 0.03125 -0.984375l0 -3.90625q0 -1.296875 -0.34375 -1.890625q-0.328125 -0.59375 -1.125 -0.59375q-1.25 0 -2.46875 1.359375l0 5.03125q0 0.96875 0.109375 1.203125q0.140625 0.296875 0.390625 0.4375q0.265625 0.140625 1.046875 0.140625l0 0.375l-4.71875 0l0 -0.375l0.203125 0q0.734375 0 0.984375 -0.359375q0.265625 -0.375 0.265625 -1.421875l0 -3.546875q0 -1.71875 -0.078125 -2.09375q-0.078125 -0.375 -0.25 -0.5q-0.15625 -0.140625 -0.421875 -0.140625q-0.296875 0 -0.703125 0.15625l-0.15625 -0.375l2.875 -1.171875l0.453125 0l0 2.03125zm14.0390625 -2.03125l0 3.25l-0.34375 0q-0.390625 -1.53125 -1.015625 -2.078125q-0.609375 -0.546875 -1.578125 -0.546875q-0.71875 0 -1.171875 0.390625q-0.453125 0.375 -0.453125 0.84375q0 0.578125 0.34375 1.0q0.3125 0.421875 1.3125 0.90625l1.515625 0.734375q2.109375 1.03125 2.109375 2.71875q0 1.3125 -0.984375 2.109375q-0.984375 0.796875 -2.203125 0.796875q-0.875 0 -2.0 -0.3125q-0.34375 -0.109375 -0.5625 -0.109375q-0.234375 0 -0.375 0.265625l-0.34375 0l0 -3.40625l0.34375 0q0.296875 1.46875 1.109375 2.203125q0.828125 0.734375 1.859375 0.734375q0.71875 0 1.171875 -0.421875q0.453125 -0.421875 0.453125 -1.015625q0 -0.71875 -0.515625 -1.203125q-0.5 -0.484375 -2.015625 -1.234375q-1.5 -0.75 -1.96875 -1.359375q-0.46875 -0.59375 -0.46875 -1.5q0 -1.171875 0.796875 -1.96875q0.8125 -0.796875 2.09375 -0.796875q0.5625 0 1.359375 0.25q0.53125 0.15625 0.71875 0.15625q0.15625 0 0.25 -0.078125q0.09375 -0.078125 0.21875 -0.328125l0.34375 0zm12.132103 0q2.171875 0 3.484375 1.65625q1.109375 1.40625 1.109375 3.21875q0 1.28125 -0.609375 2.59375q-0.609375 1.3125 -1.6875 1.984375q-1.078125 0.671875 -2.40625 0.671875q-2.15625 0 -3.421875 -1.71875q-1.078125 -1.453125 -1.078125 -3.25q0 -1.3125 0.640625 -2.609375q0.65625 -1.296875 1.71875 -1.921875q1.0625 -0.625 2.25 -0.625zm-0.3125 0.6875q-0.5625 0 -1.125 0.328125q-0.546875 0.328125 -0.890625 1.15625q-0.34375 0.8125 -0.34375 2.109375q0 2.078125 0.828125 3.59375q0.828125 1.5 2.1875 1.5q1.0 0 1.65625 -0.828125q0.65625 -0.828125 0.65625 -2.859375q0 -2.546875 -1.09375 -4.0q-0.734375 -1.0 -1.875 -1.0zm10.0390625 0.34375l0 6.28125q0 1.328125 0.296875 1.6875q0.390625 0.453125 1.03125 0.453125l0.859375 0l0 0.375l-5.6875 0l0 -0.375l0.421875 0q0.421875 0 0.765625 -0.203125q0.34375 -0.21875 0.46875 -0.5625q0.125 -0.359375 0.125 -1.375l0 -6.28125l-1.84375 0l0 -0.75l1.84375 0l0 -0.625q0 -1.421875 0.453125 -2.40625q0.46875 -0.984375 1.40625 -1.59375q0.953125 -0.609375 2.125 -0.609375q1.09375 0 2.015625 0.703125q0.59375 0.46875 0.59375 1.046875q0 0.3125 -0.265625 0.59375q-0.265625 0.28125 -0.578125 0.28125q-0.25 0 -0.515625 -0.171875q-0.265625 -0.171875 -0.65625 -0.734375q-0.375 -0.578125 -0.703125 -0.78125q-0.3125 -0.1875 -0.71875 -0.1875q-0.46875 0 -0.8125 0.25q-0.328125 0.25 -0.484375 0.796875q-0.140625 0.53125 -0.140625 2.75l0 0.6875l2.46875 0l0 0.75l-2.46875 0z" fill-rule="nonzero"/><path fill="#000000" d="m158.59006 177.52196q0.515625 0.53125 0.78125 1.078125q0.1875 0.375 0.609375 1.96875l0.921875 -1.375q0.359375 -0.5 0.875 -0.953125q0.53125 -0.453125 0.921875 -0.625q0.25 -0.09375 0.546875 -0.09375q0.453125 0 0.71875 0.234375q0.265625 0.234375 0.265625 0.578125q0 0.40625 -0.15625 0.546875q-0.296875 0.265625 -0.671875 0.265625q-0.21875 0 -0.46875 -0.09375q-0.484375 -0.171875 -0.65625 -0.171875q-0.25 0 -0.59375 0.296875q-0.640625 0.53125 -1.53125 2.09375l0.84375 3.578125q0.203125 0.828125 0.328125 0.984375q0.140625 0.15625 0.28125 0.15625q0.21875 0 0.515625 -0.234375q0.5625 -0.484375 0.96875 -1.25l0.375 0.1875q-0.65625 1.234375 -1.671875 2.046875q-0.578125 0.453125 -0.96875 0.453125q-0.578125 0 -0.921875 -0.65625q-0.21875 -0.40625 -0.90625 -3.5q-1.625 2.828125 -2.609375 3.640625q-0.640625 0.515625 -1.234375 0.515625q-0.40625 0 -0.75 -0.296875q-0.25 -0.234375 -0.25 -0.625q0 -0.34375 0.234375 -0.5625q0.21875 -0.234375 0.546875 -0.234375q0.34375 0 0.71875 0.328125q0.265625 0.25 0.40625 0.25q0.125 0 0.328125 -0.171875q0.484375 -0.390625 1.328125 -1.703125q0.84375 -1.3125 1.109375 -1.90625q-0.640625 -2.53125 -0.703125 -2.671875q-0.234375 -0.671875 -0.625 -0.953125q-0.375 -0.28125 -1.125 -0.28125q-0.25 0 -0.5625 0.015625l0 -0.375l2.78125 -0.484375z" fill-rule="nonzero"/><path fill="#000000" d="m169.85338 193.4282q-0.71875 0.875 -1.453125 1.28125q-0.734375 0.40625 -1.5625 0.40625q-0.984375 0 -1.53125 -0.546875q-0.546875 -0.5625 -0.546875 -1.5q0 -1.0625 0.59375 -2.09375q0.59375 -1.03125 1.59375 -1.671875q1.0 -0.640625 1.96875 -0.640625q0.75 0 1.125 0.3125q0.375 0.3125 0.375 0.78125q0 0.421875 -0.265625 0.734375q-0.1875 0.234375 -0.46875 0.234375q-0.21875 0 -0.359375 -0.140625q-0.140625 -0.140625 -0.140625 -0.34375q0 -0.140625 0.046875 -0.25q0.046875 -0.109375 0.203125 -0.265625q0.171875 -0.15625 0.203125 -0.21875q0.046875 -0.078125 0.046875 -0.15625q0 -0.140625 -0.140625 -0.234375q-0.203125 -0.140625 -0.5625 -0.140625q-0.6875 0 -1.359375 0.484375q-0.65625 0.46875 -1.125 1.359375q-0.578125 1.0625 -0.578125 2.125q0 0.71875 0.40625 1.140625q0.40625 0.40625 1.09375 0.40625q0.53125 0 1.0625 -0.265625q0.53125 -0.28125 1.171875 -0.96875l0.203125 0.171875z" fill-rule="nonzero"/><path fill="#000000" fill-opacity="0.0" d="m73.002625 50.314716l41.543304 0l0 42.015743l-41.543304 0z" fill-rule="evenodd"/><path fill="#000000" d="m89.78209 71.125336q0 -2.109375 0.640625 -3.625q0.640625 -1.53125 1.6875 -2.28125q0.828125 -0.59375 1.703125 -0.59375q1.421875 0 2.546875 1.453125q1.40625 1.796875 1.40625 4.859375q0 2.15625 -0.625 3.65625q-0.609375 1.5 -1.578125 2.1875q-0.953125 0.671875 -1.84375 0.671875q-1.765625 0 -2.9375 -2.09375q-1.0 -1.75 -1.0 -4.234375zm1.78125 0.234375q0 2.546875 0.640625 4.15625q0.515625 1.359375 1.546875 1.359375q0.484375 0 1.015625 -0.4375q0.53125 -0.4375 0.796875 -1.484375q0.421875 -1.5625 0.421875 -4.421875q0 -2.109375 -0.4375 -3.515625q-0.328125 -1.046875 -0.84375 -1.484375q-0.375 -0.296875 -0.90625 -0.296875q-0.609375 0 -1.09375 0.546875q-0.65625 0.765625 -0.90625 2.390625q-0.234375 1.609375 -0.234375 3.1875z" fill-rule="nonzero"/><path fill="#000000" fill-opacity="0.0" d="m297.00262 50.314716l41.543304 0l0 42.015743l-41.543304 0z" fill-rule="evenodd"/><path fill="#000000" d="m313.25345 81.219086l-1.375 0q0.6875 -1.140625 1.09375 -2.53125l2.734375 -9.3125q0.578125 -1.984375 1.046875 -2.96875q0.484375 -1.0 1.296875 -1.5625q0.828125 -0.5625 1.96875 -0.5625q1.140625 0 1.859375 0.640625q0.71875 0.640625 0.71875 1.734375q0 2.390625 -2.921875 3.421875q1.8125 0.875 1.8125 2.703125q0 1.75 -1.265625 3.21875q-1.25 1.453125 -3.15625 1.453125q-0.53125 0 -1.03125 -0.125q-0.5 -0.125 -1.125 -0.671875q-0.875 3.1875 -1.65625 4.5625zm1.90625 -5.296875q0.625 1.0625 1.765625 1.0625q1.359375 0 2.21875 -1.703125q0.875 -1.703125 0.875 -2.96875q0 -1.421875 -0.890625 -2.0625q-0.59375 0.125 -0.859375 0.125q-0.578125 0 -0.578125 -0.40625q0 -0.359375 0.5 -0.359375q0.484375 0 1.03125 0.265625q0.859375 -0.46875 1.453125 -1.578125q0.59375 -1.109375 0.59375 -2.171875q0 -0.671875 -0.328125 -1.046875q-0.328125 -0.390625 -0.890625 -0.390625q-0.609375 0 -1.15625 0.484375q-0.546875 0.46875 -0.890625 1.390625q-0.328125 0.921875 -1.109375 3.5l-1.734375 5.859375z" fill-rule="nonzero"/><path fill="#000000" fill-opacity="0.0" d="m267.58456 109.02374l41.543304 0l0 42.015747l-41.543304 0z" fill-rule="evenodd"/><path fill="#000000" d="m279.1671 130.20937l-0.328125 -0.09375q0.078125 -1.046875 0.484375 -1.734375q0.421875 -0.6875 1.078125 -0.6875q0.578125 0 1.0 0.546875q0.421875 0.53125 0.484375 2.015625q0.0625 1.46875 0.0625 3.1875q0 0.421875 -0.046875 1.28125q2.28125 -2.71875 2.28125 -4.1875q0 -0.3125 -0.15625 -0.875q-0.140625 -0.5625 -0.140625 -1.0q0 -0.46875 0.265625 -0.71875q0.28125 -0.25 0.640625 -0.25q0.796875 0 0.796875 1.140625q0 1.140625 -0.75 2.59375q-0.734375 1.4375 -2.875 3.84375q-1.015625 4.703125 -2.125 4.703125q-0.515625 0 -0.515625 -0.71875q0 -1.03125 2.09375 -3.953125q0.046875 -1.0625 0.046875 -1.5625q0 -0.9375 -0.140625 -2.46875q-0.125 -1.546875 -0.40625 -1.9375q-0.265625 -0.40625 -0.625 -0.40625q-0.75 0 -1.125 1.28125zm12.820129 4.453125l0 -4.546875l-4.515625 0l0 -0.75l4.515625 0l0 -4.53125l0.75 0l0 4.53125l4.546875 0l0 0.75l-4.546875 0l0 4.546875l-0.75 0z" fill-rule="nonzero"/><path fill="#000000" fill-opacity="0.0" d="m336.0996 89.411705l41.543304 0l0 42.015755l-41.543304 0z" fill-rule="evenodd"/><path fill="#000000" d="m350.87048 110.59733l-0.328125 -0.09375q0.078125 -1.046875 0.484375 -1.734375q0.421875 -0.6875 1.078125 -0.6875q0.578125 0 1.0 0.546875q0.421875 0.53125 0.484375 2.015625q0.0625 1.46875 0.0625 3.1875q0 0.421875 -0.046875 1.28125q2.28125 -2.71875 2.28125 -4.1875q0 -0.3125 -0.15625 -0.875q-0.140625 -0.5625 -0.140625 -1.0q0 -0.46875 0.265625 -0.71875q0.28125 -0.25 0.640625 -0.25q0.796875 0 0.796875 1.140625q0 1.140625 -0.75 2.59375q-0.734375 1.4375 -2.875 3.84375q-1.015625 4.703125 -2.125 4.703125q-0.515625 0 -0.515625 -0.71875q0 -1.03125 2.09375 -3.953125q0.046875 -1.0625 0.046875 -1.5625q0 -0.9375 -0.140625 -2.46875q-0.125 -1.546875 -0.40625 -1.9375q-0.265625 -0.40625 -0.625 -0.40625q-0.75 0 -1.125 1.28125zm12.148254 1.078125l-0.375 1.21875l-4.71875 0l0.375 -1.21875l4.71875 0z" fill-rule="nonzero"/><path fill="#000000" fill-opacity="0.0" d="m265.00262 154.31471l41.543304 0l0 42.015747l-41.543304 0z" fill-rule="evenodd"/><path fill="#000000" d="m287.78937 172.98471l-1.765625 6.1875l-0.203125 0.828125q-0.03125 0.109375 -0.03125 0.203125q0 0.140625 0.09375 0.25q0.078125 0.078125 0.171875 0.078125q0.125 0 0.3125 -0.140625q0.359375 -0.265625 0.953125 -1.09375l0.3125 0.21875q-0.625 0.9375 -1.296875 1.4375q-0.671875 0.5 -1.234375 0.5q-0.390625 0 -0.59375 -0.203125q-0.1875 -0.1875 -0.1875 -0.5625q0 -0.453125 0.203125 -1.171875l0.1875 -0.6875q-1.1875 1.5625 -2.1875 2.171875q-0.71875 0.453125 -1.421875 0.453125q-0.65625 0 -1.140625 -0.546875q-0.484375 -0.5625 -0.484375 -1.515625q0 -1.453125 0.859375 -3.0625q0.875 -1.609375 2.21875 -2.578125q1.046875 -0.765625 1.984375 -0.765625q0.546875 0 0.90625 0.296875q0.375 0.296875 0.578125 0.96875l0.328125 -1.046875l1.4375 -0.21875zm-3.234375 0.484375q-0.59375 0 -1.25 0.546875q-0.921875 0.765625 -1.65625 2.296875q-0.71875 1.515625 -0.71875 2.75q0 0.609375 0.3125 0.96875q0.3125 0.359375 0.71875 0.359375q0.984375 0 2.15625 -1.46875q1.546875 -1.9375 1.546875 -3.984375q0 -0.78125 -0.296875 -1.125q-0.296875 -0.34375 -0.8125 -0.34375z" fill-rule="nonzero"/><path fill="#000000" d="m292.08624 171.12534l-0.25 0.8125l-3.140625 0l0.25 -0.8125l3.140625 0z" fill-rule="nonzero"/><path fill="#000000" fill-opacity="0.0" d="m489.00262 154.31471l41.543335 0l0 42.015747l-41.543335 0z" fill-rule="evenodd"/><path fill="#000000" d="m506.30447 168.28159l-1.796875 6.296875q0.875 -0.90625 1.515625 -1.25q0.65625 -0.34375 1.375 -0.34375q1.0 0 1.625 0.671875q0.640625 0.65625 0.640625 1.796875q0 1.46875 -0.84375 2.921875q-0.828125 1.453125 -2.09375 2.265625q-1.265625 0.8125 -2.5 0.8125q-1.375 0 -2.828125 -1.03125l2.78125 -9.53125q0.3125 -1.109375 0.3125 -1.296875q0 -0.234375 -0.140625 -0.359375q-0.21875 -0.15625 -0.625 -0.15625q-0.1875 0 -0.578125 0.0625l0 -0.34375l3.15625 -0.515625zm-3.53125 12.25q0.90625 0.5 1.609375 0.5q0.796875 0 1.65625 -0.59375q0.859375 -0.59375 1.484375 -1.984375q0.640625 -1.390625 0.640625 -2.8125q0 -0.84375 -0.421875 -1.3125q-0.40625 -0.46875 -0.96875 -0.46875q-0.84375 0 -1.65625 0.6875q-0.8125 0.671875 -1.15625 1.875l-1.1875 4.109375z" fill-rule="nonzero"/><path fill="#000000" d="m514.4138 173.37534l0 -3.03125l-3.0312195 0l0 -0.5l3.0312195 0l0 -3.015625l0.484375 0l0 3.015625l3.03125 0l0 0.5l-3.03125 0l0 3.03125l-0.484375 0z" fill-rule="nonzero"/><path fill="#000000" fill-opacity="0.0" d="m353.00262 250.31471l41.543304 0l0 45.259842l-41.543304 0z" fill-rule="evenodd"/><path fill="#000000" d="m365.69012 270.37283q0.515625 0.53125 0.78125 1.078125q0.1875 0.375 0.609375 1.96875l0.921875 -1.375q0.359375 -0.5 0.875 -0.953125q0.53125 -0.453125 0.921875 -0.625q0.25 -0.09375 0.546875 -0.09375q0.453125 0 0.71875 0.234375q0.265625 0.234375 0.265625 0.578125q0 0.40625 -0.15625 0.546875q-0.296875 0.265625 -0.671875 0.265625q-0.21875 0 -0.46875 -0.09375q-0.484375 -0.171875 -0.65625 -0.171875q-0.25 0 -0.59375 0.296875q-0.640625 0.53125 -1.53125 2.09375l0.84375 3.578125q0.203125 0.828125 0.328125 0.984375q0.140625 0.15625 0.28125 0.15625q0.21875 0 0.515625 -0.234375q0.5625 -0.484375 0.96875 -1.25l0.375 0.1875q-0.65625 1.234375 -1.671875 2.046875q-0.578125 0.453125 -0.96875 0.453125q-0.578125 0 -0.921875 -0.65625q-0.21875 -0.40625 -0.90625 -3.5q-1.625 2.828125 -2.609375 3.640625q-0.640625 0.515625 -1.234375 0.515625q-0.40625 0 -0.75 -0.296875q-0.25 -0.234375 -0.25 -0.625q0 -0.34375 0.234375 -0.5625q0.21875 -0.234375 0.546875 -0.234375q0.34375 0 0.71875 0.328125q0.265625 0.25 0.40625 0.25q0.125 0 0.328125 -0.171875q0.484375 -0.390625 1.328125 -1.703125q0.84375 -1.3125 1.109375 -1.90625q-0.640625 -2.53125 -0.703125 -2.671875q-0.234375 -0.671875 -0.625 -0.953125q-0.375 -0.28125 -1.125 -0.28125q-0.25 0 -0.5625 0.015625l0 -0.375l2.78125 -0.484375z" fill-rule="nonzero"/><path fill="#000000" d="m374.25034 264.9822q0.53125 -0.234375 0.84375 -0.609375q0.25 -0.265625 0.25 -0.515625q0 -0.140625 -0.03125 -0.234375q-0.03125 -0.0625 -0.203125 -0.21875q-0.15625 -0.171875 -0.1875 -0.234375q-0.046875 -0.109375 -0.046875 -0.28125q0 -0.296875 0.203125 -0.5q0.203125 -0.21875 0.484375 -0.21875q0.28125 0 0.5 0.234375q0.21875 0.21875 0.21875 0.5625q0 0.625 -0.484375 1.265625q-0.484375 0.625 -1.40625 0.96875l-0.140625 -0.21875z" fill-rule="nonzero"/><path fill="#000000" d="m381.68832 286.27908q-0.71875 0.875 -1.453125 1.28125q-0.734375 0.40625 -1.5625 0.40625q-0.984375 0 -1.53125 -0.546875q-0.546875 -0.5625 -0.546875 -1.5q0 -1.0625 0.59375 -2.09375q0.59375 -1.03125 1.59375 -1.671875q1.0 -0.640625 1.96875 -0.640625q0.75 0 1.125 0.3125q0.375 0.3125 0.375 0.78125q0 0.421875 -0.265625 0.734375q-0.1875 0.234375 -0.46875 0.234375q-0.21875 0 -0.359375 -0.140625q-0.140625 -0.140625 -0.140625 -0.34375q0 -0.140625 0.046875 -0.25q0.046875 -0.109375 0.203125 -0.265625q0.171875 -0.15625 0.203125 -0.21875q0.046875 -0.078125 0.046875 -0.15625q0 -0.140625 -0.140625 -0.234375q-0.203125 -0.140625 -0.5625 -0.140625q-0.6875 0 -1.359375 0.484375q-0.65625 0.46875 -1.125 1.359375q-0.578125 1.0625 -0.578125 2.125q0 0.71875 0.40625 1.140625q0.40625 0.40625 1.09375 0.40625q0.53125 0 1.0625 -0.265625q0.53125 -0.28125 1.171875 -0.96875l0.203125 0.171875z" fill-rule="nonzero"/><path fill="#000000" fill-opacity="0.0" d="m373.7743 295.57455l48.0 0" fill-rule="evenodd"/><path stroke="#595959" stroke-width="2.0" stroke-linejoin="round" stroke-linecap="butt" d="m373.7743 295.57455l48.0 0" fill-rule="evenodd"/><path fill="#000000" fill-opacity="0.0" d="m4.9265094 245.46384l324.50394 0l0 45.259827l-324.50394 0z" fill-rule="evenodd"/><path fill="#000000" d="m23.692135 270.20944l-5.46875 0l-0.96875 2.234375q-0.34375 0.828125 -0.34375 1.234375q0 0.3125 0.296875 0.5625q0.3125 0.25 1.328125 0.3125l0 0.390625l-4.437501 0l0 -0.390625q0.875 -0.15625 1.140625 -0.40625q0.53125 -0.5 1.171876 -2.03125l4.96875 -11.609375l0.375 0l4.90625 11.734375q0.59375 1.421875 1.078125 1.84375q0.484375 0.421875 1.34375 0.46875l0 0.390625l-5.5625 0l0 -0.390625q0.84375 -0.03125 1.140625 -0.265625q0.296875 -0.25 0.296875 -0.59375q0 -0.453125 -0.421875 -1.453125l-0.84375 -2.03125zm-0.296875 -0.765625l-2.390625 -5.703125l-2.46875 5.703125l4.859375 0zm12.761871 -4.328125l0 3.25l-0.34375 0q-0.390625 -1.53125 -1.015625 -2.078125q-0.609375 -0.546875 -1.578125 -0.546875q-0.71875 0 -1.171875 0.390625q-0.453125 0.375 -0.453125 0.84375q0 0.578125 0.34375 1.0q0.3125 0.421875 1.3125 0.90625l1.515625 0.734375q2.109375 1.03125 2.109375 2.71875q0 1.3125 -0.984375 2.109375q-0.984375 0.796875 -2.203125 0.796875q-0.875 0 -2.0 -0.3125q-0.34375 -0.109375 -0.5625 -0.109375q-0.234375 0 -0.375 0.265625l-0.34375 0l0 -3.40625l0.34375 0q0.296875 1.46875 1.109375 2.203125q0.828125 0.734375 1.859375 0.734375q0.71875 0 1.171875 -0.421875q0.453125 -0.421875 0.453125 -1.015625q0 -0.71875 -0.515625 -1.203125q-0.5 -0.484375 -2.015625 -1.234375q-1.5 -0.75 -1.96875 -1.359375q-0.46875 -0.59375 -0.46875 -1.5q0 -1.171875 0.796875 -1.96875q0.8125 -0.796875 2.09375 -0.796875q0.5625 0 1.359375 0.25q0.53125 0.15625 0.71875 0.15625q0.15625 0 0.25 -0.078125q0.09375 -0.078125 0.21875 -0.328125l0.34375 0zm8.300064 0l0 3.25l-0.34375 0q-0.390625 -1.53125 -1.015625 -2.078125q-0.609375 -0.546875 -1.578125 -0.546875q-0.71875 0 -1.171875 0.390625q-0.453125 0.375 -0.453125 0.84375q0 0.578125 0.34375 1.0q0.3125 0.421875 1.3125 0.90625l1.515625 0.734375q2.109375 1.03125 2.109375 2.71875q0 1.3125 -0.984375 2.109375q-0.984375 0.796875 -2.203125 0.796875q-0.875 0 -2.0 -0.3125q-0.34375 -0.109375 -0.5625 -0.109375q-0.234375 0 -0.375 0.265625l-0.34375 0l0 -3.40625l0.34375 0q0.296875 1.46875 1.109375 2.203125q0.828125 0.734375 1.859375 0.734375q0.71875 0 1.171875 -0.421875q0.453125 -0.421875 0.453125 -1.015625q0 -0.71875 -0.515625 -1.203125q-0.5 -0.484375 -2.015625 -1.234375q-1.5 -0.75 -1.96875 -1.359375q-0.46875 -0.59375 -0.46875 -1.5q0 -1.171875 0.796875 -1.96875q0.8125 -0.796875 2.09375 -0.796875q0.5625 0 1.359375 0.25q0.53125 0.15625 0.71875 0.15625q0.15625 0 0.25 -0.078125q0.09375 -0.078125 0.21875 -0.328125l0.34375 0zm4.565689 -4.984375q0.4375 0 0.734375 0.3125q0.3125 0.3125 0.3125 0.75q0 0.4375 -0.3125 0.75q-0.296875 0.3125 -0.734375 0.3125q-0.4375 0 -0.75 -0.3125q-0.3125 -0.3125 -0.3125 -0.75q0 -0.4375 0.296875 -0.75q0.3125 -0.3125 0.765625 -0.3125zm0.859375 4.984375l0 7.671875q0 0.890625 0.125 1.1875q0.140625 0.296875 0.390625 0.453125q0.265625 0.140625 0.9375 0.140625l0 0.375l-4.640625 0l0 -0.375q0.703125 0 0.9375 -0.125q0.25 -0.140625 0.390625 -0.453125q0.140625 -0.3125 0.140625 -1.203125l0 -3.671875q0 -1.5625 -0.09375 -2.015625q-0.078125 -0.328125 -0.234375 -0.453125q-0.15625 -0.140625 -0.421875 -0.140625q-0.296875 0 -0.71875 0.15625l-0.140625 -0.375l2.875 -1.171875l0.453125 0zm5.191269 6.34375q-0.875 -0.421875 -1.34375 -1.1875q-0.46875 -0.765625 -0.46875 -1.6875q0 -1.421875 1.0625 -2.4375q1.078125 -1.03125 2.734375 -1.03125q1.375 0 2.375 0.671875l2.015625 0q0.453125 0 0.515625 0.03125q0.078125 0.015625 0.109375 0.078125q0.0625 0.09375 0.0625 0.34375q0 0.265625 -0.046875 0.375q-0.03125 0.046875 -0.109375 0.078125q-0.078125 0.03125 -0.53125 0.03125l-1.234375 0q0.578125 0.75 0.578125 1.921875q0 1.328125 -1.03125 2.28125q-1.015625 0.9375 -2.734375 0.9375q-0.703125 0 -1.4375 -0.203125q-0.46875 0.390625 -0.625 0.6875q-0.15625 0.296875 -0.15625 0.515625q0 0.171875 0.171875 0.34375q0.171875 0.15625 0.671875 0.234375q0.28125 0.046875 1.453125 0.078125q2.140625 0.046875 2.78125 0.140625q0.96875 0.140625 1.546875 0.71875q0.578125 0.578125 0.578125 1.4375q0 1.171875 -1.109375 2.203125q-1.625 1.53125 -4.234375 1.53125q-2.015625 0 -3.390625 -0.90625q-0.78125 -0.53125 -0.78125 -1.09375q0 -0.25 0.109375 -0.5q0.171875 -0.375 0.734375 -1.0625q0.0625 -0.09375 1.0625 -1.125q-0.546875 -0.328125 -0.78125 -0.578125q-0.21875 -0.265625 -0.21875 -0.578125q0 -0.375 0.296875 -0.859375q0.296875 -0.484375 1.375 -1.390625zm1.8125 -5.84375q-0.765625 0 -1.296875 0.625q-0.515625 0.609375 -0.515625 1.875q0 1.65625 0.703125 2.5625q0.546875 0.6875 1.375 0.6875q0.796875 0 1.296875 -0.59375q0.515625 -0.59375 0.515625 -1.875q0 -1.65625 -0.71875 -2.59375q-0.53125 -0.6875 -1.359375 -0.6875zm-1.921875 9.328125q-0.484375 0.53125 -0.734375 0.984375q-0.25 0.46875 -0.25 0.84375q0 0.5 0.609375 0.875q1.03125 0.65625 3.0 0.65625q1.875 0 2.765625 -0.671875q0.890625 -0.65625 0.890625 -1.40625q0 -0.546875 -0.53125 -0.765625q-0.53125 -0.234375 -2.140625 -0.28125q-2.34375 -0.0625 -3.609375 -0.234375zm11.007809 -7.796875q1.671875 -2.03125 3.1875 -2.03125q0.78125 0 1.34375 0.390625q0.5625 0.390625 0.90625 1.296875q0.21875 0.625 0.21875 1.90625l0 4.078125q0 0.90625 0.15625 1.234375q0.109375 0.25 0.359375 0.40625q0.265625 0.140625 0.953125 0.140625l0 0.375l-4.71875 0l0 -0.375l0.1875 0q0.671875 0 0.9375 -0.203125q0.265625 -0.203125 0.375 -0.59375q0.03125 -0.15625 0.03125 -0.984375l0 -3.90625q0 -1.296875 -0.34375 -1.890625q-0.328125 -0.59375 -1.125 -0.59375q-1.25 0 -2.46875 1.359375l0 5.03125q0 0.96875 0.109375 1.203125q0.140625 0.296875 0.390625 0.4375q0.265625 0.140625 1.046875 0.140625l0 0.375l-4.718746 0l0 -0.375l0.203125 0q0.734375 0 0.984375 -0.359375q0.2656212 -0.375 0.2656212 -1.421875l0 -3.546875q0 -1.71875 -0.078125 -2.09375q-0.078125 -0.375 -0.24999619 -0.5q-0.15625 -0.140625 -0.421875 -0.140625q-0.296875 0 -0.703125 0.15625l-0.15625 -0.375l2.8749962 -1.171875l0.453125 0l0 2.03125zm10.7109375 0q1.046875 -1.03125 1.234375 -1.1875q0.46875 -0.40625 1.0 -0.625q0.546875 -0.21875 1.078125 -0.21875q0.890625 0 1.53125 0.53125q0.65625 0.515625 0.875 1.5q1.078125 -1.25 1.8125 -1.640625q0.734375 -0.390625 1.515625 -0.390625q0.765625 0 1.34375 0.390625q0.59375 0.390625 0.9375 1.28125q0.234375 0.609375 0.234375 1.890625l0 4.109375q0 0.890625 0.125 1.234375q0.109375 0.21875 0.390625 0.390625q0.28125 0.15625 0.921875 0.15625l0 0.375l-4.71875 0l0 -0.375l0.203125 0q0.609375 0 0.953125 -0.234375q0.25 -0.171875 0.34375 -0.53125q0.046875 -0.1875 0.046875 -1.015625l0 -4.109375q0 -1.15625 -0.28125 -1.640625q-0.40625 -0.671875 -1.296875 -0.671875q-0.5625 0 -1.125 0.28125q-0.546875 0.28125 -1.328125 1.03125l-0.03125 0.109375l0.03125 0.453125l0 4.546875q0 0.984375 0.109375 1.21875q0.109375 0.234375 0.40625 0.40625q0.296875 0.15625 1.03125 0.15625l0 0.375l-4.828125 0l0 -0.375q0.796875 0 1.09375 -0.1875q0.296875 -0.1875 0.40625 -0.5625q0.0625 -0.171875 0.0625 -1.03125l0 -4.109375q0 -1.15625 -0.34375 -1.671875q-0.46875 -0.671875 -1.28125 -0.671875q-0.5625 0 -1.125 0.3125q-0.859375 0.453125 -1.328125 1.03125l0 5.109375q0 0.9375 0.125 1.21875q0.140625 0.28125 0.390625 0.421875q0.25 0.140625 1.03125 0.140625l0 0.375l-4.71875 0l0 -0.375q0.65625 0 0.921875 -0.140625q0.265625 -0.140625 0.390625 -0.4375q0.140625 -0.3125 0.140625 -1.203125l0 -3.640625q0 -1.578125 -0.09375 -2.03125q-0.078125 -0.34375 -0.234375 -0.46875q-0.15625 -0.140625 -0.421875 -0.140625q-0.296875 0 -0.703125 0.15625l-0.15625 -0.375l2.875 -1.171875l0.453125 0l0 2.03125zm15.355331 1.84375q0 2.125 1.03125 3.34375q1.046875 1.203125 2.453125 1.203125q0.9375 0 1.625 -0.515625q0.703125 -0.515625 1.171875 -1.765625l0.3125 0.203125q-0.21875 1.4375 -1.265625 2.609375q-1.046875 1.171875 -2.640625 1.171875q-1.71875 0 -2.9375 -1.34375q-1.21875 -1.34375 -1.21875 -3.59375q0 -2.453125 1.25 -3.8125q1.25 -1.375 3.15625 -1.375q1.59375 0 2.625 1.0625q1.03125 1.046875 1.03125 2.8125l-6.59375 0zm0 -0.59375l4.421875 0q-0.046875 -0.921875 -0.21875 -1.296875q-0.265625 -0.578125 -0.78125 -0.90625q-0.515625 -0.34375 -1.078125 -0.34375q-0.859375 0 -1.546875 0.671875q-0.671875 0.671875 -0.796875 1.875zm10.653946 -1.25q1.671875 -2.03125 3.1875 -2.03125q0.78125 0 1.34375 0.390625q0.5625 0.390625 0.90625 1.296875q0.21875 0.625 0.21875 1.90625l0 4.078125q0 0.90625 0.15625 1.234375q0.109375 0.25 0.359375 0.40625q0.265625 0.140625 0.953125 0.140625l0 0.375l-4.71875 0l0 -0.375l0.1875 0q0.671875 0 0.9375 -0.203125q0.265625 -0.203125 0.375 -0.59375q0.03125 -0.15625 0.03125 -0.984375l0 -3.90625q0 -1.296875 -0.34375 -1.890625q-0.328125 -0.59375 -1.125 -0.59375q-1.25 0 -2.46875 1.359375l0 5.03125q0 0.96875 0.109375 1.203125q0.140625 0.296875 0.390625 0.4375q0.265625 0.140625 1.046875 0.140625l0 0.375l-4.71875 0l0 -0.375l0.203125 0q0.734375 0 0.984375 -0.359375q0.265625 -0.375 0.265625 -1.421875l0 -3.546875q0 -1.71875 -0.078125 -2.09375q-0.078125 -0.375 -0.25 -0.5q-0.15625 -0.140625 -0.421875 -0.140625q-0.296875 0 -0.703125 0.15625l-0.15625 -0.375l2.875 -1.171875l0.453125 0l0 2.03125zm10.6484375 -4.875l0 3.125l2.234375 0l0 0.734375l-2.234375 0l0 6.1875q0 0.921875 0.265625 1.25q0.265625 0.328125 0.6875 0.328125q0.34375 0 0.65625 -0.21875q0.328125 -0.21875 0.5 -0.625l0.40625 0q-0.359375 1.015625 -1.03125 1.53125q-0.65625 0.515625 -1.375 0.515625q-0.46875 0 -0.9375 -0.265625q-0.453125 -0.265625 -0.671875 -0.75q-0.21875 -0.5 -0.21875 -1.53125l0 -6.421875l-1.515625 0l0 -0.34375q0.578125 -0.234375 1.171875 -0.78125q0.609375 -0.546875 1.078125 -1.28125q0.234375 -0.40625 0.65625 -1.453125l0.328125 0zm9.316269 2.84375l0 3.25l-0.34375 0q-0.390625 -1.53125 -1.015625 -2.078125q-0.609375 -0.546875 -1.578125 -0.546875q-0.71875 0 -1.171875 0.390625q-0.453125 0.375 -0.453125 0.84375q0 0.578125 0.34375 1.0q0.3125 0.421875 1.3125 0.90625l1.515625 0.734375q2.109375 1.03125 2.109375 2.71875q0 1.3125 -0.984375 2.109375q-0.984375 0.796875 -2.203125 0.796875q-0.875 0 -2.0 -0.3125q-0.34375 -0.109375 -0.5625 -0.109375q-0.234375 0 -0.375 0.265625l-0.34375 0l0 -3.40625l0.34375 0q0.296875 1.46875 1.109375 2.203125q0.828125 0.734375 1.859375 0.734375q0.71875 0 1.171875 -0.421875q0.453125 -0.421875 0.453125 -1.015625q0 -0.71875 -0.515625 -1.203125q-0.5 -0.484375 -2.015625 -1.234375q-1.5 -0.75 -1.96875 -1.359375q-0.46875 -0.59375 -0.46875 -1.5q0 -1.171875 0.796875 -1.96875q0.8125 -0.796875 2.09375 -0.796875q0.5625 0 1.359375 0.25q0.53125 0.15625 0.71875 0.15625q0.15625 0 0.25 -0.078125q0.09375 -0.078125 0.21875 -0.328125l0.34375 0zm12.132103 0q2.171875 0 3.484375 1.65625q1.109375 1.40625 1.109375 3.21875q0 1.28125 -0.609375 2.59375q-0.609375 1.3125 -1.6875 1.984375q-1.078125 0.671875 -2.40625 0.671875q-2.15625 0 -3.421875 -1.71875q-1.078125 -1.453125 -1.078125 -3.25q0 -1.3125 0.640625 -2.609375q0.65625 -1.296875 1.71875 -1.921875q1.0625 -0.625 2.25 -0.625zm-0.3125 0.6875q-0.5625 0 -1.125 0.328125q-0.546875 0.328125 -0.890625 1.15625q-0.34375 0.8125 -0.34375 2.109375q0 2.078125 0.828125 3.59375q0.828125 1.5 2.1875 1.5q1.0 0 1.65625 -0.828125q0.65625 -0.828125 0.65625 -2.859375q0 -2.546875 -1.09375 -4.0q-0.734375 -1.0 -1.875 -1.0zm10.0390625 0.34375l0 6.28125q0 1.328125 0.296875 1.6875q0.390625 0.453125 1.03125 0.453125l0.859375 0l0 0.375l-5.6875 0l0 -0.375l0.421875 0q0.421875 0 0.765625 -0.203125q0.34375 -0.21875 0.46875 -0.5625q0.125 -0.359375 0.125 -1.375l0 -6.28125l-1.84375 0l0 -0.75l1.84375 0l0 -0.625q0 -1.421875 0.453125 -2.40625q0.46875 -0.984375 1.40625 -1.59375q0.953125 -0.609375 2.125 -0.609375q1.09375 0 2.015625 0.703125q0.59375 0.46875 0.59375 1.046875q0 0.3125 -0.265625 0.59375q-0.265625 0.28125 -0.578125 0.28125q-0.25 0 -0.515625 -0.171875q-0.265625 -0.171875 -0.65625 -0.734375q-0.375 -0.578125 -0.703125 -0.78125q-0.3125 -0.1875 -0.71875 -0.1875q-0.46875 0 -0.8125 0.25q-0.328125 0.25 -0.484375 0.796875q-0.140625 0.53125 -0.140625 2.75l0 0.6875l2.46875 0l0 0.75l-2.46875 0z" fill-rule="nonzero"/><path fill="#000000" d="m156.24689 265.52194q0.515625 0.53125 0.78125 1.078125q0.1875 0.375 0.609375 1.96875l0.921875 -1.375q0.359375 -0.5 0.875 -0.953125q0.53125 -0.453125 0.921875 -0.625q0.25 -0.09375 0.546875 -0.09375q0.453125 0 0.71875 0.234375q0.265625 0.234375 0.265625 0.578125q0 0.40625 -0.15625 0.546875q-0.296875 0.265625 -0.671875 0.265625q-0.21875 0 -0.46875 -0.09375q-0.484375 -0.171875 -0.65625 -0.171875q-0.25 0 -0.59375 0.296875q-0.640625 0.53125 -1.53125 2.09375l0.84375 3.578125q0.203125 0.828125 0.328125 0.984375q0.140625 0.15625 0.28125 0.15625q0.21875 0 0.515625 -0.234375q0.5625 -0.484375 0.96875 -1.25l0.375 0.1875q-0.65625 1.234375 -1.671875 2.046875q-0.578125 0.453125 -0.96875 0.453125q-0.578125 0 -0.921875 -0.65625q-0.21875 -0.40625 -0.90625 -3.5q-1.625 2.828125 -2.609375 3.640625q-0.640625 0.515625 -1.234375 0.515625q-0.40625 0 -0.75 -0.296875q-0.25 -0.234375 -0.25 -0.625q0 -0.34375 0.234375 -0.5625q0.21875 -0.234375 0.546875 -0.234375q0.34375 0 0.71875 0.328125q0.265625 0.25 0.40625 0.25q0.125 0 0.328125 -0.171875q0.484375 -0.390625 1.328125 -1.703125q0.84375 -1.3125 1.109375 -1.90625q-0.640625 -2.53125 -0.703125 -2.671875q-0.234375 -0.671875 -0.625 -0.953125q-0.375 -0.28125 -1.125 -0.28125q-0.25 0 -0.5625 0.015625l0 -0.375l2.78125 -0.484375z" fill-rule="nonzero"/><path fill="#000000" d="m164.80708 260.13132q0.53125 -0.234375 0.84375 -0.609375q0.25 -0.265625 0.25 -0.515625q0 -0.140625 -0.03125 -0.234375q-0.03125 -0.0625 -0.203125 -0.21875q-0.15625 -0.171875 -0.1875 -0.234375q-0.046875 -0.109375 -0.046875 -0.28125q0 -0.296875 0.203125 -0.5q0.203125 -0.21875 0.484375 -0.21875q0.28125 0 0.5 0.234375q0.21875 0.21875 0.21875 0.5625q0 0.625 -0.484375 1.265625q-0.484375 0.625 -1.40625 0.96875l-0.140625 -0.21875z" fill-rule="nonzero"/><path fill="#000000" d="m172.24509 281.4282q-0.71875 0.875 -1.453125 1.28125q-0.734375 0.40625 -1.5625 0.40625q-0.984375 0 -1.53125 -0.546875q-0.546875 -0.5625 -0.546875 -1.5q0 -1.0625 0.59375 -2.09375q0.59375 -1.03125 1.59375 -1.671875q1.0 -0.640625 1.96875 -0.640625q0.75 0 1.125 0.3125q0.375 0.3125 0.375 0.78125q0 0.421875 -0.265625 0.734375q-0.1875 0.234375 -0.46875 0.234375q-0.21875 0 -0.359375 -0.140625q-0.140625 -0.140625 -0.140625 -0.34375q0 -0.140625 0.046875 -0.25q0.046875 -0.109375 0.203125 -0.265625q0.171875 -0.15625 0.203125 -0.21875q0.046875 -0.078125 0.046875 -0.15625q0 -0.140625 -0.140625 -0.234375q-0.203125 -0.140625 -0.5625 -0.140625q-0.6875 0 -1.359375 0.484375q-0.65625 0.46875 -1.125 1.359375q-0.578125 1.0625 -0.578125 2.125q0 0.71875 0.40625 1.140625q0.40625 0.40625 1.09375 0.40625q0.53125 0 1.0625 -0.265625q0.53125 -0.28125 1.171875 -0.96875l0.203125 0.171875z" fill-rule="nonzero"/><path fill="#000000" d="m181.49734 260.13132q0.4375 0 0.734375 0.3125q0.3125 0.3125 0.3125 0.75q0 0.4375 -0.3125 0.75q-0.296875 0.3125 -0.734375 0.3125q-0.4375 0 -0.75 -0.3125q-0.3125 -0.3125 -0.3125 -0.75q0 -0.4375 0.296875 -0.75q0.3125 -0.3125 0.765625 -0.3125zm0.859375 4.984375l0 7.671875q0 0.890625 0.125 1.1875q0.140625 0.296875 0.390625 0.453125q0.265625 0.140625 0.9375 0.140625l0 0.375l-4.640625 0l0 -0.375q0.703125 0 0.9375 -0.125q0.25 -0.140625 0.390625 -0.453125q0.140625 -0.3125 0.140625 -1.203125l0 -3.671875q0 -1.5625 -0.09375 -2.015625q-0.078125 -0.328125 -0.234375 -0.453125q-0.15625 -0.140625 -0.421875 -0.140625q-0.296875 0 -0.71875 0.15625l-0.140625 -0.375l2.875 -1.171875l0.453125 0zm5.425644 2.03125q1.671875 -2.03125 3.1875 -2.03125q0.78125 0 1.34375 0.390625q0.5625 0.390625 0.90625 1.296875q0.21875 0.625 0.21875 1.90625l0 4.078125q0 0.90625 0.15625 1.234375q0.109375 0.25 0.359375 0.40625q0.265625 0.140625 0.953125 0.140625l0 0.375l-4.71875 0l0 -0.375l0.1875 0q0.671875 0 0.9375 -0.203125q0.265625 -0.203125 0.375 -0.59375q0.03125 -0.15625 0.03125 -0.984375l0 -3.90625q0 -1.296875 -0.34375 -1.890625q-0.328125 -0.59375 -1.125 -0.59375q-1.25 0 -2.46875 1.359375l0 5.03125q0 0.96875 0.109375 1.203125q0.140625 0.296875 0.390625 0.4375q0.265625 0.140625 1.046875 0.140625l0 0.375l-4.71875 0l0 -0.375l0.203125 0q0.734375 0 0.984375 -0.359375q0.265625 -0.375 0.265625 -1.421875l0 -3.546875q0 -1.71875 -0.078125 -2.09375q-0.078125 -0.375 -0.25 -0.5q-0.15625 -0.140625 -0.421875 -0.140625q-0.296875 0 -0.703125 0.15625l-0.15625 -0.375l2.875 -1.171875l0.453125 0l0 2.03125z" fill-rule="nonzero"/><path fill="#000000" d="m200.46596 275.27194l1.171875 -5.25l0.359375 0q-0.078125 0.765625 -0.078125 1.265625q0 1.421875 0.90625 2.328125q0.921875 0.890625 2.390625 0.890625q1.359375 0 2.0625 -0.828125q0.71875 -0.84375 0.71875 -1.9375q0 -0.71875 -0.328125 -1.296875q-0.484375 -0.859375 -2.609375 -3.046875q-1.03125 -1.03125 -1.328125 -1.546875q-0.484375 -0.84375 -0.484375 -1.765625q0 -1.484375 1.109375 -2.53125q1.109375 -1.046875 2.828125 -1.046875q0.59375 0 1.109375 0.109375q0.328125 0.0625 1.171875 0.421875q0.609375 0.234375 0.671875 0.25q0.140625 0.03125 0.328125 0.03125q0.296875 0 0.515625 -0.15625q0.21875 -0.15625 0.5 -0.65625l0.40625 0l-1.078125 4.671875l-0.359375 0q0.046875 -0.625 0.046875 -1.0q0 -1.265625 -0.84375 -2.0625q-0.828125 -0.796875 -2.1875 -0.796875q-1.09375 0 -1.765625 0.640625q-0.671875 0.625 -0.671875 1.453125q0 0.734375 0.421875 1.390625q0.4375 0.65625 1.984375 2.15625q1.5625 1.5 2.015625 2.34375q0.46875 0.828125 0.46875 1.78125q0 1.0625 -0.578125 2.078125q-0.5625 1.0 -1.625 1.5625q-1.0625 0.546875 -2.3125 0.546875q-0.625 0 -1.171875 -0.125q-0.546875 -0.109375 -1.734375 -0.5625q-0.40625 -0.15625 -0.671875 -0.15625q-0.609375 0 -0.953125 0.84375l-0.40625 0z" fill-rule="nonzero"/><path fill="#000000" d="m213.77065 260.13132q0.53125 -0.234375 0.84375 -0.609375q0.25 -0.265625 0.25 -0.515625q0 -0.140625 -0.03125 -0.234375q-0.03125 -0.0625 -0.203125 -0.21875q-0.15625 -0.171875 -0.1875 -0.234375q-0.046875 -0.109375 -0.046875 -0.28125q0 -0.296875 0.203125 -0.5q0.203125 -0.21875 0.484375 -0.21875q0.28125 0 0.5 0.234375q0.21875 0.21875 0.21875 0.5625q0 0.625 -0.484375 1.265625q-0.484375 0.625 -1.40625 0.96875l-0.140625 -0.21875z" fill-rule="nonzero"/><path fill="#000000" fill-opacity="0.0" d="m373.7743 196.33046l0 53.984253" fill-rule="evenodd"/><path stroke="#595959" stroke-width="1.0" stroke-linejoin="round" stroke-linecap="butt" stroke-dasharray="4.0,3.0" d="m373.7743 196.33046l0 53.984253" fill-rule="evenodd"/><path fill="#000000" fill-opacity="0.0" d="m284.95767 81.30348l41.543304 0l0 42.015747l-41.543304 0z" fill-rule="evenodd"/><path fill="#000000" d="m310.78403 100.551605l-0.265625 0.9375l-1.515625 0q0.171875 0.5 0.171875 0.921875q0 1.203125 -1.015625 2.140625q-1.03125 0.9375 -2.828125 1.046875q-0.96875 0.28125 -1.453125 0.6875q-0.1875 0.140625 -0.1875 0.296875q0 0.1875 0.15625 0.34375q0.171875 0.140625 0.84375 0.296875l1.765625 0.40625q1.46875 0.34375 1.9375 0.828125q0.46875 0.46875 0.46875 1.109375q0 0.75 -0.546875 1.359375q-0.546875 0.625 -1.609375 0.96875q-1.0625 0.359375 -2.359375 0.359375q-1.125 0 -2.0625 -0.28125q-0.921875 -0.265625 -1.3125 -0.71875q-0.40625 -0.453125 -0.40625 -0.9375q0 -0.390625 0.265625 -0.8125q0.25 -0.421875 0.640625 -0.703125q0.25 -0.171875 1.390625 -0.8125q-0.40625 -0.328125 -0.40625 -0.71875q0 -0.375 0.359375 -0.78125q0.375 -0.40625 1.5625 -0.890625q-1.0 -0.203125 -1.59375 -0.84375q-0.578125 -0.65625 -0.578125 -1.4375q0 -1.296875 1.125 -2.3125q1.140625 -1.03125 3.03125 -1.03125q0.671875 0 1.109375 0.140625q0.4375 0.140625 0.859375 0.4375l2.453125 0zm-3.15625 1.421875q0 -0.734375 -0.40625 -1.140625q-0.40625 -0.421875 -1.0625 -0.421875q-1.03125 0 -1.703125 1.03125q-0.671875 1.03125 -0.671875 2.15625q0 0.703125 0.421875 1.15625q0.4375 0.4375 1.046875 0.4375q0.484375 0 0.9375 -0.265625q0.453125 -0.265625 0.75 -0.71875q0.3125 -0.46875 0.5 -1.1875q0.1875 -0.734375 0.1875 -1.046875zm-4.359375 6.25q-0.75 0.34375 -1.125 0.859375q-0.375 0.53125 -0.375 1.046875q0 0.59375 0.546875 0.984375q0.78125 0.578125 2.296875 0.578125q1.296875 0 2.21875 -0.453125q0.9375 -0.4375 0.9375 -1.140625q0 -0.359375 -0.34375 -0.671875q-0.34375 -0.3125 -1.328125 -0.515625q-0.546875 -0.109375 -2.828125 -0.6875z" fill-rule="nonzero"/><path fill="#000000" fill-opacity="0.0" d="m254.42068 -5.0364547l41.543304 0l0 42.015747l-41.543304 0z" fill-rule="evenodd"/><path fill="#000000" d="m278.2552 19.899168q-0.9375 1.140625 -1.90625 1.671875q-0.96875 0.53125 -2.046875 0.53125q-1.28125 0 -2.015625 -0.71875q-0.71875 -0.734375 -0.71875 -1.96875q0 -1.390625 0.78125 -2.734375q0.78125 -1.359374 2.09375 -2.203124q1.3125 -0.84375 2.578125 -0.84375q1.0 0 1.484375 0.421875q0.5 0.40625 0.5 1.015625q0 0.5625 -0.34375 0.96874905q-0.265625 0.3125 -0.640625 0.3125q-0.28125 0 -0.46875 -0.1875q-0.1875 -0.18749905 -0.1875 -0.45312405q0 -0.171875 0.0625 -0.3125q0.078125 -0.15625 0.296875 -0.359375q0.21875 -0.203125 0.25 -0.296875q0.046875 -0.09375 0.046875 -0.1875q0 -0.203125 -0.171875 -0.328125q-0.265625 -0.171875 -0.75 -0.171875q-0.890625 0 -1.765625 0.625q-0.875 0.625 -1.484375 1.781249q-0.75 1.40625 -0.75 2.8125q0 0.921875 0.53125 1.46875q0.53125 0.546875 1.4375 0.546875q0.703125 0 1.390625 -0.34375q0.6875 -0.359375 1.546875 -1.28125l0.25 0.234375z" fill-rule="nonzero"/><path fill="#000000" fill-opacity="0.0" d="m232.32808 57.93627c0 -8.732189 7.078842 -15.811024 15.811035 -15.811024l10.818893 0c8.732178 0 15.811035 -7.0788383 15.811035 -15.811024l0 0c0 8.732185 7.078827 15.811024 15.811005 15.811024l10.818909 0l0 0c8.732178 0 15.811005 7.0788345 15.811005 15.811024z" fill-rule="evenodd"/><path fill="#000000" fill-opacity="0.0" d="m232.32808 57.93627c0 -8.732189 7.078842 -15.811024 15.811035 -15.811024l10.818893 0c8.732178 0 15.811035 -7.0788383 15.811035 -15.811024l0 0c0 8.732185 7.078827 15.811024 15.811005 15.811024l10.818909 0l0 0c8.732178 0 15.811005 7.0788345 15.811005 15.811024" fill-rule="evenodd"/><path stroke="#595959" stroke-width="1.0" stroke-linejoin="round" stroke-linecap="butt" d="m232.32808 57.93627c0 -8.732189 7.078842 -15.811024 15.811035 -15.811024l10.818893 0c8.732178 0 15.811035 -7.0788383 15.811035 -15.811024l0 0c0 8.732185 7.078827 15.811024 15.811005 15.811024l10.818909 0l0 0c8.732178 0 15.811005 7.0788345 15.811005 15.811024" fill-rule="evenodd"/></g></svg>